<?xml version="1.0" encoding="UTF-8" standalone="no"?>
<!-- Created with Inkscape (http://www.inkscape.org/) -->

<svg
   xmlns:dc="http://purl.org/dc/elements/1.1/"
   xmlns:cc="http://creativecommons.org/ns#"
   xmlns:rdf="http://www.w3.org/1999/02/22-rdf-syntax-ns#"
   xmlns:svg="http://www.w3.org/2000/svg"
   xmlns="http://www.w3.org/2000/svg"
   xmlns:sodipodi="http://sodipodi.sourceforge.net/DTD/sodipodi-0.dtd"
   xmlns:inkscape="http://www.inkscape.org/namespaces/inkscape"
   width="3403.375"
   height="3432.4683"
   viewBox="0 0 2261.815 2281.1497"
   version="1.1"
   id="svg8"
   inkscape:version="0.92.2 2405546, 2018-03-11"
   sodipodi:docname="Process6.svg">
  <defs
     id="defs2">
    <clipPath
       id="_clipPath_ABRr7EnFUGsHql2fd5dPMqRtTVS0EU31">
      <rect
         id="rect9561"
         height="200"
         width="200"
         x="0"
         y="0" />
    </clipPath>
    <clipPath
       id="_clipPath_AsZg2sXtZgFZvICa93KEx7cR2m0IyejY">
      <rect
         id="rect9944"
         height="200"
         width="200"
         x="0"
         y="0" />
    </clipPath>
  </defs>
  <sodipodi:namedview
     id="base"
     pagecolor="#ffffff"
     bordercolor="#666666"
     borderopacity="1.0"
     inkscape:pageopacity="0.0"
     inkscape:pageshadow="2"
     inkscape:zoom="0.40180303"
     inkscape:cx="1120.7982"
     inkscape:cy="2077.5015"
     inkscape:document-units="px"
     inkscape:current-layer="layer1"
     showgrid="false"
     inkscape:window-width="1596"
     inkscape:window-height="825"
     inkscape:window-x="0"
     inkscape:window-y="54"
     inkscape:window-maximized="0"
     inkscape:snap-page="false"
     inkscape:snap-grids="true"
     units="px"
     scale-x="0.66458"
     inkscape:pagecheckerboard="true"
     showguides="true"
     inkscape:guide-bbox="true"
     borderlayer="true"
     inkscape:showpageshadow="false"
     inkscape:snap-global="false"
     showborder="false"
     fit-margin-top="0"
     fit-margin-left="0"
     fit-margin-right="0"
     fit-margin-bottom="0" />
  <metadata
     id="metadata5">
    <rdf:RDF>
      <cc:Work
         rdf:about="">
        <dc:format>image/svg+xml</dc:format>
        <dc:type
           rdf:resource="http://purl.org/dc/dcmitype/StillImage" />
        <dc:title></dc:title>
      </cc:Work>
    </rdf:RDF>
  </metadata>
  <g
     inkscape:label="Shirt"
     inkscape:groupmode="layer"
     id="layer1"
     transform="translate(761.80585,-1010.8716)"
     style="display:inline">
    <g
       id="g2978"
       transform="matrix(1.1091958,0,0,1.1091958,462.16216,-2908.014)"
       style="fill:#333333;fill-opacity:1">
      <path
         inkscape:connector-curvature="0"
         id="path2953"
         d="m -237.1354,5587.4765 c -36.2305,-1.1541 -49.0174,-1.7063 -111.4345,-4.8127 -44.2836,-2.204 -108.2212,-6.2003 -115.0346,-7.1902 -3.0971,-0.4499 -23.369,-2.2825 -45.0486,-4.0726 -62.71123,-5.1776 -118.67201,-10.9107 -156.86545,-16.0707 -19.46741,-2.6299 -36.14042,-4.7822 -37.05114,-4.7829 -1.01876,-6e-4 -1.4722,-4.1795 -1.17852,-10.861 0.48305,-10.9898 2.06824,-75.629 9.24255,-376.8793 3.91199,-164.2662 4.90258,-200.9697 6.4481,-238.9182 0.88987,-21.8501 1.56933,-47.7466 4.89663,-186.6297 1.29318,-53.9778 3.4011,-141.9431 4.68426,-195.4785 1.28316,-53.5354 2.80846,-114.9795 3.38953,-136.5425 0.70022,-25.9835 0.51221,-39.0057 -0.55749,-38.6131 -1.45729,0.5349 -26.09113,34.3663 -67.50815,92.7137 -8.60476,12.1222 -15.87334,20.8782 -16.83707,20.2826 -0.9327,-0.5764 -32.54782,-23.5307 -70.25582,-51.0095 -37.70799,-27.4788 -85.57386,-62.3532 -106.36859,-77.4988 -20.79473,-15.1456 -56.99445,-41.5507 -80.44384,-58.6781 -23.4494,-17.1274 -52.6064,-38.346 -64.7935,-47.1523 -15.0168,-10.8511 -21.699,-16.5973 -20.7332,-17.8289 1.4454,-1.8434 63.8737,-85.7168 113.72454,-152.7909 15.01964,-20.2088 43.59829,-58.5983 63.50814,-85.3099 19.90985,-26.7117 60.3925,-81.1286 89.96143,-120.9266 29.56895,-39.798 57.89767,-77.4443 62.95273,-83.6584 27.78918,-34.1609 60.91075,-65.8343 92.67969,-88.6274 16.79943,-12.053 29.56805,-18.5307 56.87495,-28.8532 19.0162,-7.1885 36.87489,-13.9535 89.29262,-33.8248 51.9582,-19.697 104.5049,-39.4414 144.8805,-54.4389 14.2605,-5.297 29.7033,-12.5672 41.8308,-19.6932 10.5737,-6.213 23.3879,-13.6428 28.476,-16.5107 5.0881,-2.8678 9.251,-6.09 9.251,-7.1604 0,-1.9534 6.0714,-2.4277 8.9301,-0.6976 8.2494,4.9927 121.6921,18.8838 181.1824,22.1858 36.6495,2.0342 103.2358,2.01 136.4895,-0.05 51.1001,-3.1651 141.353,-16.1199 147.5581,-21.1803 2.0657,-1.6846 5.9867,0.2985 36.6582,18.5405 8.8489,5.2629 19.7088,10.8759 24.1332,12.4733 4.4244,1.5974 19.6283,7.334 33.7864,12.748 14.1581,5.4141 33.3439,12.6249 42.6352,16.0241 9.2912,3.3992 22.6851,8.4926 29.7642,11.3188 7.079,2.8261 19.3869,7.5527 27.3509,10.5035 20.2993,7.5214 61.577,23.0088 90.0971,33.8043 13.2732,5.0243 34.269,12.9325 46.6574,17.5738 31.0111,11.6182 32.5112,12.3295 43.4396,20.5984 28.2135,21.3473 68.7536,70.3634 94.1097,113.7857 3.8695,6.6265 73.1234,110.9888 153.8977,231.9161 80.7743,120.9273 147.0679,220.6119 147.3192,221.5211 0.2515,0.9093 -40.8106,31.9685 -91.2489,69.0204 -50.4383,37.0519 -97.8599,71.8905 -105.3814,77.419 -7.5215,5.5284 -24.1734,17.7642 -37.0042,27.1905 -12.8307,9.4264 -29.8446,21.9418 -37.8086,27.8121 -49.6526,36.5997 -66.1735,48.8049 -67.7948,50.0851 -1.9121,1.51 -13.3612,-13.3379 -54.4798,-70.6534 -11.5034,-16.0348 -21.7528,-29.1994 -22.7762,-29.2546 -1.3278,-0.072 -1.7023,4.623 -1.3079,16.3906 1.8831,56.1795 2.8856,99.4403 6.4409,277.9335 8.4102,422.2541 8.5011,426.6549 11.2415,544.6047 0.4523,19.4674 1.1661,44.4452 1.5864,55.5062 0.42,11.061 1.4801,59.9307 2.3557,108.5992 0.8754,48.6685 1.9847,99.7638 2.4651,113.545 l 0.8735,25.0568 -15.7238,1.9876 c -8.6482,1.0932 -25.1358,3.3484 -36.6392,5.0117 -21.0551,3.0443 -81.6272,9.6535 -117.448,12.8151 -16.7227,1.4759 -30.5655,2.8009 -59.7313,5.7172 -36.0232,3.6019 -147.7218,9.7953 -216.9954,12.0318 -55.4615,1.7907 -275.6856,1.7461 -332.6155,-0.068 z"
         style="fill:#333333;fill-opacity:1;stroke:#000000;stroke-width:1.60887659;stroke-opacity:1" />
      <path
         inkscape:connector-curvature="0"
         id="path2951"
         d="m 41.5827,5581.1191 c 75.7436,-1.7543 93.0067,-2.4319 143.9945,-5.6518 7.079,-0.4471 36.4008,-2.2584 65.1595,-4.0251 28.7587,-1.7668 55.9084,-3.5672 60.3328,-4.0008 4.4244,-0.4336 25.0582,-2.2516 45.853,-4.04 20.7947,-1.7883 39.6185,-3.6026 41.8307,-4.0315 2.2123,-0.429 23.2081,-2.9198 46.6575,-5.5354 23.4493,-2.6154 52.5901,-5.9955 64.7573,-7.5113 l 22.122,-2.7559 v -21.2635 c 0,-21.8849 -2.4257,-149.1236 -3.9857,-209.0668 -0.4836,-18.5825 -2.3222,-106.5478 -4.086,-195.4785 -1.7638,-88.9306 -3.9131,-185.2219 -4.7763,-213.9806 -0.8632,-28.7586 -3.3735,-147.1317 -5.5786,-263.0513 -2.2051,-115.9195 -4.8109,-221.2608 -5.7904,-234.0916 -3.3357,-43.6918 -3.9045,-79.577 -3.9026,-246.1581 0,-164.8642 1.0435,-215.5684 6.4607,-314.5353 2.679,-48.9412 6.9012,-112.9749 8.0094,-121.4702 1.8819,-14.4263 4.0345,-35.8886 3.6354,-36.2459 -0.4923,-0.4408 -37.3818,-14.6243 -64.7987,-24.9142 -35.9503,-13.4926 -89.0308,-33.4703 -129.5145,-48.7448 -12.8308,-4.8411 -34.9126,-13.1716 -49.0707,-18.5123 -14.1581,-5.3407 -32.5375,-12.2974 -40.8431,-15.4593 -8.3055,-3.162 -16.0252,-5.749 -17.1547,-5.749 -1.1296,0 -4.0274,5.2489 -6.4396,11.6643 -8.8293,23.4821 -12.0136,30.6873 -20.8052,47.0776 -41.7675,77.8671 -115.4167,126.0318 -215.6173,141.0079 -9.0227,1.3485 -28.7291,2.1545 -52.2885,2.1384 -35.3012,-0.024 -39.1682,-0.3223 -58.3094,-4.4979 -40.4515,-8.8246 -91.997,-29.1901 -120.0509,-47.432 -51.7422,-33.6449 -91.6685,-81.7129 -107.8325,-129.8211 -2.6709,-7.9495 -5.4583,-14.6543 -6.1942,-14.8996 -0.7359,-0.2453 -6.0203,1.4279 -11.7432,3.7183 -5.7228,2.2903 -19.8171,7.6767 -31.3206,11.9696 -11.5034,4.293 -31.4133,11.772 -44.2441,16.6202 -12.8308,4.8481 -31.2926,11.8169 -41.0263,15.4861 -9.7337,3.6693 -26.0236,9.8601 -36.1998,13.7573 -10.1761,3.8972 -31.1719,11.8732 -46.65738,17.7244 -54.01383,20.4093 -70.0449,26.8765 -78.58216,31.7013 l -8.59604,4.858 1.04608,13.0697 c 2.06813,25.8392 2.49606,33.0825 4.85932,82.2514 1.31846,27.4313 2.80311,57.1151 3.29923,65.9639 0.49609,8.8488 1.18318,21.1567 1.52684,27.3509 0.34365,6.1942 1.43104,49.6338 2.41643,96.5326 2.75628,131.1829 -0.65903,234.8424 -11.18473,339.4729 -2.49688,24.8202 -3.6295,53.8818 -4.95355,127.1013 -0.94409,52.2081 -2.74243,127.1415 -3.99629,166.5187 -1.25388,39.3773 -3.36622,117.2067 -4.69411,172.9543 -1.32789,55.7475 -2.81061,114.0291 -3.29496,129.5145 -0.48434,15.4855 -2.68351,104.472 -4.88705,197.748 -2.20355,93.2759 -5.05296,201.8751 -6.33207,241.3315 -3.88856,119.9509 -4.85079,188.3824 -2.6489,188.3824 1.0518,0 13.65014,1.4428 27.9963,3.2063 14.34615,1.7635 43.45978,5.0006 64.69695,7.1935 21.23717,2.1929 44.76699,4.7048 52.28849,5.5821 7.5215,0.8773 28.8793,2.7206 47.4619,4.0961 18.5825,1.3756 37.0443,2.8477 41.0263,3.2716 7.1836,0.7649 101.9914,6.3972 135.9501,8.0767 9.7337,0.4814 20.2316,1.1855 23.3287,1.5645 16.2384,1.9878 139.9386,4.964 221.2205,5.3227 30.086,0.1335 84.7476,-0.4546 121.4702,-1.3052 z"
         style="fill:#333333;fill-opacity:1;stroke:#000000;stroke-width:1.60887659;stroke-opacity:1" />
      <path
         inkscape:connector-curvature="0"
         id="path2949"
         d="m 637.3217,4469.8781 c 49.1905,-36.4601 77.9812,-57.7746 102.5134,-75.8937 10.1761,-7.5159 33.344,-24.6898 51.484,-38.1642 35.3607,-26.2658 58.1064,-43.0833 103.5118,-76.5334 15.7845,-11.6284 29.0526,-22.0637 29.4846,-23.1897 0.4321,-1.1259 -4.3709,-9.7327 -10.6733,-19.1262 l -11.4588,-17.0791 -4.3504,3.1633 c -2.3925,1.7398 -43.8079,32.902 -92.034,69.2493 -48.2261,36.3473 -120.4445,90.7553 -160.4854,120.9066 -40.0409,30.1514 -72.8017,55.3777 -72.8017,56.0585 0,2.5231 21.0235,30.6804 22.9074,30.6804 0.7318,0 19.5879,-13.5323 41.9024,-30.0718 z"
         style="fill:#333333;fill-opacity:1;stroke:#000000;stroke-width:1.60887659;stroke-opacity:1" />
      <path
         inkscape:connector-curvature="0"
         id="path2947"
         d="m -746.84174,4452.654 c 6.59541,-9.1353 12.15643,-17.2538 12.35781,-18.0411 0.2014,-0.7873 -13.52079,-11.5445 -30.49373,-23.905 -16.97294,-12.3605 -44.61579,-32.682 -61.42855,-45.1588 -16.81276,-12.4769 -47.58253,-35.2562 -68.37726,-50.6206 -20.79473,-15.3645 -46.13453,-34.0879 -56.31068,-41.6075 -10.17614,-7.5197 -25.01803,-18.4849 -32.98197,-24.3671 -7.96394,-5.8823 -28.59778,-21.1689 -45.85298,-33.9702 -17.2552,-12.8014 -32.1821,-23.7698 -33.1709,-24.3742 -1.6734,-1.023 -29.6991,34.182 -29.4847,37.0376 0.05,0.6639 17.1345,13.515 37.9658,28.558 20.8313,15.043 48.8453,35.3477 62.25329,45.1215 133.27166,97.1487 194.74523,141.9676 211.00794,153.841 10.61859,7.7526 20.03052,14.0957 20.9154,14.0959 0.88488,1e-4 7.00513,-7.4741 13.60053,-16.6095 z"
         style="fill:#333333;fill-opacity:1;stroke:#000000;stroke-width:1.60887659;stroke-opacity:1" />
      <path
         inkscape:connector-curvature="0"
         id="path2945"
         d="m 608.5746,4433.4005 c 20.4276,-15.3649 68.273,-51.4109 106.3229,-80.1021 38.0499,-28.6912 94.5215,-71.2536 125.4924,-94.5833 30.9708,-23.3295 56.3107,-42.8502 56.3107,-43.3791 0,-0.5289 -57.9899,-87.841 -128.8666,-194.0269 -70.8764,-106.1858 -135.402,-203.6696 -143.3901,-216.6305 -28.8683,-46.8398 -56.2909,-79.7908 -90.0221,-108.1701 -3.0974,-2.6059 -5.5137,-3.6417 -6.1382,-2.6313 -1.7893,2.8951 -3.7405,26.0687 -11.2459,133.5623 -2.3985,34.3525 -4.9912,94.7534 -6.4915,151.2344 -0.4819,18.1401 -1.3096,39.8599 -1.8394,48.2663 -1.185,18.8014 -0.9269,162.7752 0.4736,264.3905 0.8817,63.9647 1.4601,76.9682 3.8285,86.0749 2.4561,9.4439 5.9417,15.0935 29.1353,47.2216 14.49,20.0719 27.0077,36.5428 27.8173,36.602 0.8095,0.059 18.1853,-12.4637 38.6131,-27.8287 z"
         style="fill:#333333;fill-opacity:1;stroke:#000000;stroke-width:1.60887659;stroke-opacity:1" />
      <path
         inkscape:connector-curvature="0"
         id="path2943"
         d="m -702.08322,4386.9263 28.88392,-40.6241 2.60693,-13.6755 c 2.28673,-11.9956 5.30279,-41.3546 8.26406,-80.4438 7.3748,-97.3487 6.60991,-325.9438 -1.52621,-456.1165 -0.44246,-7.0791 -1.61572,-27.7129 -2.60724,-45.853 -0.99153,-18.1401 -2.00737,-34.7919 -2.25743,-37.0042 -0.25006,-2.2122 -0.53722,-5.6511 -0.63811,-7.6421 -0.10088,-1.991 -1.03361,-3.62 -2.0727,-3.62 -4.18593,0 -33.93125,24.645 -55.34241,45.853 -25.44192,25.2005 -36.52882,38.2458 -64.26574,75.6172 -10.50809,14.1581 -33.94034,45.6519 -52.07166,69.9861 -18.13131,24.3343 -43.46148,58.362 -56.28928,75.6172 -29.23012,39.3187 -61.71435,82.9332 -116.57121,156.5127 -23.6052,31.6618 -42.9186,58.2104 -42.9186,58.997 0,0.7866 6.697,6.4043 14.8821,12.4838 48.68206,36.1582 89.02424,66.0262 154.04996,114.0533 96.40725,71.2051 135.46516,100.1169 147.21221,108.971 5.3093,4.0018 10.13121,7.3291 10.71538,7.394 0.58416,0.065 14.05989,-18.1628 29.94603,-40.5061 z"
         style="fill:#333333;fill-opacity:1;stroke:#000000;stroke-width:1.60887659;stroke-opacity:1" />
      <path
         inkscape:connector-curvature="0"
         id="path2941"
         d="m -44.354,3768.7936 c 19.4438,-1.0774 60.1547,-9.2794 81.1101,-16.3413 19.1169,-6.4423 50.7516,-21.5044 65.1595,-31.0241 28.623,-18.9119 54.3201,-44.7548 72.9645,-73.3785 16.2586,-24.9608 37.8251,-73.1846 34.8688,-77.9681 -0.5516,-0.8925 -6.2159,-4.6122 -12.5873,-8.266 -6.3714,-3.6538 -14.3804,-8.4346 -17.7976,-10.6239 -3.4173,-2.1893 -6.7366,-3.3737 -7.3763,-2.632 -0.6396,0.7417 -2.4757,4.9685 -4.08,9.393 -19.1222,52.7343 -64.1066,102.3669 -116.6717,128.7272 -20.6758,10.3684 -31.3725,14.2248 -57.4629,20.7163 -27.7583,6.9065 -43.9627,9.0341 -68.6875,9.0187 -27.4561,-0.017 -50.0459,-4.029 -83.0036,-14.741 -67.2127,-21.8457 -120.1244,-74.6305 -144.8732,-144.5257 -2.0366,-5.7517 -3.836,-10.6563 -3.9986,-10.8991 -0.1627,-0.2428 -4.9238,2.3187 -10.5802,5.6922 -5.6565,3.3735 -17.0114,10.0881 -25.2333,14.9213 -17.5975,10.3448 -17.266,8.395 -5.9758,35.1428 21.5642,51.0885 63.2624,95.4582 117.88,125.4325 28.9056,15.8634 57.6399,26.0131 108.1764,38.2107 12.547,3.0284 39.4064,5.1931 54.7018,4.4088 4.8669,-0.2496 15.427,-0.8183 23.4669,-1.2638 z"
         style="fill:#333333;fill-opacity:1;stroke:#000000;stroke-width:1.60887659;stroke-opacity:1" />
      <path
         inkscape:connector-curvature="0"
         id="path2939"
         d="m -42.1821,3705.9829 c 58.4741,-7.7123 107.4326,-29.9905 144.6846,-65.8375 13.6024,-13.0895 31.5944,-34.4589 30.1927,-35.8606 -0.5215,-0.5216 -5.8504,0.5496 -11.8418,2.3804 -18.1936,5.5595 -68.8442,16.1059 -93.7506,19.5207 -46.4679,6.371 -121.9461,7.6089 -168.1276,2.7572 -36.2746,-3.8108 -98.0224,-16.6913 -119.9399,-25.0193 -4.7609,-1.809 -9.2008,-2.7444 -9.8665,-2.0788 -2.0088,2.0089 18.1748,27.6436 32.6123,41.4201 16.4587,15.7053 29.5946,25.1879 49.7323,35.9014 25.8363,13.7452 59.2306,24.0748 90.9015,28.1178 11.936,1.5238 38.7604,0.8937 55.403,-1.3014 z"
         style="fill:#333333;fill-opacity:1;stroke:#000000;stroke-width:1.60887659;stroke-opacity:1" />
      <path
         inkscape:connector-curvature="0"
         id="path2888"
         d="m -32.4256,3623.1057 c 54.1648,-3.6765 91.5831,-9.1839 130.319,-19.1809 45.8017,-11.8206 43.1228,-10.5663 50.157,-23.4833 6.4993,-11.9348 15.0061,-32.6748 13.8686,-33.8123 -0.3748,-0.3747 -7.8749,0.7835 -16.6669,2.5739 -95.6707,19.482 -219.4383,22.5512 -352.3454,8.7376 -22.1454,-2.3017 -79.8204,-10.9902 -86.3725,-13.0117 -1.9684,-0.6072 -2.8138,0.011 -2.8097,2.0553 0.01,3.5205 7.67,24.0587 12.9704,34.7631 l 3.8157,7.7061 17.7483,5.4437 c 44.3008,13.5879 66.3563,18.4909 105.432,23.4377 47.3703,5.9968 84.663,7.433 123.8835,4.7708 z"
         style="fill:#333333;fill-opacity:1;stroke:#000000;stroke-width:1.60887659;stroke-opacity:1" />
    </g>
  </g>
  <g
     inkscape:groupmode="layer"
     id="layer2"
     inkscape:label="Content"
     transform="translate(761.80585,-3742.6149)">
    <text
       id="text2010"
       y="4567.4429"
       x="30.912735"
       style="font-style:normal;font-variant:normal;font-weight:normal;font-stretch:normal;font-size:152.77359009px;line-height:1.25;font-family:Akashi;-inkscape-font-specification:'Akashi, Normal';font-variant-ligatures:normal;font-variant-caps:normal;font-variant-numeric:normal;font-feature-settings:normal;text-align:start;letter-spacing:0px;word-spacing:0px;writing-mode:lr-tb;text-anchor:start;fill:#ececec;fill-opacity:0.82828285;stroke:none;stroke-width:0.38193399"
       xml:space="preserve"><tspan
         style="font-style:normal;font-variant:normal;font-weight:normal;font-stretch:normal;font-size:152.77359009px;font-family:Akashi;-inkscape-font-specification:'Akashi, Normal';font-variant-ligatures:normal;font-variant-caps:normal;font-variant-numeric:normal;font-feature-settings:normal;text-align:start;writing-mode:lr-tb;text-anchor:start;fill:#ececec;fill-opacity:0.82828285;stroke-width:0.38193399"
         y="4705.0542"
         x="30.912735"
         id="tspan2008"
         sodipodi:role="line" /></text>
    <g
       id="g10234">
      <g
         transform="translate(-41.028078,-2.8734648)"
         id="g9699">
        <text
           id="text2390"
           y="4646.3569"
           x="112.36641"
           style="font-style:normal;font-variant:normal;font-weight:normal;font-stretch:normal;font-size:152.77359009px;line-height:1.25;font-family:Akashi;-inkscape-font-specification:'Akashi, Normal';font-variant-ligatures:normal;font-variant-caps:normal;font-variant-numeric:normal;font-feature-settings:normal;text-align:start;letter-spacing:0px;word-spacing:0px;writing-mode:lr-tb;text-anchor:start;fill:#ececec;fill-opacity:0.82828285;stroke:none;stroke-width:0.38193399"
           xml:space="preserve"><tspan
             style="font-style:normal;font-variant:normal;font-weight:normal;font-stretch:normal;font-size:152.77359009px;font-family:Akashi;-inkscape-font-specification:'Akashi, Normal';font-variant-ligatures:normal;font-variant-caps:normal;font-variant-numeric:normal;font-feature-settings:normal;text-align:start;writing-mode:lr-tb;text-anchor:start;fill:#ececec;fill-opacity:0.82828285;stroke-width:0.38193399"
             y="4646.3569"
             x="112.36641"
             id="tspan2388"
             sodipodi:role="line">Monitize</tspan></text>
        <g
           id="g9131"
           transform="matrix(1.0283911,0,0,1.0283911,-776.91547,-114.03805)">
          <rect
             y="4561.5405"
             x="747.81219"
             height="58.510052"
             width="35.767628"
             id="rect4374"
             style="opacity:1;fill:#000000;fill-opacity:1;fill-rule:evenodd;stroke:none;stroke-width:10.00392246;stroke-linecap:round;stroke-linejoin:round;stroke-miterlimit:4;stroke-dasharray:none;stroke-opacity:1;paint-order:markers stroke fill" />
          <path
             style="fill:#806600;stroke-width:0.21231934"
             inkscape:connector-curvature="0"
             d="m 760.7507,4577.1538 c -0.4696,0.3739 -0.8344,0.841 -1.1036,1.3981 -0.265,0.5524 -0.4011,1.2041 -0.4011,1.9569 0,1.1795 0.3771,2.0912 1.1272,2.7381 0.7506,0.6412 1.9861,1.1635 3.7031,1.555 v -8.7477 c -0.6094,0 -1.2034,0.089 -1.7733,0.2685 -0.5694,0.1795 -1.0913,0.4544 -1.5523,0.8311 m 10.9727,18.0843 c -0.879,-0.6958 -2.3674,-1.33 -4.478,-1.9011 v 10.2989 c 0.642,-0.067 1.3159,-0.221 2.0064,-0.4533 0.7021,-0.2335 1.3236,-0.562 1.8858,-0.994 0.5493,-0.426 1.0026,-0.9565 1.3646,-1.581 0.3565,-0.627 0.5365,-1.3694 0.5365,-2.2272 0,-1.3941 -0.4414,-2.4438 -1.3153,-3.1423 m 10.8079,-40.7072 0.01,0.01 c -0.024,-0.026 -0.04,-0.052 -0.064,-0.078 -1.0274,-1.4302 -2.0544,-2.8052 -3.0567,-4.1126 -1.3241,-2.2145 -2.0219,-4.9089 -0.4017,-8.7958 v 0 l 5.5891,-13.3736 -8.7741,-3.9988 0.8981,-3.964 h -22.0413 l 1.1554,5.0509 -9.0259,2.9121 5.5849,13.3736 v 0 c 2.7639,6.6114 -1.1922,9.7688 -3.5152,12.9867 -11.4977,15.8987 -24.3681,38.6608 -24.3681,52.383 0,22.7537 17.6728,21.9959 41.1942,21.9959 23.5182,0 41.1944,0.7578 41.1944,-21.9959 0,-13.7247 -12.8825,-36.4866 -24.3764,-52.3898 m -22.354,-11.165 h 11.2491 v 7.0987 H 760.18 Z m 19.8909,58.3118 c -0.3936,1.2028 -1.0994,2.3729 -2.1187,3.5158 -1.0189,1.1476 -2.3905,2.1665 -4.1086,3.0619 -1.717,0.8942 -3.9152,1.4293 -6.5955,1.6081 v 4.5642 h -3.1691 v -4.5642 c -4.0079,-0.285 -7.1411,-1.52 -9.3917,-3.7044 -2.2589,-2.182 -3.5629,-5.382 -3.9194,-9.607 h 7.5668 c -0.033,2.0449 0.5045,3.6506 1.612,4.833 1.1072,1.1795 2.4881,1.9309 4.1325,2.251 v -11.2126 c -0.1802,-0.074 -0.4208,-0.1539 -0.7259,-0.2428 -0.3051,-0.09 -0.6378,-0.1707 -0.9909,-0.2416 -1.3236,-0.3578 -2.6315,-0.7803 -3.9156,-1.2602 -1.2919,-0.4822 -2.4472,-1.1293 -3.4656,-1.9317 -1.0196,-0.8046 -1.8339,-1.8104 -2.4403,-3.0047 -0.6093,-1.2 -0.9144,-2.6928 -0.9144,-4.4823 0,-1.8244 0.3495,-3.4351 1.051,-4.8296 0.6979,-1.3966 1.6132,-2.5678 2.7603,-3.5169 1.1476,-0.9467 2.4716,-1.6788 3.9719,-2.1996 1.5047,-0.518 3.057,-0.8308 4.6697,-0.9393 v -4.1323 h 3.1691 v 4.1323 c 1.6056,0.1794 3.1179,0.5296 4.5339,1.0468 1.4081,0.5218 2.6514,1.2337 3.7306,2.1469 1.0668,0.9113 1.9498,2.05 2.6239,3.4052 0.682,1.3671 1.0752,2.9746 1.1794,4.8311 h -7.6184 c -0.036,-1.4281 -0.4858,-2.6476 -1.3404,-3.6464 -0.8626,-1.0034 -1.8977,-1.5044 -3.1094,-1.5044 v 9.4989 c 0.4257,0.1098 0.8635,0.2168 1.316,0.3221 0.4414,0.1085 0.9186,0.2301 1.4199,0.3771 2.6479,0.7134 4.6868,1.6002 6.114,2.6559 1.4287,1.0548 2.4877,2.1542 3.1697,3.2994 0.6781,1.1489 1.0792,2.2935 1.2077,3.4362 0.124,1.1457 0.1887,2.1622 0.1887,3.0608 4e-4,0.7826 -0.2004,1.7778 -0.5932,2.9733"
             id="path3565" />
        </g>
      </g>
      <g
         transform="translate(-41.028078)"
         id="g9675">
        <text
           id="text2002"
           y="4195.5903"
           x="112.36641"
           style="font-style:normal;font-variant:normal;font-weight:normal;font-stretch:normal;font-size:152.77359009px;line-height:1.25;font-family:Akashi;-inkscape-font-specification:'Akashi, Normal';font-variant-ligatures:normal;font-variant-caps:normal;font-variant-numeric:normal;font-feature-settings:normal;text-align:start;letter-spacing:0px;word-spacing:0px;writing-mode:lr-tb;text-anchor:start;fill:#ececec;fill-opacity:0.82828285;stroke:none;stroke-width:0.38193399"
           xml:space="preserve"><tspan
             style="font-style:normal;font-variant:normal;font-weight:normal;font-stretch:normal;font-size:152.77359009px;font-family:Akashi;-inkscape-font-specification:'Akashi, Normal';font-variant-ligatures:normal;font-variant-caps:normal;font-variant-numeric:normal;font-feature-settings:normal;text-align:start;writing-mode:lr-tb;text-anchor:start;fill:#ececec;fill-opacity:0.82828285;stroke-width:0.38193399"
             y="4195.5903"
             x="112.36641"
             id="tspan2000"
             sodipodi:role="line">Idea</tspan></text>
        <g
           id="g9116"
           transform="matrix(1.0391198,0,0,1.0391198,-459.81287,-161.60845)">
          <g
             style="fill:#999999"
             transform="matrix(0.0667709,0,0,0.0667709,420.48902,4084.5207)"
             id="g3611">
            <path
               style="fill:#999999"
               inkscape:connector-curvature="0"
               d="m 662.856,1476.499 v 21.5 c 0,12.55 -9.23,22.74 -20.62,22.74 h -321.17 c -11.41,0 -20.66,-10.19 -20.66,-22.74 v -21.5 c 0,-12.56 9.25,-22.75 20.66,-22.75 h 321.17 c 11.39,0 20.62,10.189 20.62,22.75 z"
               id="path3601" />
            <path
               style="fill:#999999"
               inkscape:connector-curvature="0"
               d="m 662.856,1378.599 v 21.5 c 0,12.56 -9.23,22.75 -20.62,22.75 h -321.17 c -11.41,0 -20.66,-10.19 -20.66,-22.75 v -21.5 c 0,-12.55 9.25,-22.74 20.66,-22.74 h 321.17 c 11.39,0 20.62,10.19 20.62,22.74 z"
               id="path3603" />
            <path
               style="fill:#999999"
               inkscape:connector-curvature="0"
               d="m 662.856,1280.708 v 21.52 c 0,12.53 -9.23,22.72 -20.62,22.72 h -321.17 c -11.41,0 -20.66,-10.19 -20.66,-22.72 v -21.52 c 0,-12.53 9.25,-22.72 20.66,-22.72 h 321.17 c 11.39,10e-4 20.62,10.191 20.62,22.72 z"
               id="path3605" />
            <path
               style="fill:#999999"
               inkscape:connector-curvature="0"
               d="m 587.466,1554.979 v 0.02 h -0.01 c 0,-0.01 0.01,-0.01 0.01,-0.02 z"
               id="path3607" />
            <path
               style="fill:#999999"
               inkscape:connector-curvature="0"
               d="m 375.786,1554.999 h 211.67 c -19.39,38.65 -59.39,65.74 -105.56,65.74 -45.9,0 -86.56,-27.5 -106.11,-65.74 z"
               id="path3609" />
          </g>
          <g
             style="fill:#ffdd55"
             transform="matrix(0.0667709,0,0,0.0667709,420.48902,4084.5207)"
             id="g3615">
            <path
               style="fill:#ffdd55"
               inkscape:connector-curvature="0"
               d="m 929.346,468.739 c 0,81.42 -22.66,157.05 -59.5,223.5 -109.96,198.11 -139.06,309.34 -157,417 -15.05,90.22 -35.8,111 -104,111 h -254 c -68.17,0 -89.44,-20.76 -104.5,-111 -17.93,-107.68 -47.03,-218.89 -157,-417 -36.83,-66.45 -59.5,-142.08 -59.5,-223.5 0,-247.3 200.72,-448 448,-448 247.3,0 447.5,200.7 447.5,448 z"
               id="path3613" />
          </g>
        </g>
      </g>
      <g
         transform="translate(-41.028078,-3.8318002)"
         id="g9713">
        <text
           xml:space="preserve"
           style="font-style:normal;font-variant:normal;font-weight:normal;font-stretch:normal;font-size:152.77359009px;line-height:1.25;font-family:Akashi;-inkscape-font-specification:'Akashi, Normal';font-variant-ligatures:normal;font-variant-caps:normal;font-variant-numeric:normal;font-feature-settings:normal;text-align:start;letter-spacing:0px;word-spacing:0px;writing-mode:lr-tb;text-anchor:start;fill:#ececec;fill-opacity:0.82828285;stroke:none;stroke-width:0.38193399"
           x="112.36641"
           y="4796.6128"
           id="text2394"><tspan
             sodipodi:role="line"
             id="tspan2392"
             x="112.36641"
             y="4796.6128"
             style="font-style:normal;font-variant:normal;font-weight:normal;font-stretch:normal;font-size:152.77359009px;font-family:Akashi;-inkscape-font-specification:'Akashi, Normal';font-variant-ligatures:normal;font-variant-caps:normal;font-variant-numeric:normal;font-feature-settings:normal;text-align:start;writing-mode:lr-tb;text-anchor:start;fill:#ececec;fill-opacity:0.82828285;stroke-width:0.38193399">Grow</tspan></text>
        <g
           transform="matrix(1.7193754,0,0,1.6512114,-896.70843,3648.6115)"
           id="g6230"
           style="fill:#668000">
          <path
             d="m 527.97,642.79 c 1.2224,0 0.66196,0.98412 0.66196,2.2065 l 1.5446,47.661 c 0,1.2224 -0.98411,2.2065 -2.2065,2.2065 -1.22239,0 -2.2065,-0.98412 -2.2065,-2.2065 l 1.3791,-47.661 c 0,-1.2224 -0.39497,-2.2065 0.82745,-2.2065 z"
             style="fill:#668000"
             sodipodi:nodetypes="cccsccc"
             id="path6189"
             inkscape:connector-curvature="0" />
          <g
             transform="matrix(0.47771,0,0,0.47771,355.83,541.84)"
             id="g6185"
             style="fill:#668000">
            <path
               d="m 364.54,244.44 c 0,0 -7.4761,-17.297 23.214,-28.571 17.5,-6.4286 17.143,-16.429 17.143,-16.429 0,0 3.5714,45 -26.429,49.286 0,0 -8.1318,1.8054 -12.362,-1.0988 0,0 -4.23,8.6494 -3.6618,12.816 l -3.9143,0.1894 c 0,0 6.566,-17.236 9.5964,-19.256 l -3.5871,3.0634 z"
               style="fill:#668000"
               sodipodi:nodetypes="cscc"
               id="path6187"
               inkscape:connector-curvature="0" />
          </g>
          <g
             transform="matrix(0,-0.3625,0.3625,0,433.71,790.66)"
             id="g6218"
             style="fill:#668000">
            <path
               d="m 364.54,244.44 c 0,0 -7.4761,-17.297 23.214,-28.571 17.5,-6.4286 17.143,-16.429 17.143,-16.429 0,0 3.5714,45 -26.429,49.286 0,0 -8.1318,1.8054 -12.362,-1.0988 0,0 -4.23,8.6494 -3.6618,12.816 l -3.9143,0.1894 c 0,0 6.566,-17.236 9.5964,-19.256 l -3.5871,3.0634 z"
               style="fill:#668000"
               sodipodi:nodetypes="cscc"
               id="path6220"
               inkscape:connector-curvature="0" />
          </g>
          <g
             transform="matrix(0.34931,0,0,0.34931,401.69,558.2)"
             id="g6222"
             style="fill:#668000">
            <path
               d="m 364.54,244.44 c 0,0 -7.4761,-17.297 23.214,-28.571 17.5,-6.4286 17.143,-16.429 17.143,-16.429 0,0 3.5714,45 -26.429,49.286 0,0 -8.1318,1.8054 -12.362,-1.0988 0,0 -4.23,8.6494 -3.6618,12.816 l -3.9143,0.1894 c 0,0 6.566,-17.236 9.5964,-19.256 l -3.5871,3.0634 z"
               style="fill:#668000"
               sodipodi:nodetypes="cscc"
               id="path6224"
               inkscape:connector-curvature="0" />
          </g>
          <g
             transform="matrix(0,-0.26265,0.26265,0,459.73,738.79)"
             id="g6226"
             style="fill:#668000">
            <path
               d="m 364.54,244.44 c 0,0 -7.4761,-17.297 23.214,-28.571 17.5,-6.4286 17.143,-16.429 17.143,-16.429 0,0 3.5714,45 -26.429,49.286 0,0 -8.1318,1.8054 -12.362,-1.0988 0,0 -4.23,8.6494 -3.6618,12.816 l -3.9143,0.1894 c 0,0 6.566,-17.236 9.5964,-19.256 l -3.5871,3.0634 z"
               style="fill:#668000"
               sodipodi:nodetypes="cscc"
               id="path6228"
               inkscape:connector-curvature="0" />
          </g>
        </g>
      </g>
      <g
         transform="translate(-41.028078,-1.9158595)"
         id="g9692">
        <text
           id="text2398"
           y="4496.1016"
           x="112.36641"
           style="font-style:normal;font-variant:normal;font-weight:normal;font-stretch:normal;font-size:152.77359009px;line-height:1.25;font-family:Akashi;-inkscape-font-specification:'Akashi, Normal';font-variant-ligatures:normal;font-variant-caps:normal;font-variant-numeric:normal;font-feature-settings:normal;text-align:start;letter-spacing:0px;word-spacing:0px;writing-mode:lr-tb;text-anchor:start;fill:#ececec;fill-opacity:0.82828285;stroke:none;stroke-width:0.38193399"
           xml:space="preserve"><tspan
             style="font-style:normal;font-variant:normal;font-weight:normal;font-stretch:normal;font-size:152.77359009px;font-family:Akashi;-inkscape-font-specification:'Akashi, Normal';font-variant-ligatures:normal;font-variant-caps:normal;font-variant-numeric:normal;font-feature-settings:normal;text-align:start;writing-mode:lr-tb;text-anchor:start;fill:#ececec;fill-opacity:0.82828285;stroke-width:0.38193399"
             y="4496.1016"
             x="112.36641"
             id="tspan2396"
             sodipodi:role="line">Launch</tspan></text>
        <g
           id="g9127"
           transform="matrix(1.0213025,0,0,1.0213025,-702.44612,-88.909993)">
          <rect
             ry="2.8238597"
             y="4432.4307"
             x="643.21259"
             height="56.91069"
             width="56.91069"
             id="rect4780"
             style="fill:#000000;fill-opacity:0;stroke:none;stroke-width:0.47425574" />
          <path
             id="path4136"
             d="m 753.01678,4379.8513 c -13.79562,2.9798 -45.69387,9.7701 -63.01046,26.9628 -11.65605,11.5878 -19.29549,25.6084 -19.63566,36.7458 l 18.39062,18.5169 c 11.13374,-0.2818 25.18835,-7.8238 36.84186,-19.3865 17.30779,-17.1956 24.3165,-49.0381 27.39143,-62.8169 z m -26.29973,26.1179 a 10.016272,10.016272 0 0 1 -0.0485,14.165 10.016272,10.016272 0 0 1 -14.16507,-0.048 10.016272,10.016272 0 0 1 0.0485,-14.1651 10.016272,10.016272 0 0 1 14.16506,0.048 z"
             style="fill:#808080;fill-opacity:1;stroke:none;stroke-width:0.308193"
             inkscape:connector-curvature="0" />
          <path
             sodipodi:nodetypes="ccczc"
             inkscape:connector-curvature="0"
             id="path4178"
             d="m 673.44118,4425.8938 c -16.17601,-7.9112 -23.99296,7.0902 -25.03868,15.5595 7.41463,-2.7423 11.98849,-3.3391 19.40046,-1.4591 0.78717,-2.6589 1.75315,-5.9883 2.74175,-8.2516 0.9886,-2.2633 1.64631,-3.1972 2.89647,-5.8488 z"
             style="fill:#808080;fill-opacity:1;fill-rule:evenodd;stroke:none;stroke-width:0.308193px;stroke-linecap:butt;stroke-linejoin:miter;stroke-opacity:1" />
          <path
             sodipodi:nodetypes="ccczc"
             inkscape:connector-curvature="0"
             id="path4178-7"
             d="m 706.45092,4459.1302 c 7.80035,16.2297 -7.25415,23.9439 -15.73041,24.9316 2.79292,-7.3957 3.42102,-11.9654 1.59182,-19.39 2.66422,-0.769 6.00014,-1.7122 8.27013,-2.6853 2.26998,-0.973 3.20836,-1.6244 5.86846,-2.8563 z"
             style="fill:#808080;fill-opacity:1;fill-rule:evenodd;stroke:none;stroke-width:0.308193px;stroke-linecap:butt;stroke-linejoin:miter;stroke-opacity:1" />
          <path
             inkscape:connector-curvature="0"
             id="path4136-5"
             d="m 654.12582,4478.0663 c 0.99329,-4.4509 3.25777,-14.7424 8.85113,-20.2995 3.76979,-3.7406 8.31691,-6.1779 11.91623,-6.2632 l 5.94227,5.9831 c -0.11565,3.5967 -2.58358,8.1212 -6.34535,11.861 -5.5942,5.5543 -15.8983,7.7484 -20.3571,8.7115 l -0.007,0.01 z"
             style="fill:#d40000;fill-opacity:1;stroke:none;stroke-width:0.308193" />
        </g>
      </g>
      <g
         transform="translate(-41.028078,-0.95792976)"
         id="g9682">
        <text
           xml:space="preserve"
           style="font-style:normal;font-variant:normal;font-weight:normal;font-stretch:normal;font-size:152.77359009px;line-height:1.25;font-family:Akashi;-inkscape-font-specification:'Akashi, Normal';font-variant-ligatures:normal;font-variant-caps:normal;font-variant-numeric:normal;font-feature-settings:normal;text-align:start;letter-spacing:0px;word-spacing:0px;writing-mode:lr-tb;text-anchor:start;fill:#ececec;fill-opacity:0.82828285;stroke:none;stroke-width:0.38193399"
           x="112.36641"
           y="4345.8462"
           id="text2006"><tspan
             sodipodi:role="line"
             id="tspan2004"
             x="112.36641"
             y="4345.8462"
             style="font-style:normal;font-variant:normal;font-weight:normal;font-stretch:normal;font-size:152.77359009px;font-family:Akashi;-inkscape-font-specification:'Akashi, Normal';font-variant-ligatures:normal;font-variant-caps:normal;font-variant-numeric:normal;font-feature-settings:normal;text-align:start;writing-mode:lr-tb;text-anchor:start;fill:#ececec;fill-opacity:0.82828285;stroke-width:0.38193399">Build</tspan></text>
        <g
           id="g9120"
           transform="matrix(0.85443029,0,0,0.85443029,-406.92894,633.41148)">
          <path
             inkscape:connector-curvature="0"
             id="path4349"
             d="m 510.45823,4216.173 c -0.186,-0.067 -0.39405,-0.1332 -0.62884,-0.1995 -0.85814,-0.2389 -2.90533,-0.9768 -4.54944,-1.6367 -1.64402,-0.6602 -4.59668,-1.4091 -6.5624,-1.665 -12.42263,-1.6173 -22.55689,1.847 -28.64327,9.7925 -2.29534,2.9966 -1.87368,3.1325 3.33193,1.0733 8.31053,-3.2875 14.15902,-3.4332 17.81505,-0.4432 1.08018,0.8834 2.35211,2.3264 2.82721,3.2056 1.10646,2.0473 1.83903,7.0924 1.37432,9.4673 -0.19357,0.989 -4.76394,12.3717 -10.15515,25.2945 -4.86418,11.6598 -7.31659,17.5267 -8.73084,20.5281 l 7.63102,3.2103 c 0.42636,-1.1339 1.03037,-2.6269 1.91769,-4.7925 9.76101,-23.8266 17.56031,-42.0955 18.32337,-42.9197 1.1215,-1.2145 3.70244,-2.1449 5.34308,-1.9293 1.55071,0.2035 5.20796,2.0933 5.47329,2.8283 0.10474,0.2911 -0.0907,1.367 -0.43618,2.3926 -0.34548,1.0255 -0.61469,2.2284 -0.59733,2.6724 0.0786,2.0006 4.51264,4.0046 6.25854,2.8292 1.02617,-0.6906 8.45594,-18.5205 8.31268,-19.9483 -0.13464,-1.3395 -1.50677,-2.5041 -3.56126,-3.0208 -2.16928,-0.5424 -2.49874,-0.3731 -3.73962,1.9562 -1.28633,2.4146 -2.69076,3.0205 -5.03707,2.1721 -3.94223,-1.4253 -5.91293,-4.4138 -5.07469,-7.6933 0.52006,-2.0348 0.40415,-2.6892 -0.89242,-3.1724 z"
             style="opacity:1;fill:#999999;fill-opacity:1;fill-rule:evenodd;stroke:none;stroke-width:6.2243948;stroke-linecap:square;stroke-linejoin:miter;stroke-miterlimit:4;stroke-dasharray:none;stroke-opacity:1;paint-order:markers stroke fill" />
          <rect
             transform="rotate(22.816087)"
             y="3764.9377"
             x="2099.4719"
             height="59.79401"
             width="8.7149878"
             id="rect4355"
             style="opacity:1;fill:#504416;fill-opacity:1;fill-rule:evenodd;stroke:#504416;stroke-width:7.28466463;stroke-linecap:round;stroke-linejoin:round;stroke-miterlimit:4;stroke-dasharray:none;stroke-opacity:1;paint-order:markers stroke fill" />
        </g>
      </g>
      <g
         id="g10161">
        <text
           id="text2421"
           y="4942.1157"
           x="71.338333"
           style="font-style:normal;font-variant:normal;font-weight:normal;font-stretch:normal;font-size:152.77359009px;line-height:1.25;font-family:Akashi;-inkscape-font-specification:'Akashi, Normal';font-variant-ligatures:normal;font-variant-caps:normal;font-variant-numeric:normal;font-feature-settings:normal;text-align:start;letter-spacing:0px;word-spacing:0px;writing-mode:lr-tb;text-anchor:start;fill:#ececec;fill-opacity:0.82828285;stroke:none;stroke-width:0.38193399"
           xml:space="preserve"><tspan
             style="font-style:normal;font-variant:normal;font-weight:normal;font-stretch:normal;font-size:152.77359009px;font-family:Akashi;-inkscape-font-specification:'Akashi, Normal';font-variant-ligatures:normal;font-variant-caps:normal;font-variant-numeric:normal;font-feature-settings:normal;text-align:start;writing-mode:lr-tb;text-anchor:start;fill:#ececec;fill-opacity:0.82828285;stroke-width:0.38193399"
             y="4942.1157"
             x="71.338333"
             id="tspan2419"
             sodipodi:role="line">Automate</tspan></text>
        <g
           style="isolation:isolate"
           id="g9636"
           transform="matrix(0.6276965,0,0,0.6276965,-92.002184,4816.8885)">
          <g
             id="g9605"
             clip-path="url(#_clipPath_ABRr7EnFUGsHql2fd5dPMqRtTVS0EU31)">
            <path
               id="path9566"
               style="fill:#200112;stroke:none;stroke-miterlimit:10"
               d="m 19.281,143.625 h 157.438 c 1.811,0 3.281,1.435 3.281,3.203 v 0 c 0,1.768 -1.47,3.203 -3.281,3.203 H 19.281 C 17.47,150.031 16,148.596 16,146.828 v 0 c 0,-1.768 1.47,-3.203 3.281,-3.203 z"
               inkscape:connector-curvature="0" />
            <path
               id="path9568"
               d="m 170.988,171.812 c 0.028,-0.85 0.043,-1.704 0.043,-2.562 v -58.938 c 0,-39.599 -32.15,-71.75 -71.75,-71.75 v 0 c -39.6,0 -71.75,32.151 -71.75,71.75 v 58.938 c 0,0.858 0.015,1.712 0.044,2.562 z"
               inkscape:connector-curvature="0"
               style="fill:#7b8485" />
            <rect
               id="rect9570"
               height="37.852001"
               width="143.5"
               y="162.14799"
               x="27.531"
               style="fill:#6f7075" />
            <rect
               id="rect9572"
               height="60.219002"
               width="2.563"
               y="139.78101"
               x="24.969"
               style="fill:#6f7075" />
            <rect
               id="rect9574"
               height="60.219002"
               width="2.563"
               y="139.78101"
               x="171.03101"
               style="fill:#6f7075" />
            <path
               id="path9576"
               d="m 95.438,62.906 c 0,-23.335 1.722,-42.281 3.843,-42.281 2.122,0 3.844,18.946 3.844,42.281 0,23.336 -1.722,42.281 -3.844,42.281 -2.121,0 -3.843,-18.945 -3.843,-42.281 z"
               inkscape:connector-curvature="0"
               style="fill:#565654" />
            <g
               id="Group">
              <g
                 id="g9580"
                 style="opacity:0.58999999">
                <path
                   id="path9578"
                   d="m 46.109,118.641 c 0,-8.84 7.177,-16.016 16.016,-16.016 8.839,0 16.016,7.176 16.016,16.016 0,8.839 -7.177,16.015 -16.016,16.015 -8.839,0 -16.016,-7.176 -16.016,-16.015 z"
                   inkscape:connector-curvature="0"
                   style="fill:#fdf444" />
              </g>
              <g
                 id="g9584"
                 style="opacity:0.58999999">
                <path
                   id="path9582"
                   d="m 49.766,118.641 c 0,-6.822 5.538,-12.36 12.359,-12.36 6.821,0 12.359,5.538 12.359,12.36 0,6.821 -5.538,12.359 -12.359,12.359 -6.821,0 -12.359,-5.538 -12.359,-12.359 z"
                   inkscape:connector-curvature="0"
                   style="fill:#fdf444" />
              </g>
              <g
                 id="g9588"
                 style="opacity:0.58999999">
                <path
                   id="path9586"
                   d="m 54.25,118.641 c 0,-4.347 3.529,-7.875 7.875,-7.875 4.346,0 7.875,3.528 7.875,7.875 0,4.346 -3.529,7.875 -7.875,7.875 -4.346,0 -7.875,-3.529 -7.875,-7.875 z"
                   inkscape:connector-curvature="0"
                   style="fill:#fdf444" />
              </g>
            </g>
            <g
               id="g9603">
              <g
                 id="g9593"
                 style="opacity:0.58999999">
                <path
                   id="path9591"
                   d="m 120,118.641 c 0,-8.84 7.176,-16.016 16.016,-16.016 8.839,0 16.015,7.176 16.015,16.016 0,8.839 -7.176,16.015 -16.015,16.015 -8.84,0 -16.016,-7.176 -16.016,-16.015 z"
                   inkscape:connector-curvature="0"
                   style="fill:#fdf444" />
              </g>
              <g
                 id="g9597"
                 style="opacity:0.58999999">
                <path
                   id="path9595"
                   d="m 123.656,118.641 c 0,-6.822 5.538,-12.36 12.36,-12.36 6.821,0 12.359,5.538 12.359,12.36 0,6.821 -5.538,12.359 -12.359,12.359 -6.822,0 -12.36,-5.538 -12.36,-12.359 z"
                   inkscape:connector-curvature="0"
                   style="fill:#fdf444" />
              </g>
              <g
                 id="g9601"
                 style="opacity:0.58999999">
                <path
                   id="path9599"
                   d="m 128.141,118.641 c 0,-4.347 3.528,-7.875 7.875,-7.875 4.346,0 7.875,3.528 7.875,7.875 0,4.346 -3.529,7.875 -7.875,7.875 -4.347,0 -7.875,-3.529 -7.875,-7.875 z"
                   inkscape:connector-curvature="0"
                   style="fill:#fdf444" />
              </g>
            </g>
          </g>
        </g>
      </g>
    </g>
  </g>
</svg>
