<?xml version="1.0" encoding="UTF-8" standalone="no"?>
<!-- Created with Inkscape (http://www.inkscape.org/) -->

<svg
   xmlns:dc="http://purl.org/dc/elements/1.1/"
   xmlns:cc="http://creativecommons.org/ns#"
   xmlns:rdf="http://www.w3.org/1999/02/22-rdf-syntax-ns#"
   xmlns:svg="http://www.w3.org/2000/svg"
   xmlns="http://www.w3.org/2000/svg"
   xmlns:sodipodi="http://sodipodi.sourceforge.net/DTD/sodipodi-0.dtd"
   xmlns:inkscape="http://www.inkscape.org/namespaces/inkscape"
   width="5037.5859"
   height="5080.6494"
   viewBox="0 0 5362.9131 5408.7574"
   version="1.1"
   id="svg8"
   inkscape:version="0.92.2 2405546, 2018-03-11"
   sodipodi:docname="ProgressCalendar2.svg">
  <defs
     id="defs2" />
  <sodipodi:namedview
     id="base"
     pagecolor="#ffffff"
     bordercolor="#666666"
     borderopacity="1.0"
     inkscape:pageopacity="0.0"
     inkscape:pageshadow="2"
     inkscape:zoom="0.22627417"
     inkscape:cx="1990.591"
     inkscape:cy="3461.0279"
     inkscape:document-units="px"
     inkscape:current-layer="layer3"
     showgrid="false"
     inkscape:window-width="1596"
     inkscape:window-height="579"
     inkscape:window-x="0"
     inkscape:window-y="36"
     inkscape:window-maximized="0"
     inkscape:snap-page="false"
     inkscape:snap-grids="true"
     units="px"
     scale-x="1"
     inkscape:pagecheckerboard="true"
     showguides="true"
     inkscape:guide-bbox="true"
     borderlayer="true"
     inkscape:showpageshadow="false"
     inkscape:snap-global="false"
     showborder="false"
     fit-margin-top="0"
     fit-margin-left="0"
     fit-margin-right="0"
     fit-margin-bottom="0" />
  <metadata
     id="metadata5">
    <rdf:RDF>
      <cc:Work
         rdf:about="">
        <dc:format>image/svg+xml</dc:format>
        <dc:type
           rdf:resource="http://purl.org/dc/dcmitype/StillImage" />
        <dc:title />
      </cc:Work>
    </rdf:RDF>
  </metadata>
  <g
     inkscape:groupmode="layer"
     id="layer3"
     inkscape:label="PROGRESS shirt"
     transform="translate(4924.7534,7390.433)">
    <g
       transform="matrix(0.52677502,0,0,0.52677502,-3439.5262,-5005.8581)"
       id="layer1"
       inkscape:label="Layer 1">
      <g
         style="fill:#ffffff"
         transform="matrix(4.9925997,0,0,4.9925997,2689.7292,-22166.033)"
         id="g2978">
        <path
           style="fill:#ffffff;stroke:#000000;stroke-width:1.60887659;stroke-opacity:1"
           d="m -237.1354,5587.4765 c -36.2305,-1.1541 -49.0174,-1.7063 -111.4345,-4.8127 -44.2836,-2.204 -108.2212,-6.2003 -115.0346,-7.1902 -3.0971,-0.4499 -23.369,-2.2825 -45.0486,-4.0726 -62.71123,-5.1776 -118.67201,-10.9107 -156.86545,-16.0707 -19.46741,-2.6299 -36.14042,-4.7822 -37.05114,-4.7829 -1.01876,-6e-4 -1.4722,-4.1795 -1.17852,-10.861 0.48305,-10.9898 2.06824,-75.629 9.24255,-376.8793 3.91199,-164.2662 4.90258,-200.9697 6.4481,-238.9182 0.88987,-21.8501 1.56933,-47.7466 4.89663,-186.6297 1.29318,-53.9778 3.4011,-141.9431 4.68426,-195.4785 1.28316,-53.5354 2.80846,-114.9795 3.38953,-136.5425 0.70022,-25.9835 0.51221,-39.0057 -0.55749,-38.6131 -1.45729,0.5349 -26.09113,34.3663 -67.50815,92.7137 -8.60476,12.1222 -15.87334,20.8782 -16.83707,20.2826 -0.9327,-0.5764 -32.54782,-23.5307 -70.25582,-51.0095 -37.70799,-27.4788 -85.57386,-62.3532 -106.36859,-77.4988 -20.79473,-15.1456 -56.99445,-41.5507 -80.44384,-58.6781 -23.4494,-17.1274 -52.6064,-38.346 -64.7935,-47.1523 -15.0168,-10.8511 -21.699,-16.5973 -20.7332,-17.8289 1.4454,-1.8434 63.8737,-85.7168 113.72454,-152.7909 15.01964,-20.2088 43.59829,-58.5983 63.50814,-85.3099 19.90985,-26.7117 60.3925,-81.1286 89.96143,-120.9266 29.56895,-39.798 57.89767,-77.4443 62.95273,-83.6584 27.78918,-34.1609 60.91075,-65.8343 92.67969,-88.6274 16.79943,-12.053 29.56805,-18.5307 56.87495,-28.8532 19.0162,-7.1885 36.87489,-13.9535 89.29262,-33.8248 51.9582,-19.697 104.5049,-39.4414 144.8805,-54.4389 14.2605,-5.297 29.7033,-12.5672 41.8308,-19.6932 10.5737,-6.213 23.3879,-13.6428 28.476,-16.5107 5.0881,-2.8678 9.251,-6.09 9.251,-7.1604 0,-1.9534 6.0714,-2.4277 8.9301,-0.6976 8.2494,4.9927 121.6921,18.8838 181.1824,22.1858 36.6495,2.0342 103.2358,2.01 136.4895,-0.05 51.1001,-3.1651 141.353,-16.1199 147.5581,-21.1803 2.0657,-1.6846 5.9867,0.2985 36.6582,18.5405 8.8489,5.2629 19.7088,10.8759 24.1332,12.4733 4.4244,1.5974 19.6283,7.334 33.7864,12.748 14.1581,5.4141 33.3439,12.6249 42.6352,16.0241 9.2912,3.3992 22.6851,8.4926 29.7642,11.3188 7.079,2.8261 19.3869,7.5527 27.3509,10.5035 20.2993,7.5214 61.577,23.0088 90.0971,33.8043 13.2732,5.0243 34.269,12.9325 46.6574,17.5738 31.0111,11.6182 32.5112,12.3295 43.4396,20.5984 28.2135,21.3473 68.7536,70.3634 94.1097,113.7857 3.8695,6.6265 73.1234,110.9888 153.8977,231.9161 80.7743,120.9273 147.0679,220.6119 147.3192,221.5211 0.2515,0.9093 -40.8106,31.9685 -91.2489,69.0204 -50.4383,37.0519 -97.8599,71.8905 -105.3814,77.419 -7.5215,5.5284 -24.1734,17.7642 -37.0042,27.1905 -12.8307,9.4264 -29.8446,21.9418 -37.8086,27.8121 -49.6526,36.5997 -66.1735,48.8049 -67.7948,50.0851 -1.9121,1.51 -13.3612,-13.3379 -54.4798,-70.6534 -11.5034,-16.0348 -21.7528,-29.1994 -22.7762,-29.2546 -1.3278,-0.072 -1.7023,4.623 -1.3079,16.3906 1.8831,56.1795 2.8856,99.4403 6.4409,277.9335 8.4102,422.2541 8.5011,426.6549 11.2415,544.6047 0.4523,19.4674 1.1661,44.4452 1.5864,55.5062 0.42,11.061 1.4801,59.9307 2.3557,108.5992 0.8754,48.6685 1.9847,99.7638 2.4651,113.545 l 0.8735,25.0568 -15.7238,1.9876 c -8.6482,1.0932 -25.1358,3.3484 -36.6392,5.0117 -21.0551,3.0443 -81.6272,9.6535 -117.448,12.8151 -16.7227,1.4759 -30.5655,2.8009 -59.7313,5.7172 -36.0232,3.6019 -147.7218,9.7953 -216.9954,12.0318 -55.4615,1.7907 -275.6856,1.7461 -332.6155,-0.068 z"
           id="path2953"
           inkscape:connector-curvature="0" />
        <path
           style="fill:#ffffff;stroke:#000000;stroke-width:1.60887659;stroke-opacity:1"
           d="m 41.5827,5581.1191 c 75.7436,-1.7543 93.0067,-2.4319 143.9945,-5.6518 7.079,-0.4471 36.4008,-2.2584 65.1595,-4.0251 28.7587,-1.7668 55.9084,-3.5672 60.3328,-4.0008 4.4244,-0.4336 25.0582,-2.2516 45.853,-4.04 20.7947,-1.7883 39.6185,-3.6026 41.8307,-4.0315 2.2123,-0.429 23.2081,-2.9198 46.6575,-5.5354 23.4493,-2.6154 52.5901,-5.9955 64.7573,-7.5113 l 22.122,-2.7559 v -21.2635 c 0,-21.8849 -2.4257,-149.1236 -3.9857,-209.0668 -0.4836,-18.5825 -2.3222,-106.5478 -4.086,-195.4785 -1.7638,-88.9306 -3.9131,-185.2219 -4.7763,-213.9806 -0.8632,-28.7586 -3.3735,-147.1317 -5.5786,-263.0513 -2.2051,-115.9195 -4.8109,-221.2608 -5.7904,-234.0916 -3.3357,-43.6918 -3.9045,-79.577 -3.9026,-246.1581 0,-164.8642 1.0435,-215.5684 6.4607,-314.5353 2.679,-48.9412 6.9012,-112.9749 8.0094,-121.4702 1.8819,-14.4263 4.0345,-35.8886 3.6354,-36.2459 -0.4923,-0.4408 -37.3818,-14.6243 -64.7987,-24.9142 -35.9503,-13.4926 -89.0308,-33.4703 -129.5145,-48.7448 -12.8308,-4.8411 -34.9126,-13.1716 -49.0707,-18.5123 -14.1581,-5.3407 -32.5375,-12.2974 -40.8431,-15.4593 -8.3055,-3.162 -16.0252,-5.749 -17.1547,-5.749 -1.1296,0 -4.0274,5.2489 -6.4396,11.6643 -8.8293,23.4821 -12.0136,30.6873 -20.8052,47.0776 -41.7675,77.8671 -115.4167,126.0318 -215.6173,141.0079 -9.0227,1.3485 -28.7291,2.1545 -52.2885,2.1384 -35.3012,-0.024 -39.1682,-0.3223 -58.3094,-4.4979 -40.4515,-8.8246 -91.997,-29.1901 -120.0509,-47.432 -51.7422,-33.6449 -91.6685,-81.7129 -107.8325,-129.8211 -2.6709,-7.9495 -5.4583,-14.6543 -6.1942,-14.8996 -0.7359,-0.2453 -6.0203,1.4279 -11.7432,3.7183 -5.7228,2.2903 -19.8171,7.6767 -31.3206,11.9696 -11.5034,4.293 -31.4133,11.772 -44.2441,16.6202 -12.8308,4.8481 -31.2926,11.8169 -41.0263,15.4861 -9.7337,3.6693 -26.0236,9.8601 -36.1998,13.7573 -10.1761,3.8972 -31.1719,11.8732 -46.65738,17.7244 -54.01383,20.4093 -70.0449,26.8765 -78.58216,31.7013 l -8.59604,4.858 1.04608,13.0697 c 2.06813,25.8392 2.49606,33.0825 4.85932,82.2514 1.31846,27.4313 2.80311,57.1151 3.29923,65.9639 0.49609,8.8488 1.18318,21.1567 1.52684,27.3509 0.34365,6.1942 1.43104,49.6338 2.41643,96.5326 2.75628,131.1829 -0.65903,234.8424 -11.18473,339.4729 -2.49688,24.8202 -3.6295,53.8818 -4.95355,127.1013 -0.94409,52.2081 -2.74243,127.1415 -3.99629,166.5187 -1.25388,39.3773 -3.36622,117.2067 -4.69411,172.9543 -1.32789,55.7475 -2.81061,114.0291 -3.29496,129.5145 -0.48434,15.4855 -2.68351,104.472 -4.88705,197.748 -2.20355,93.2759 -5.05296,201.8751 -6.33207,241.3315 -3.88856,119.9509 -4.85079,188.3824 -2.6489,188.3824 1.0518,0 13.65014,1.4428 27.9963,3.2063 14.34615,1.7635 43.45978,5.0006 64.69695,7.1935 21.23717,2.1929 44.76699,4.7048 52.28849,5.5821 7.5215,0.8773 28.8793,2.7206 47.4619,4.0961 18.5825,1.3756 37.0443,2.8477 41.0263,3.2716 7.1836,0.7649 101.9914,6.3972 135.9501,8.0767 9.7337,0.4814 20.2316,1.1855 23.3287,1.5645 16.2384,1.9878 139.9386,4.964 221.2205,5.3227 30.086,0.1335 84.7476,-0.4546 121.4702,-1.3052 z"
           id="path2951"
           inkscape:connector-curvature="0" />
        <path
           style="fill:#ffffff;stroke:#000000;stroke-width:1.60887659;stroke-opacity:1"
           d="m 637.3217,4469.8781 c 49.1905,-36.4601 77.9812,-57.7746 102.5134,-75.8937 10.1761,-7.5159 33.344,-24.6898 51.484,-38.1642 35.3607,-26.2658 58.1064,-43.0833 103.5118,-76.5334 15.7845,-11.6284 29.0526,-22.0637 29.4846,-23.1897 0.4321,-1.1259 -4.3709,-9.7327 -10.6733,-19.1262 l -11.4588,-17.0791 -4.3504,3.1633 c -2.3925,1.7398 -43.8079,32.902 -92.034,69.2493 -48.2261,36.3473 -120.4445,90.7553 -160.4854,120.9066 -40.0409,30.1514 -72.8017,55.3777 -72.8017,56.0585 0,2.5231 21.0235,30.6804 22.9074,30.6804 0.7318,0 19.5879,-13.5323 41.9024,-30.0718 z"
           id="path2949"
           inkscape:connector-curvature="0" />
        <path
           style="fill:#ffffff;stroke:#000000;stroke-width:1.60887659;stroke-opacity:1"
           d="m -746.84174,4452.654 c 6.59541,-9.1353 12.15643,-17.2538 12.35781,-18.0411 0.2014,-0.7873 -13.52079,-11.5445 -30.49373,-23.905 -16.97294,-12.3605 -44.61579,-32.682 -61.42855,-45.1588 -16.81276,-12.4769 -47.58253,-35.2562 -68.37726,-50.6206 -20.79473,-15.3645 -46.13453,-34.0879 -56.31068,-41.6075 -10.17614,-7.5197 -25.01803,-18.4849 -32.98197,-24.3671 -7.96394,-5.8823 -28.59778,-21.1689 -45.85298,-33.9702 -17.2552,-12.8014 -32.1821,-23.7698 -33.1709,-24.3742 -1.6734,-1.023 -29.6991,34.182 -29.4847,37.0376 0.05,0.6639 17.1345,13.515 37.9658,28.558 20.8313,15.043 48.8453,35.3477 62.25329,45.1215 133.27166,97.1487 194.74523,141.9676 211.00794,153.841 10.61859,7.7526 20.03052,14.0957 20.9154,14.0959 0.88488,1e-4 7.00513,-7.4741 13.60053,-16.6095 z"
           id="path2947"
           inkscape:connector-curvature="0" />
        <path
           style="fill:#ffffff;stroke:#000000;stroke-width:1.60887659;stroke-opacity:1"
           d="m 608.5746,4433.4005 c 20.4276,-15.3649 68.273,-51.4109 106.3229,-80.1021 38.0499,-28.6912 94.5215,-71.2536 125.4924,-94.5833 30.9708,-23.3295 56.3107,-42.8502 56.3107,-43.3791 0,-0.5289 -57.9899,-87.841 -128.8666,-194.0269 -70.8764,-106.1858 -135.402,-203.6696 -143.3901,-216.6305 -28.8683,-46.8398 -56.2909,-79.7908 -90.0221,-108.1701 -3.0974,-2.6059 -5.5137,-3.6417 -6.1382,-2.6313 -1.7893,2.8951 -3.7405,26.0687 -11.2459,133.5623 -2.3985,34.3525 -4.9912,94.7534 -6.4915,151.2344 -0.4819,18.1401 -1.3096,39.8599 -1.8394,48.2663 -1.185,18.8014 -0.9269,162.7752 0.4736,264.3905 0.8817,63.9647 1.4601,76.9682 3.8285,86.0749 2.4561,9.4439 5.9417,15.0935 29.1353,47.2216 14.49,20.0719 27.0077,36.5428 27.8173,36.602 0.8095,0.059 18.1853,-12.4637 38.6131,-27.8287 z"
           id="path2945"
           inkscape:connector-curvature="0" />
        <path
           style="fill:#ffffff;stroke:#000000;stroke-width:1.60887659;stroke-opacity:1"
           d="m -702.08322,4386.9263 28.88392,-40.6241 2.60693,-13.6755 c 2.28673,-11.9956 5.30279,-41.3546 8.26406,-80.4438 7.3748,-97.3487 6.60991,-325.9438 -1.52621,-456.1165 -0.44246,-7.0791 -1.61572,-27.7129 -2.60724,-45.853 -0.99153,-18.1401 -2.00737,-34.7919 -2.25743,-37.0042 -0.25006,-2.2122 -0.53722,-5.6511 -0.63811,-7.6421 -0.10088,-1.991 -1.03361,-3.62 -2.0727,-3.62 -4.18593,0 -33.93125,24.645 -55.34241,45.853 -25.44192,25.2005 -36.52882,38.2458 -64.26574,75.6172 -10.50809,14.1581 -33.94034,45.6519 -52.07166,69.9861 -18.13131,24.3343 -43.46148,58.362 -56.28928,75.6172 -29.23012,39.3187 -61.71435,82.9332 -116.57121,156.5127 -23.6052,31.6618 -42.9186,58.2104 -42.9186,58.997 0,0.7866 6.697,6.4043 14.8821,12.4838 48.68206,36.1582 89.02424,66.0262 154.04996,114.0533 96.40725,71.2051 135.46516,100.1169 147.21221,108.971 5.3093,4.0018 10.13121,7.3291 10.71538,7.394 0.58416,0.065 14.05989,-18.1628 29.94603,-40.5061 z"
           id="path2943"
           inkscape:connector-curvature="0" />
        <path
           style="fill:#ffffff;stroke:#000000;stroke-width:1.60887659;stroke-opacity:1"
           d="m -44.354,3768.7936 c 19.4438,-1.0774 60.1547,-9.2794 81.1101,-16.3413 19.1169,-6.4423 50.7516,-21.5044 65.1595,-31.0241 28.623,-18.9119 54.3201,-44.7548 72.9645,-73.3785 16.2586,-24.9608 37.8251,-73.1846 34.8688,-77.9681 -0.5516,-0.8925 -6.2159,-4.6122 -12.5873,-8.266 -6.3714,-3.6538 -14.3804,-8.4346 -17.7976,-10.6239 -3.4173,-2.1893 -6.7366,-3.3737 -7.3763,-2.632 -0.6396,0.7417 -2.4757,4.9685 -4.08,9.393 -19.1222,52.7343 -64.1066,102.3669 -116.6717,128.7272 -20.6758,10.3684 -31.3725,14.2248 -57.4629,20.7163 -27.7583,6.9065 -43.9627,9.0341 -68.6875,9.0187 -27.4561,-0.017 -50.0459,-4.029 -83.0036,-14.741 -67.2127,-21.8457 -120.1244,-74.6305 -144.8732,-144.5257 -2.0366,-5.7517 -3.836,-10.6563 -3.9986,-10.8991 -0.1627,-0.2428 -4.9238,2.3187 -10.5802,5.6922 -5.6565,3.3735 -17.0114,10.0881 -25.2333,14.9213 -17.5975,10.3448 -17.266,8.395 -5.9758,35.1428 21.5642,51.0885 63.2624,95.4582 117.88,125.4325 28.9056,15.8634 57.6399,26.0131 108.1764,38.2107 12.547,3.0284 39.4064,5.1931 54.7018,4.4088 4.8669,-0.2496 15.427,-0.8183 23.4669,-1.2638 z"
           id="path2941"
           inkscape:connector-curvature="0" />
        <path
           style="fill:#ffffff;stroke:#000000;stroke-width:1.60887659;stroke-opacity:1"
           d="m -42.1821,3705.9829 c 58.4741,-7.7123 107.4326,-29.9905 144.6846,-65.8375 13.6024,-13.0895 31.5944,-34.4589 30.1927,-35.8606 -0.5215,-0.5216 -5.8504,0.5496 -11.8418,2.3804 -18.1936,5.5595 -68.8442,16.1059 -93.7506,19.5207 -46.4679,6.371 -121.9461,7.6089 -168.1276,2.7572 -36.2746,-3.8108 -98.0224,-16.6913 -119.9399,-25.0193 -4.7609,-1.809 -9.2008,-2.7444 -9.8665,-2.0788 -2.0088,2.0089 18.1748,27.6436 32.6123,41.4201 16.4587,15.7053 29.5946,25.1879 49.7323,35.9014 25.8363,13.7452 59.2306,24.0748 90.9015,28.1178 11.936,1.5238 38.7604,0.8937 55.403,-1.3014 z"
           id="path2939"
           inkscape:connector-curvature="0" />
        <path
           style="fill:#ffffff;stroke:#000000;stroke-width:1.60887659;stroke-opacity:1"
           d="m -32.4256,3623.1057 c 54.1648,-3.6765 91.5831,-9.1839 130.319,-19.1809 45.8017,-11.8206 43.1228,-10.5663 50.157,-23.4833 6.4993,-11.9348 15.0061,-32.6748 13.8686,-33.8123 -0.3748,-0.3747 -7.8749,0.7835 -16.6669,2.5739 -95.6707,19.482 -219.4383,22.5512 -352.3454,8.7376 -22.1454,-2.3017 -79.8204,-10.9902 -86.3725,-13.0117 -1.9684,-0.6072 -2.8138,0.011 -2.8097,2.0553 0.01,3.5205 7.67,24.0587 12.9704,34.7631 l 3.8157,7.7061 17.7483,5.4437 c 44.3008,13.5879 66.3563,18.4909 105.432,23.4377 47.3703,5.9968 84.663,7.433 123.8835,4.7708 z"
           id="path2888"
           inkscape:connector-curvature="0" />
      </g>
    </g>
    <rect
       id="rect13741"
       style="fill:none;fill-opacity:0.99215686;stroke:#808080;stroke-width:65.30039215;stroke-linejoin:round;stroke-miterlimit:4;stroke-dasharray:none;stroke-opacity:1"
       height="1292.5493"
       width="1863.5724"
       sodipodi:stroke-cmyk="(0.0000000 0.0000000 0.0000000 0.50000000)"
       y="-6105.6265"
       x="-3175.0894"
       ry="0" />
    <g
       id="g13755"
       transform="matrix(19.156499,0,0,19.34866,28076.204,-86746.965)"
       style="stroke:#808080">
      <path
         sodipodi:stroke-cmyk="(0.0000000 0.0000000 0.0000000 0.50000000)"
         d="M -1618.2383,4169.3963 V 4233.74"
         style="fill:#666666;stroke:#808080;stroke-width:1.71385872;stroke-opacity:1"
         id="path13743"
         inkscape:connector-curvature="0" />
      <path
         sodipodi:stroke-cmyk="(0.0000000 0.0000000 0.0000000 0.50000000)"
         d="M -1604.4432,4169.3963 V 4233.74"
         style="fill:#666666;stroke:#808080;stroke-width:1.71385872;stroke-opacity:1"
         id="path13745"
         inkscape:connector-curvature="0" />
      <path
         sodipodi:stroke-cmyk="(0.0000000 0.0000000 0.0000000 0.50000000)"
         d="M -1590.6481,4169.3963 V 4233.74"
         style="fill:#666666;fill-opacity:1;stroke:#808080;stroke-width:1.71385872;stroke-opacity:1"
         id="path13747"
         inkscape:connector-curvature="0" />
      <path
         inkscape:connector-curvature="0"
         id="path13749"
         style="fill:#666666;fill-opacity:1;stroke:#808080;stroke-width:1.71385872;stroke-opacity:1"
         d="m -1576.853,4169.0227 v 64.3437"
         sodipodi:stroke-cmyk="(0.0000000 0.0000000 0.0000000 0.50000000)" />
      <path
         sodipodi:stroke-cmyk="(0.0000000 0.0000000 0.0000000 0.50000000)"
         d="m -1563.0579,4167.7149 v 66.0322"
         style="fill:#666666;fill-opacity:1;stroke:#808080;stroke-width:1.73619962;stroke-opacity:1"
         id="path13751"
         inkscape:connector-curvature="0" />
      <path
         inkscape:connector-curvature="0"
         id="path13753"
         style="fill:#666666;fill-opacity:1;stroke:#808080;stroke-width:1.7196182;stroke-opacity:1"
         d="m -1549.2627,4168.2792 v 64.7769"
         sodipodi:stroke-cmyk="(0.0000000 0.0000000 0.0000000 0.50000000)" />
    </g>
    <g
       id="g13765"
       transform="matrix(19.156499,0,0,19.156499,28076.204,-85933.404)"
       style="stroke:#808080">
      <path
         sodipodi:stroke-cmyk="(0.0000000 0.0000000 0.0000000 0.50000000)"
         d="m -1630.9545,4181.5481 h 95.6923"
         style="fill:#666666;stroke:#808080;stroke-width:2.03383207;stroke-opacity:1"
         id="path13757"
         inkscape:connector-curvature="0" />
      <path
         sodipodi:stroke-cmyk="(0.0000000 0.0000000 0.0000000 0.50000000)"
         d="m -1631.9175,4207.7517 h 96.7797"
         style="fill:#666666;stroke:#808080;stroke-width:2.01438737;stroke-opacity:1"
         id="path13759"
         inkscape:connector-curvature="0" />
      <path
         sodipodi:stroke-cmyk="(0.0000000 0.0000000 0.0000000 0.50000000)"
         d="m -1630.9545,4194.6499 h 96.7394"
         style="fill:#666666;stroke:#808080;stroke-width:2.04492903;stroke-opacity:1"
         id="path13761"
         inkscape:connector-curvature="0" />
      <path
         inkscape:connector-curvature="0"
         id="path13763"
         style="fill:#666666;stroke:#808080;stroke-width:2.01438737;stroke-opacity:1"
         d="m -1631.9175,4220.8535 h 96.7797"
         sodipodi:stroke-cmyk="(0.0000000 0.0000000 0.0000000 0.50000000)" />
    </g>
    <path
       id="rect9292-2"
       d="m -3164.8659,-6454.6683 c -23.761,0 -42.8584,19.0974 -42.8584,42.8584 v 296.1459 c 0,23.761 19.0974,42.8982 42.8584,42.8982 h 1843.1139 c 23.7611,0 42.8982,-19.1372 42.8982,-42.8982 v -296.1459 c 0,-23.761 -19.1371,-42.8584 -42.8982,-42.8584 z m 196.4082,68.709 c 25.8758,-0.4466 51.8251,6.0345 72.5328,18.5614 l 9.4799,5.7358 v 29.4353 29.4751 l -12.786,-11.8697 c -23.4877,-21.7465 -42.5437,-29.2536 -70.1826,-27.6829 -17.9688,1.0176 -28.3924,4.9707 -39.5126,15.0164 -14.3541,12.9671 -21.6683,34.5152 -21.6683,63.8496 0,48.2878 19.9811,75.0547 58.6715,78.5873 25.7847,2.3524 49.8546,-6.754 72.4133,-27.3244 l 13.0647,-11.9095 v 28.798 28.7981 l -8.5639,5.4967 c -10.5686,6.7641 -22.5759,11.9478 -36.0871,15.6139 -10.4789,2.8433 -43.6016,4.9121 -53.4933,3.3458 h -0.082 c -47.7,-7.7108 -79.8198,-36.7776 -92.2493,-83.5264 -4.4232,-16.6354 -4.3198,-59.2565 0.2039,-76.6353 11.1796,-43.1693 41.1152,-72.5079 82.6101,-80.977 8.4097,-1.7171 17.026,-2.6393 25.6513,-2.7882 z m 1367.329,3.2662 50.9441,0.7158 c 46.2725,0.6322 51.9784,1.0442 62.6944,4.5807 21.9938,7.2833 34.8493,19.1453 42.4602,39.1541 2.5804,6.7854 3.4255,13.7241 3.4255,28.0015 0,17.7791 -0.363,19.6833 -5.895,30.9091 -3.2413,6.5878 -8.8504,14.5866 -12.4672,17.7647 -4.5823,4.021 -6.0524,6.4732 -4.8992,8.0459 11.8271,16.1106 19.7729,29.9697 37.4813,65.3632 11.5207,23.0242 20.9512,42.275 20.9512,42.7789 0,0.4976 -11.809,0.9157 -26.2089,0.9157 h -26.1693 l -18.0037,-36.5652 c -26.0184,-52.8278 -28.7028,-55.4535 -57.3571,-55.9629 l -17.3664,-0.2794 -0.4772,46.4034 -0.4772,46.4035 h -24.297 -24.3369 v -119.1355 z m -1182.1533,0.204 23.4209,0.4772 23.4606,0.518 44.0135,115.3514 c 24.1928,63.4501 44.4347,116.8153 45.0094,118.5777 0.9768,2.9867 -0.6934,3.1741 -24.536,2.7087 l -25.6115,-0.518 -4.8594,-13.5028 c -2.682,-7.4367 -7.1274,-19.8 -9.8783,-27.4837 l -5.0187,-13.9808 h -42.6594 -42.6593 l -9.8781,27.9217 -9.8783,27.9617 h -25.691 c -14.1279,0 -25.6913,-0.2712 -25.6913,-0.5975 0,-0.3263 18.7317,-49.6432 41.6238,-109.536 22.8939,-59.8928 43.2334,-113.1451 45.2084,-118.3787 z m 1073.2544,0 43.0179,113.1607 c 23.6792,62.2375 44.154,115.7938 45.4873,119.016 l 2.4297,5.8552 h -25.8505 -25.8108 l -9.7985,-27.9217 -9.7984,-27.9617 h -42.6593 -42.6594 l -2.8678,7.6476 c -1.5703,4.2125 -6.0259,16.6177 -9.8782,27.5234 l -6.9704,19.7963 -25.6515,0.518 -25.6513,0.4772 1.1155,-4.1025 c 0.6139,-2.2586 20.7856,-55.5821 44.8501,-118.538 l 43.7745,-114.4751 23.4606,-0.518 z m -918.5496,0.082 h 24.337 24.3369 v 96.4315 96.4714 h 53.1748 53.1747 v 22.5048 22.5446 h -77.5117 -77.5117 v -118.9763 z m 174.8595,0 h 78.388 78.4277 v 21.6285 21.6283 h -54.091 -54.051 v 23.4606 23.4208 h 52.2586 52.2587 v 21.6285 21.6282 h -52.2587 -52.2586 v 29.7541 29.7539 h 55.9231 55.9232 l -0.4772,22.0666 -0.518,22.0667 -79.7423,0.4772 -79.7819,0.4384 v -118.9362 z m 189.2384,0 27.5234,0.041 h 27.4837 l 38.7558,73.1701 c 21.3154,40.2574 39.7396,74.5312 40.9465,76.1576 1.7437,2.3407 2.1846,-12.9188 2.2307,-73.2101 v -76.1573 h 23.4606 23.4207 v 119.0159 119.0158 l -27.404,-0.4772 -27.4437,-0.518 -39.7117,-75.2015 c -21.8481,-41.3615 -40.3229,-75.2109 -41.0662,-75.2415 -0.7464,0 -1.3949,34.0011 -1.3949,75.6398 v 75.7193 h -23.4207 -23.4208 l 0.041,-118.9762 z m 223.5333,0 h 41.9423 c 45.1309,0 64.9704,1.7172 85.7171,7.3289 35.1347,9.5036 57.3067,30.194 68.1512,63.6106 6.3141,19.4555 8.0039,57.1282 3.6247,80.4991 -8.2008,43.7727 -36.4892,71.5449 -82.7695,81.2957 -13.0532,2.7489 -27.3536,3.7714 -66.6376,4.6602 l -50.0282,1.1155 v -119.255 z m 488.4911,42.8982 v 29.0371 29.037 h 20.7919 c 17.0665,0 22.0694,-0.6627 27.7225,-3.545 8.6339,-4.406 12.7858,-12.777 12.7858,-25.7708 0,-7.2507 -1.0931,-11.4135 -4.1423,-15.9325 -6.3198,-9.3886 -12.0967,-11.367 -35.9677,-12.1485 z m -439.8173,0.359 v 74.5244 c 0,40.9777 0.6078,75.1403 1.3542,75.9185 2.0879,2.1876 45.7235,-0.5914 57.5163,-3.6645 19.7694,-5.1494 32.9841,-16.8816 39.3134,-34.8525 4.2778,-12.1471 6.1193,-34.0835 4.3416,-51.6214 -4.4346,-43.7514 -27.3964,-60.2226 -84.0439,-60.2646 z m -767.8279,25.253 c -0.8239,0 -23.4264,59.8251 -24.9743,66.12 -0.4609,1.8782 4.7258,2.3899 24.775,2.3899 13.9517,0 25.3668,-0.6077 25.3725,-1.3541 0.015,-2.5152 -24.2153,-67.1593 -25.1732,-67.1556 z m 1026.6118,0.2386 c -0.3609,0.082 -0.5914,0.8402 -1.036,1.6335 -0.8626,1.5336 -6.0006,14.9288 -11.4316,29.7539 -5.4288,14.8233 -10.7383,29.179 -11.79,31.905 l -1.9109,4.9789 h 26.2887 c 20.2828,0 26.0693,-0.5343 25.4124,-2.2704 h 0.041 c -0.4588,-1.2461 -5.4024,-14.4048 -10.9138,-29.2761 -11.4722,-30.9487 -13.575,-36.9801 -14.6579,-36.7244 z"
       style="opacity:1;fill:#808080;fill-opacity:1;fill-rule:evenodd;stroke:none;stroke-width:153.56573486;stroke-linecap:square;stroke-linejoin:miter;stroke-miterlimit:4;stroke-dasharray:none;stroke-opacity:1;paint-order:markers stroke fill"
       inkscape:connector-curvature="0" />
    <g
       transform="translate(-4.9930476e-5,4.4091138e-5)"
       id="g44575"
       style="display:inline;fill:#808080">
      <path
         transform="matrix(1.06458,0,0,1.06458,-4924.7534,-7390.433)"
         inkscape:connector-curvature="0"
         id="path44522"
         d="m 1700.0879,1415.1498 c -7.4388,-7.4389 -1.2417,-24.5855 18.3659,-50.8159 29.1435,-38.9872 28.3054,-36.9163 21.5364,-53.2142 -11.7652,-28.3274 -12.5728,-37.6609 -3.4649,-40.0427 6.3776,-1.6677 10.1989,1.8846 16.0968,14.9636 4.2536,9.4328 8.6726,17.1506 9.82,17.1506 1.1474,0 9.8512,-8.8215 19.3417,-19.6033 10.47,-11.8945 20.6819,-19.3451 25.9688,-18.9469 4.7923,0.361 8.7133,2.048 8.7133,3.7489 0,1.7008 -10.102,15.1823 -22.4489,29.9587 l -22.4489,26.8663 13.4453,24.824 c 12.049,22.2462 12.7454,25.5238 6.7059,31.5633 -6.0395,6.0395 -7.3461,5.8749 -12.582,-1.5854 -12.7338,-18.1429 -23.8854,-30.3118 -25.8537,-28.212 -1.1392,1.2153 -11.3504,16.628 -22.6916,34.2505 -20.0337,31.1293 -24.3513,35.2473 -30.5041,29.0945 z"
         style="opacity:1;fill:#808080;fill-opacity:1;fill-rule:evenodd;stroke:none;stroke-width:88.38835144;stroke-linecap:square;stroke-linejoin:round;stroke-miterlimit:4;stroke-dasharray:none;stroke-opacity:1;paint-order:markers stroke fill" />
      <path
         transform="matrix(1.06458,0,0,1.06458,-4924.7534,-7390.433)"
         inkscape:connector-curvature="0"
         id="path44524"
         d="m 1944.7647,1411.6303 c -7.427,-8.9488 -3.0659,-19.2851 22.653,-53.6911 l 22.4513,-30.0346 -7.152,-22.6888 c -8.8231,-27.9901 -8.8663,-31.357 -0.4438,-34.5891 4.7673,-1.8293 8.7423,2.5094 13.7381,14.9952 3.8664,9.6631 8.5631,17.5693 10.4371,17.5693 1.8739,0 10.6373,-8.8235 19.4742,-19.6077 10.0725,-12.2922 19.3398,-19.3612 24.8391,-18.9469 12.5228,0.9433 11.2046,4.7572 -11.1152,32.1599 -10.9381,13.429 -19.8874,26.3938 -19.8874,28.8107 0,2.4169 4.9508,14.1642 11.0017,26.1051 10.2646,20.2563 11.0111,35.4478 1.7418,35.4478 -2.1938,0 -9.4388,-7.8794 -16.1,-17.5099 -6.6613,-9.6305 -13.6431,-17.5854 -15.5151,-17.6777 -1.8721,-0.092 -12.347,13.6571 -23.2776,30.5541 -22.8504,35.3232 -25.6355,37.791 -32.8452,29.1037 z"
         style="opacity:1;fill:#808080;fill-opacity:1;fill-rule:evenodd;stroke:none;stroke-width:88.38835144;stroke-linecap:square;stroke-linejoin:round;stroke-miterlimit:4;stroke-dasharray:none;stroke-opacity:1;paint-order:markers stroke fill" />
      <path
         transform="matrix(1.06458,0,0,1.06458,-4924.7534,-7390.433)"
         inkscape:connector-curvature="0"
         id="path44526"
         d="m 2190.6433,1415.1498 c -8.2659,-8.2659 -1.0106,-28.1185 20.6847,-56.5995 l 23.4766,-30.8195 -8.8446,-25.9031 c -7.5216,-22.0283 -7.9048,-26.498 -2.5616,-29.8798 9.449,-5.9805 10.0907,-5.4775 18.4821,14.4859 l 7.7796,18.5081 19.7314,-19.3648 c 10.8522,-10.6507 23.7585,-19.6616 28.6805,-20.0242 9.0794,-0.6689 12.069,4.2526 5.1725,8.5149 -2.0773,1.2838 -12.287,13.365 -22.6884,26.8471 l -18.9115,24.5129 11.7442,22.6365 c 11.013,21.227 12.1379,39.0958 2.4614,39.0958 -2.2324,0 -9.3232,-7.9549 -15.7574,-17.6776 -6.4342,-9.7228 -13.2708,-17.6777 -15.1925,-17.6777 -1.9216,0 -12.9425,14.9155 -24.4908,33.1456 -20.7158,32.7018 -23.9662,35.9995 -29.7662,30.1994 z"
         style="opacity:1;fill:#808080;fill-opacity:1;fill-rule:evenodd;stroke:none;stroke-width:88.38835144;stroke-linecap:square;stroke-linejoin:round;stroke-miterlimit:4;stroke-dasharray:none;stroke-opacity:1;paint-order:markers stroke fill" />
      <path
         transform="matrix(1.06458,0,0,1.06458,-4924.7534,-7390.433)"
         inkscape:connector-curvature="0"
         id="path44528"
         d="m 2433.7112,1415.1498 c -7.5165,-7.5166 -1.0057,-24.3345 21.505,-55.5489 24.0188,-33.3056 24.3442,-34.1628 18.4011,-48.472 -11.8683,-28.5757 -12.599,-37.6642 -3.225,-40.1156 6.7146,-1.7559 9.6908,1.0343 13.5383,12.6923 2.7124,8.2187 6.868,16.1398 9.2346,17.6025 2.3667,1.4627 12.2218,-6.3367 21.9002,-17.332 10.7218,-12.1806 21.0015,-19.735 26.3105,-19.3351 4.7923,0.361 8.7133,1.7331 8.7133,3.0491 0,1.316 -10.1247,14.7556 -22.4993,29.8657 l -22.4993,27.473 13.4957,24.917 c 12.0942,22.3296 12.7958,25.6169 6.7563,31.6564 -6.0395,6.0395 -7.3461,5.8749 -12.5821,-1.5854 -12.7337,-18.1429 -23.8853,-30.3118 -25.8536,-28.212 -1.1392,1.2153 -11.3505,16.628 -22.6916,34.2505 -20.0337,31.1293 -24.3513,35.2473 -30.5041,29.0945 z"
         style="opacity:1;fill:#808080;fill-opacity:1;fill-rule:evenodd;stroke:none;stroke-width:88.38835144;stroke-linecap:square;stroke-linejoin:round;stroke-miterlimit:4;stroke-dasharray:none;stroke-opacity:1;paint-order:markers stroke fill" />
      <path
         transform="matrix(1.06458,0,0,1.06458,-4924.7534,-7390.433)"
         inkscape:connector-curvature="0"
         id="path44530"
         d="m 2678.4283,1411.679 c -7.4759,-9.0079 -3.1376,-19.2919 22.7444,-53.9159 l 22.5829,-30.2108 -7.2837,-20.5077 c -9.0296,-25.4234 -9.1513,-33.127 -0.5754,-36.4179 4.7673,-1.8293 8.7423,2.5094 13.7381,14.9952 3.8664,9.6631 8.5631,17.5693 10.437,17.5693 1.874,0 10.6374,-8.8235 19.4743,-19.6077 10.0725,-12.2922 19.3398,-19.3612 24.8391,-18.9469 12.5228,0.9433 11.2046,4.7572 -11.1152,32.1599 -10.9381,13.429 -19.8874,26.3938 -19.8874,28.8107 0,2.4169 4.9508,14.1642 11.0017,26.1051 10.2646,20.2563 11.011,35.4478 1.7417,35.4478 -2.1937,0 -9.4387,-7.8794 -16.1,-17.5099 -6.6612,-9.6305 -13.5423,-17.5854 -15.2912,-17.6777 -1.749,-0.092 -13.2448,14.7478 -25.5464,32.9779 -12.3015,18.2301 -23.0567,33.1457 -23.9003,33.1457 -0.8436,0 -3.9305,-2.8877 -6.8596,-6.4171 z"
         style="opacity:1;fill:#808080;fill-opacity:1;fill-rule:evenodd;stroke:none;stroke-width:88.38835144;stroke-linecap:square;stroke-linejoin:round;stroke-miterlimit:4;stroke-dasharray:none;stroke-opacity:1;paint-order:markers stroke fill" />
      <path
         transform="matrix(1.06458,0,0,1.06458,-4924.7534,-7390.433)"
         inkscape:connector-curvature="0"
         id="path44532"
         d="m 2924.2666,1415.1498 c -8.2033,-8.2032 -0.9667,-28.1878 20.6023,-56.896 l 23.3781,-31.1161 -9.1002,-25.3812 c -7.9717,-22.2333 -8.2782,-25.9022 -2.4712,-29.5832 9.8366,-6.2353 10.3889,-5.817 18.8282,14.2605 l 7.7796,18.5081 19.7314,-19.3648 c 10.8522,-10.6507 23.7585,-19.6616 28.6805,-20.0242 9.0794,-0.6689 12.069,4.2526 5.1725,8.5149 -2.0773,1.2838 -12.287,13.365 -22.6884,26.8471 l -18.9115,24.5129 11.7442,22.6365 c 11.0129,21.227 12.1379,39.0958 2.4614,39.0958 -2.2324,0 -9.3232,-7.9549 -15.7574,-17.6776 -6.4342,-9.7228 -13.2708,-17.6777 -15.1925,-17.6777 -1.9216,0 -12.9425,14.9155 -24.4908,33.1456 -20.7158,32.7018 -23.9662,35.9995 -29.7662,30.1994 z"
         style="opacity:1;fill:#808080;fill-opacity:1;fill-rule:evenodd;stroke:none;stroke-width:88.38835144;stroke-linecap:square;stroke-linejoin:round;stroke-miterlimit:4;stroke-dasharray:none;stroke-opacity:1;paint-order:markers stroke fill" />
      <path
         transform="matrix(1.06458,0,0,1.06458,-4924.7534,-7390.433)"
         inkscape:connector-curvature="0"
         id="path44534"
         d="m 3167.3345,1415.1498 c -7.658,-7.658 -0.9041,-25.2591 21.4251,-55.8347 l 24.3713,-33.3721 -8.9034,-22.588 c -10.9818,-27.8611 -10.9948,-29.5219 -0.2543,-32.3306 6.7654,-1.7692 9.723,0.9925 13.5807,12.6812 2.7124,8.2187 6.868,16.1398 9.2346,17.6025 2.3667,1.4627 12.2218,-6.3367 21.9002,-17.332 10.7218,-12.1806 21.0015,-19.735 26.3105,-19.3351 4.7923,0.361 8.7133,1.7331 8.7133,3.0491 0,1.316 -10.1247,14.7556 -22.4993,29.8657 l -22.4993,27.473 12.9209,23.8559 c 10.4958,19.3784 11.9314,25.2091 7.649,31.0657 -7.2926,9.9732 -8.2242,9.5186 -21.4506,-10.4679 -6.4342,-9.7228 -13.1619,-17.6738 -14.9504,-17.6691 -1.7885,0 -12.7506,14.9203 -24.3602,33.1456 -20.4317,32.0748 -24.94,36.4389 -31.1881,30.1908 z"
         style="opacity:1;fill:#808080;fill-opacity:1;fill-rule:evenodd;stroke:none;stroke-width:88.38835144;stroke-linecap:square;stroke-linejoin:round;stroke-miterlimit:4;stroke-dasharray:none;stroke-opacity:1;paint-order:markers stroke fill" />
      <path
         transform="matrix(1.06458,0,0,1.06458,-4924.7534,-7390.433)"
         inkscape:connector-curvature="0"
         id="path44536"
         d="m 3167.3345,1653.7983 c -8.5903,-8.5903 1.041,-27.9777 40.0692,-80.6583 4.4188,-5.9646 3.7915,-11.723 -3.3146,-30.4246 -10.8321,-28.5077 -10.8381,-30.2385 -0.1159,-33.0425 6.7654,-1.7692 9.723,0.9926 13.5807,12.6813 2.7124,8.2187 6.9984,16.2203 9.5244,17.7815 2.526,1.5612 11.9585,-5.7137 20.961,-16.1664 13.9963,-16.2509 35.6732,-26.8669 35.6732,-17.4706 0,1.6261 -9.9204,15.3177 -22.0454,30.4257 l -22.0455,27.4691 12.7688,25.2949 c 10.9099,21.6124 11.927,26.446 6.9863,33.2028 -5.3069,7.2576 -6.9293,6.2412 -19.7244,-12.3558 -7.6681,-11.1452 -16.0004,-18.9918 -18.5162,-17.4369 -2.5158,1.5548 -13.4265,16.5113 -24.246,33.2365 -19.1367,29.5824 -23.4389,33.58 -29.5556,27.4633 z"
         style="opacity:1;fill:#808080;fill-opacity:1;fill-rule:evenodd;stroke:none;stroke-width:88.38835144;stroke-linecap:square;stroke-linejoin:round;stroke-miterlimit:4;stroke-dasharray:none;stroke-opacity:1;paint-order:markers stroke fill" />
      <path
         transform="matrix(1.06458,0,0,1.06458,-4924.7534,-7390.433)"
         inkscape:connector-curvature="0"
         id="path44538"
         d="m 2924.2666,1653.7983 c -7.6009,-7.6008 -0.9916,-25.3657 20.6688,-55.5559 l 23.6152,-32.9146 -7.9003,-19.478 c -10.4081,-25.661 -10.4324,-34.946 -0.091,-34.946 5.0716,0 10.4551,5.1965 13.8337,13.3531 3.042,7.3442 7.1658,14.3634 9.1638,15.5983 1.9981,1.2348 11.5433,-6.3366 21.2116,-16.8255 9.8434,-10.6789 21.6046,-19.0707 26.7276,-19.0707 5.0319,0 9.1489,0.7834 9.1489,1.7409 0,0.9575 -10.3199,14.7102 -22.9332,30.5615 l -22.9332,28.8206 12.0338,22.9842 c 11.1489,21.2941 12.2326,37.7425 2.4866,37.7425 -2.1361,0 -9.1482,-7.955 -15.5824,-17.6777 -6.4342,-9.7227 -13.0644,-17.6777 -14.7337,-17.6777 -1.6694,0 -12.6364,14.9156 -24.3712,33.1457 -20.983,32.5971 -24.4733,36.0707 -30.3446,30.1993 z"
         style="opacity:1;fill:#808080;fill-opacity:1;fill-rule:evenodd;stroke:none;stroke-width:88.38835144;stroke-linecap:square;stroke-linejoin:round;stroke-miterlimit:4;stroke-dasharray:none;stroke-opacity:1;paint-order:markers stroke fill" />
      <path
         transform="matrix(1.06458,0,0,1.06458,-4924.7534,-7390.433)"
         inkscape:connector-curvature="0"
         id="path44540"
         d="m 2676.5154,1649.754 c -4.359,-11.3594 -3.7639,-12.6704 22.1468,-48.7845 l 24.8294,-34.607 -9.1641,-25.4697 c -9.0605,-25.1815 -9.0666,-25.5219 -0.5444,-30.0829 7.55,-4.0406 9.5049,-2.4012 15.7506,13.2083 3.9219,9.8019 8.6503,17.8215 10.5075,17.8215 1.8571,0 11.4781,-8.789 21.3799,-19.5311 15.8143,-17.1566 21.5804,-19.8032 35.2117,-16.1623 0.6963,0.1859 -8.7502,12.3738 -20.9922,27.084 -12.242,14.7103 -22.2582,28.6976 -22.2582,31.0829 0,2.3853 5.0231,14.2495 11.1624,26.3648 8.7887,17.3437 10.1653,23.891 6.4737,30.789 -2.5789,4.8186 -5.4306,8.7611 -6.3372,8.7611 -0.9067,0 -7.3001,-8.9458 -14.2076,-19.8795 -6.9076,-10.9337 -14.1442,-19.883 -16.0813,-19.8874 -1.9372,0 -12.8752,14.8637 -24.3068,33.0401 -20.8708,33.1849 -28.5928,39.2236 -33.5702,26.2527 z"
         style="opacity:1;fill:#808080;fill-opacity:1;fill-rule:evenodd;stroke:none;stroke-width:88.38835144;stroke-linecap:square;stroke-linejoin:round;stroke-miterlimit:4;stroke-dasharray:none;stroke-opacity:1;paint-order:markers stroke fill" />
      <path
         transform="matrix(1.06458,0,0,1.06458,-4924.7534,-7390.433)"
         inkscape:connector-curvature="0"
         id="path44542"
         d="m 2433.7112,1653.7983 c -8.6223,-8.6223 0.6063,-27.1721 40.3034,-81.011 4.7325,-6.4184 4.1773,-11.5337 -3.3146,-30.5408 -11.0849,-28.1227 -11.1025,-29.7618 -0.3501,-32.5736 6.7654,-1.7692 9.723,0.9926 13.5807,12.6813 2.7124,8.2187 6.9984,16.2203 9.5244,17.7815 2.526,1.5612 11.9585,-5.7137 20.961,-16.1664 9.0026,-10.4527 20.7119,-19.3249 26.0207,-19.7161 9.9064,-0.7298 13.2945,8.2975 5.0309,13.4047 -2.5418,1.5709 -12.448,12.7575 -22.0136,24.8589 l -17.3921,22.0026 12.737,25.2319 c 10.8819,21.557 11.8948,26.3836 6.9545,33.1399 -5.3069,7.2576 -6.9293,6.2412 -19.7244,-12.3558 -7.6681,-11.1452 -15.9532,-19.0209 -18.4114,-17.5017 -2.4581,1.5192 -13.2594,16.4757 -24.0029,33.2366 -18.8714,29.4412 -23.6194,33.8121 -29.9035,27.528 z"
         style="opacity:1;fill:#808080;fill-opacity:1;fill-rule:evenodd;stroke:none;stroke-width:88.38835144;stroke-linecap:square;stroke-linejoin:round;stroke-miterlimit:4;stroke-dasharray:none;stroke-opacity:1;paint-order:markers stroke fill" />
      <path
         transform="matrix(1.06458,0,0,1.06458,-4924.7534,-7390.433)"
         inkscape:connector-curvature="0"
         id="path44544"
         d="m 2190.6433,1653.7983 c -7.6008,-7.6008 -0.9916,-25.3657 20.6688,-55.5559 l 23.6152,-32.9146 -7.9003,-19.478 c -10.408,-25.661 -10.4323,-34.946 -0.091,-34.946 5.0716,0 10.4551,5.1965 13.8337,13.3531 3.042,7.3442 7.1658,14.3634 9.1638,15.5983 1.9981,1.2348 11.5433,-6.3366 21.2116,-16.8255 9.8434,-10.6789 21.6046,-19.0707 26.7276,-19.0707 5.0319,0 9.149,0.7834 9.149,1.7409 0,0.9575 -10.32,14.7102 -22.9333,30.5615 l -22.9332,28.8206 12.0256,22.9684 c 9.2609,17.6881 11.1218,25.4115 8.0945,33.595 -3.8373,10.3731 -4.2826,10.1278 -18.6693,-10.2827 -8.106,-11.5002 -15.9855,-20.9094 -17.51,-20.9094 -1.5244,0 -12.3729,14.9156 -24.1077,33.1457 -20.9829,32.5971 -24.4733,36.0707 -30.3446,30.1993 z"
         style="opacity:1;fill:#808080;fill-opacity:1;fill-rule:evenodd;stroke:none;stroke-width:88.38835144;stroke-linecap:square;stroke-linejoin:round;stroke-miterlimit:4;stroke-dasharray:none;stroke-opacity:1;paint-order:markers stroke fill" />
      <path
         transform="matrix(1.06458,0,0,1.06458,-4924.7534,-7390.433)"
         inkscape:connector-curvature="0"
         id="path44546"
         d="m 1942.8921,1649.754 c -4.3589,-11.3593 -3.7637,-12.6706 22.1415,-48.7771 l 24.8241,-34.5996 -7.1682,-20.0027 c -8.9109,-24.8655 -9.0111,-33.8012 -0.4163,-37.0993 4.7673,-1.8294 8.7423,2.5093 13.7381,14.9951 3.8664,9.6631 8.5494,17.5693 10.4066,17.5693 1.8572,0 11.4781,-8.789 21.3799,-19.5311 15.8143,-17.1566 21.5804,-19.8032 35.2118,-16.1623 0.6962,0.1859 -8.7503,12.3738 -20.9923,27.084 -12.242,14.7103 -22.2582,28.6976 -22.2582,31.0829 0,2.3853 5.0231,14.2495 11.1624,26.3648 8.7887,17.3437 10.1654,23.891 6.4737,30.789 -2.5789,4.8186 -5.4306,8.7611 -6.3372,8.7611 -0.9066,0 -7.3001,-8.9458 -14.2076,-19.8795 -6.9076,-10.9337 -13.9227,-19.883 -15.5891,-19.8874 -1.6664,0 -12.6044,14.876 -24.3068,33.0675 -21.3776,33.2318 -29.0939,39.1728 -34.0624,26.2253 z"
         style="opacity:1;fill:#808080;fill-opacity:1;fill-rule:evenodd;stroke:none;stroke-width:88.38835144;stroke-linecap:square;stroke-linejoin:round;stroke-miterlimit:4;stroke-dasharray:none;stroke-opacity:1;paint-order:markers stroke fill" />
      <path
         transform="matrix(1.06458,0,0,1.06458,-4924.7534,-7390.433)"
         inkscape:connector-curvature="0"
         id="path44548"
         d="m 1700.0879,1653.7983 c -7.5621,-7.5621 -0.9601,-24.0439 21.6932,-54.1564 l 24.6394,-32.7528 -9.1715,-23.9665 c -11.2502,-29.3986 -11.2665,-30.44 -0.5224,-33.2497 6.7654,-1.7692 9.7231,0.9926 13.5807,12.6813 2.7124,8.2187 6.9984,16.2203 9.5244,17.7815 2.5261,1.5612 11.9585,-5.7137 20.9611,-16.1664 9.0025,-10.4527 20.7118,-19.3249 26.0207,-19.7161 9.9064,-0.7298 13.2944,8.2975 5.0308,13.4047 -2.5418,1.5709 -12.448,12.7575 -22.0136,24.8589 l -17.3921,22.0026 12.737,25.2319 c 10.882,21.557 11.8949,26.3836 6.9545,33.1399 -5.3068,7.2576 -6.9293,6.2412 -19.7244,-12.3558 -7.6681,-11.1452 -15.6343,-19.218 -17.7027,-17.9397 -2.0684,1.2783 -12.925,16.2348 -24.1258,33.2366 -19.7532,29.9835 -24.3007,34.1546 -30.4893,27.966 z"
         style="opacity:1;fill:#808080;fill-opacity:1;fill-rule:evenodd;stroke:none;stroke-width:88.38835144;stroke-linecap:square;stroke-linejoin:round;stroke-miterlimit:4;stroke-dasharray:none;stroke-opacity:1;paint-order:markers stroke fill" />
      <path
         transform="matrix(1.06458,0,0,1.06458,-4924.7534,-7390.433)"
         inkscape:connector-curvature="0"
         id="path44550"
         d="m 1700.0879,1888.0274 c -6.9488,-6.9488 -1.4648,-20.2867 21.5032,-52.2993 l 24.4495,-34.0775 -9.1876,-24.5561 c -7.3298,-19.5906 -8.0289,-25.2911 -3.4573,-28.1911 9.151,-5.805 10.574,-4.7532 19.0754,14.0994 l 8.0582,17.8699 20.3861,-20.0796 c 11.2124,-11.0438 23.7982,-20.0796 27.9683,-20.0796 10.6997,0 9.726,2.7693 -9.1079,25.9032 -9.1796,11.2754 -18.9999,23.5389 -21.8229,27.2522 -4.0646,5.3467 -2.535,11.8245 7.3514,31.1324 10.7491,20.9928 11.668,25.4971 6.6117,32.412 -5.4326,7.4295 -6.9386,6.5184 -20.1081,-12.1654 -7.8296,-11.108 -15.8144,-19.2206 -17.7439,-18.0281 -1.9296,1.1925 -12.0462,16.008 -22.4813,32.9232 -17.865,28.9589 -24.5243,34.8549 -31.4948,27.8844 z"
         style="opacity:1;fill:#808080;fill-opacity:1;fill-rule:evenodd;stroke:none;stroke-width:88.38835144;stroke-linecap:square;stroke-linejoin:round;stroke-miterlimit:4;stroke-dasharray:none;stroke-opacity:1;paint-order:markers stroke fill" />
      <path
         transform="matrix(1.06458,0,0,1.06458,-4924.7534,-7390.433)"
         inkscape:connector-curvature="0"
         id="path44552"
         d="m 1941.6934,1884.0464 c -3.2655,-8.5098 2.1947,-19.0013 27.49,-52.8199 10.8019,-14.4416 19.6388,-28.2854 19.6376,-30.7639 0,-2.4785 -3.9706,-14.9472 -8.8208,-27.7083 -4.8503,-12.7611 -8.3296,-23.3541 -7.7318,-23.5401 13.1449,-4.0896 17.6355,-1.6107 25.6926,14.1825 l 8.9338,17.5116 18.6027,-20.5473 c 13.7069,-15.1398 21.246,-20.1381 28.6466,-18.9925 9.4427,1.4617 8.7208,3.1422 -12.0583,28.0712 -12.1562,14.5841 -22.1288,29.4996 -22.1612,33.1457 -0.032,3.646 4.9335,15.3628 11.0355,26.0374 10.3913,18.178 11.3628,35.8344 1.9718,35.8344 -2.1501,0 -10.1205,-9.0276 -17.7119,-20.0613 l -13.8025,-20.0613 -7.9096,10.1176 c -4.3503,5.5647 -14.3151,20.5585 -22.1442,33.3196 -14.3315,23.3599 -24.757,29.0785 -29.6703,16.2746 z"
         style="opacity:1;fill:#808080;fill-opacity:1;fill-rule:evenodd;stroke:none;stroke-width:88.38835144;stroke-linecap:square;stroke-linejoin:round;stroke-miterlimit:4;stroke-dasharray:none;stroke-opacity:1;paint-order:markers stroke fill" />
      <path
         transform="matrix(1.06458,0,0,1.06458,-4924.7534,-7390.433)"
         inkscape:connector-curvature="0"
         id="path44556"
         d="m 2186.2238,1888.0274 c -6.9488,-6.9488 -1.4648,-20.2867 21.5032,-52.2993 l 24.4495,-34.0775 -9.1876,-24.5561 c -7.3298,-19.5906 -8.0289,-25.2911 -3.4572,-28.1911 9.7017,-6.1544 12.1859,-4.383 19.5042,13.9072 3.8903,9.7227 7.8107,17.6777 8.7121,17.6777 0.9013,0 9.888,-8.9493 19.9703,-19.8874 15.9595,-17.3139 35.1772,-26.4829 34.736,-16.5728 -0.081,1.823 -9.8205,15.2114 -21.643,29.7519 l -21.4953,26.4374 12.3663,24.4974 c 10.6995,21.1956 11.5664,25.5914 6.4317,32.6135 -5.5144,7.5414 -6.9595,6.6618 -20.4139,-12.4261 l -14.4793,-20.542 -7.9789,10.1048 c -4.3883,5.5577 -14.3627,20.5457 -22.1653,33.3068 -13.4226,21.9527 -20.1107,26.9977 -26.8528,20.2556 z"
         style="opacity:1;fill:#808080;fill-opacity:1;fill-rule:evenodd;stroke:none;stroke-width:88.38835144;stroke-linecap:square;stroke-linejoin:round;stroke-miterlimit:4;stroke-dasharray:none;stroke-opacity:1;paint-order:markers stroke fill" />
    </g>
  </g>
</svg>
