<?xml version="1.0" encoding="UTF-8" standalone="no"?>
<!-- Created with Inkscape (http://www.inkscape.org/) -->

<svg
   xmlns:dc="http://purl.org/dc/elements/1.1/"
   xmlns:cc="http://creativecommons.org/ns#"
   xmlns:rdf="http://www.w3.org/1999/02/22-rdf-syntax-ns#"
   xmlns:svg="http://www.w3.org/2000/svg"
   xmlns="http://www.w3.org/2000/svg"
   xmlns:sodipodi="http://sodipodi.sourceforge.net/DTD/sodipodi-0.dtd"
   xmlns:inkscape="http://www.inkscape.org/namespaces/inkscape"
   width="5037.5859"
   height="5080.6494"
   viewBox="0 0 5362.9131 5408.7574"
   version="1.1"
   id="svg8"
   inkscape:version="0.92.2 2405546, 2018-03-11"
   sodipodi:docname="ProgressCalendar2.svg">
  <defs
     id="defs2" />
  <sodipodi:namedview
     id="base"
     pagecolor="#ffffff"
     bordercolor="#666666"
     borderopacity="1.0"
     inkscape:pageopacity="0.0"
     inkscape:pageshadow="2"
     inkscape:zoom="0.08"
     inkscape:cx="113.06123"
     inkscape:cy="3076.3775"
     inkscape:document-units="px"
     inkscape:current-layer="layer3"
     showgrid="false"
     inkscape:window-width="1596"
     inkscape:window-height="579"
     inkscape:window-x="0"
     inkscape:window-y="36"
     inkscape:window-maximized="0"
     inkscape:snap-page="false"
     inkscape:snap-grids="true"
     units="px"
     scale-x="1"
     inkscape:pagecheckerboard="true"
     showguides="true"
     inkscape:guide-bbox="true"
     borderlayer="true"
     inkscape:showpageshadow="false"
     inkscape:snap-global="false"
     showborder="false"
     fit-margin-top="0"
     fit-margin-left="0"
     fit-margin-right="0"
     fit-margin-bottom="0" />
  <metadata
     id="metadata5">
    <rdf:RDF>
      <cc:Work
         rdf:about="">
        <dc:format>image/svg+xml</dc:format>
        <dc:type
           rdf:resource="http://purl.org/dc/dcmitype/StillImage" />
        <dc:title></dc:title>
      </cc:Work>
    </rdf:RDF>
  </metadata>
  <g
     inkscape:groupmode="layer"
     id="layer3"
     inkscape:label="PROGRESS shirt"
     transform="translate(4924.7534,7390.433)">
    <g
       transform="matrix(0.52677502,0,0,0.52677502,-3439.5262,-5005.8581)"
       id="layer1"
       inkscape:label="Layer 1">
      <g
         style="fill:#ffffff"
         transform="matrix(4.9925997,0,0,4.9925997,2689.7292,-22166.033)"
         id="g2978">
        <path
           style="fill:#ffffff;stroke:#000000;stroke-width:1.60887659;stroke-opacity:1"
           d="m -237.1354,5587.4765 c -36.2305,-1.1541 -49.0174,-1.7063 -111.4345,-4.8127 -44.2836,-2.204 -108.2212,-6.2003 -115.0346,-7.1902 -3.0971,-0.4499 -23.369,-2.2825 -45.0486,-4.0726 -62.71123,-5.1776 -118.67201,-10.9107 -156.86545,-16.0707 -19.46741,-2.6299 -36.14042,-4.7822 -37.05114,-4.7829 -1.01876,-6e-4 -1.4722,-4.1795 -1.17852,-10.861 0.48305,-10.9898 2.06824,-75.629 9.24255,-376.8793 3.91199,-164.2662 4.90258,-200.9697 6.4481,-238.9182 0.88987,-21.8501 1.56933,-47.7466 4.89663,-186.6297 1.29318,-53.9778 3.4011,-141.9431 4.68426,-195.4785 1.28316,-53.5354 2.80846,-114.9795 3.38953,-136.5425 0.70022,-25.9835 0.51221,-39.0057 -0.55749,-38.6131 -1.45729,0.5349 -26.09113,34.3663 -67.50815,92.7137 -8.60476,12.1222 -15.87334,20.8782 -16.83707,20.2826 -0.9327,-0.5764 -32.54782,-23.5307 -70.25582,-51.0095 -37.70799,-27.4788 -85.57386,-62.3532 -106.36859,-77.4988 -20.79473,-15.1456 -56.99445,-41.5507 -80.44384,-58.6781 -23.4494,-17.1274 -52.6064,-38.346 -64.7935,-47.1523 -15.0168,-10.8511 -21.699,-16.5973 -20.7332,-17.8289 1.4454,-1.8434 63.8737,-85.7168 113.72454,-152.7909 15.01964,-20.2088 43.59829,-58.5983 63.50814,-85.3099 19.90985,-26.7117 60.3925,-81.1286 89.96143,-120.9266 29.56895,-39.798 57.89767,-77.4443 62.95273,-83.6584 27.78918,-34.1609 60.91075,-65.8343 92.67969,-88.6274 16.79943,-12.053 29.56805,-18.5307 56.87495,-28.8532 19.0162,-7.1885 36.87489,-13.9535 89.29262,-33.8248 51.9582,-19.697 104.5049,-39.4414 144.8805,-54.4389 14.2605,-5.297 29.7033,-12.5672 41.8308,-19.6932 10.5737,-6.213 23.3879,-13.6428 28.476,-16.5107 5.0881,-2.8678 9.251,-6.09 9.251,-7.1604 0,-1.9534 6.0714,-2.4277 8.9301,-0.6976 8.2494,4.9927 121.6921,18.8838 181.1824,22.1858 36.6495,2.0342 103.2358,2.01 136.4895,-0.05 51.1001,-3.1651 141.353,-16.1199 147.5581,-21.1803 2.0657,-1.6846 5.9867,0.2985 36.6582,18.5405 8.8489,5.2629 19.7088,10.8759 24.1332,12.4733 4.4244,1.5974 19.6283,7.334 33.7864,12.748 14.1581,5.4141 33.3439,12.6249 42.6352,16.0241 9.2912,3.3992 22.6851,8.4926 29.7642,11.3188 7.079,2.8261 19.3869,7.5527 27.3509,10.5035 20.2993,7.5214 61.577,23.0088 90.0971,33.8043 13.2732,5.0243 34.269,12.9325 46.6574,17.5738 31.0111,11.6182 32.5112,12.3295 43.4396,20.5984 28.2135,21.3473 68.7536,70.3634 94.1097,113.7857 3.8695,6.6265 73.1234,110.9888 153.8977,231.9161 80.7743,120.9273 147.0679,220.6119 147.3192,221.5211 0.2515,0.9093 -40.8106,31.9685 -91.2489,69.0204 -50.4383,37.0519 -97.8599,71.8905 -105.3814,77.419 -7.5215,5.5284 -24.1734,17.7642 -37.0042,27.1905 -12.8307,9.4264 -29.8446,21.9418 -37.8086,27.8121 -49.6526,36.5997 -66.1735,48.8049 -67.7948,50.0851 -1.9121,1.51 -13.3612,-13.3379 -54.4798,-70.6534 -11.5034,-16.0348 -21.7528,-29.1994 -22.7762,-29.2546 -1.3278,-0.072 -1.7023,4.623 -1.3079,16.3906 1.8831,56.1795 2.8856,99.4403 6.4409,277.9335 8.4102,422.2541 8.5011,426.6549 11.2415,544.6047 0.4523,19.4674 1.1661,44.4452 1.5864,55.5062 0.42,11.061 1.4801,59.9307 2.3557,108.5992 0.8754,48.6685 1.9847,99.7638 2.4651,113.545 l 0.8735,25.0568 -15.7238,1.9876 c -8.6482,1.0932 -25.1358,3.3484 -36.6392,5.0117 -21.0551,3.0443 -81.6272,9.6535 -117.448,12.8151 -16.7227,1.4759 -30.5655,2.8009 -59.7313,5.7172 -36.0232,3.6019 -147.7218,9.7953 -216.9954,12.0318 -55.4615,1.7907 -275.6856,1.7461 -332.6155,-0.068 z"
           id="path2953"
           inkscape:connector-curvature="0" />
        <path
           style="fill:#ffffff;stroke:#000000;stroke-width:1.60887659;stroke-opacity:1"
           d="m 41.5827,5581.1191 c 75.7436,-1.7543 93.0067,-2.4319 143.9945,-5.6518 7.079,-0.4471 36.4008,-2.2584 65.1595,-4.0251 28.7587,-1.7668 55.9084,-3.5672 60.3328,-4.0008 4.4244,-0.4336 25.0582,-2.2516 45.853,-4.04 20.7947,-1.7883 39.6185,-3.6026 41.8307,-4.0315 2.2123,-0.429 23.2081,-2.9198 46.6575,-5.5354 23.4493,-2.6154 52.5901,-5.9955 64.7573,-7.5113 l 22.122,-2.7559 v -21.2635 c 0,-21.8849 -2.4257,-149.1236 -3.9857,-209.0668 -0.4836,-18.5825 -2.3222,-106.5478 -4.086,-195.4785 -1.7638,-88.9306 -3.9131,-185.2219 -4.7763,-213.9806 -0.8632,-28.7586 -3.3735,-147.1317 -5.5786,-263.0513 -2.2051,-115.9195 -4.8109,-221.2608 -5.7904,-234.0916 -3.3357,-43.6918 -3.9045,-79.577 -3.9026,-246.1581 0,-164.8642 1.0435,-215.5684 6.4607,-314.5353 2.679,-48.9412 6.9012,-112.9749 8.0094,-121.4702 1.8819,-14.4263 4.0345,-35.8886 3.6354,-36.2459 -0.4923,-0.4408 -37.3818,-14.6243 -64.7987,-24.9142 -35.9503,-13.4926 -89.0308,-33.4703 -129.5145,-48.7448 -12.8308,-4.8411 -34.9126,-13.1716 -49.0707,-18.5123 -14.1581,-5.3407 -32.5375,-12.2974 -40.8431,-15.4593 -8.3055,-3.162 -16.0252,-5.749 -17.1547,-5.749 -1.1296,0 -4.0274,5.2489 -6.4396,11.6643 -8.8293,23.4821 -12.0136,30.6873 -20.8052,47.0776 -41.7675,77.8671 -115.4167,126.0318 -215.6173,141.0079 -9.0227,1.3485 -28.7291,2.1545 -52.2885,2.1384 -35.3012,-0.024 -39.1682,-0.3223 -58.3094,-4.4979 -40.4515,-8.8246 -91.997,-29.1901 -120.0509,-47.432 -51.7422,-33.6449 -91.6685,-81.7129 -107.8325,-129.8211 -2.6709,-7.9495 -5.4583,-14.6543 -6.1942,-14.8996 -0.7359,-0.2453 -6.0203,1.4279 -11.7432,3.7183 -5.7228,2.2903 -19.8171,7.6767 -31.3206,11.9696 -11.5034,4.293 -31.4133,11.772 -44.2441,16.6202 -12.8308,4.8481 -31.2926,11.8169 -41.0263,15.4861 -9.7337,3.6693 -26.0236,9.8601 -36.1998,13.7573 -10.1761,3.8972 -31.1719,11.8732 -46.65738,17.7244 -54.01383,20.4093 -70.0449,26.8765 -78.58216,31.7013 l -8.59604,4.858 1.04608,13.0697 c 2.06813,25.8392 2.49606,33.0825 4.85932,82.2514 1.31846,27.4313 2.80311,57.1151 3.29923,65.9639 0.49609,8.8488 1.18318,21.1567 1.52684,27.3509 0.34365,6.1942 1.43104,49.6338 2.41643,96.5326 2.75628,131.1829 -0.65903,234.8424 -11.18473,339.4729 -2.49688,24.8202 -3.6295,53.8818 -4.95355,127.1013 -0.94409,52.2081 -2.74243,127.1415 -3.99629,166.5187 -1.25388,39.3773 -3.36622,117.2067 -4.69411,172.9543 -1.32789,55.7475 -2.81061,114.0291 -3.29496,129.5145 -0.48434,15.4855 -2.68351,104.472 -4.88705,197.748 -2.20355,93.2759 -5.05296,201.8751 -6.33207,241.3315 -3.88856,119.9509 -4.85079,188.3824 -2.6489,188.3824 1.0518,0 13.65014,1.4428 27.9963,3.2063 14.34615,1.7635 43.45978,5.0006 64.69695,7.1935 21.23717,2.1929 44.76699,4.7048 52.28849,5.5821 7.5215,0.8773 28.8793,2.7206 47.4619,4.0961 18.5825,1.3756 37.0443,2.8477 41.0263,3.2716 7.1836,0.7649 101.9914,6.3972 135.9501,8.0767 9.7337,0.4814 20.2316,1.1855 23.3287,1.5645 16.2384,1.9878 139.9386,4.964 221.2205,5.3227 30.086,0.1335 84.7476,-0.4546 121.4702,-1.3052 z"
           id="path2951"
           inkscape:connector-curvature="0" />
        <path
           style="fill:#ffffff;stroke:#000000;stroke-width:1.60887659;stroke-opacity:1"
           d="m 637.3217,4469.8781 c 49.1905,-36.4601 77.9812,-57.7746 102.5134,-75.8937 10.1761,-7.5159 33.344,-24.6898 51.484,-38.1642 35.3607,-26.2658 58.1064,-43.0833 103.5118,-76.5334 15.7845,-11.6284 29.0526,-22.0637 29.4846,-23.1897 0.4321,-1.1259 -4.3709,-9.7327 -10.6733,-19.1262 l -11.4588,-17.0791 -4.3504,3.1633 c -2.3925,1.7398 -43.8079,32.902 -92.034,69.2493 -48.2261,36.3473 -120.4445,90.7553 -160.4854,120.9066 -40.0409,30.1514 -72.8017,55.3777 -72.8017,56.0585 0,2.5231 21.0235,30.6804 22.9074,30.6804 0.7318,0 19.5879,-13.5323 41.9024,-30.0718 z"
           id="path2949"
           inkscape:connector-curvature="0" />
        <path
           style="fill:#ffffff;stroke:#000000;stroke-width:1.60887659;stroke-opacity:1"
           d="m -746.84174,4452.654 c 6.59541,-9.1353 12.15643,-17.2538 12.35781,-18.0411 0.2014,-0.7873 -13.52079,-11.5445 -30.49373,-23.905 -16.97294,-12.3605 -44.61579,-32.682 -61.42855,-45.1588 -16.81276,-12.4769 -47.58253,-35.2562 -68.37726,-50.6206 -20.79473,-15.3645 -46.13453,-34.0879 -56.31068,-41.6075 -10.17614,-7.5197 -25.01803,-18.4849 -32.98197,-24.3671 -7.96394,-5.8823 -28.59778,-21.1689 -45.85298,-33.9702 -17.2552,-12.8014 -32.1821,-23.7698 -33.1709,-24.3742 -1.6734,-1.023 -29.6991,34.182 -29.4847,37.0376 0.05,0.6639 17.1345,13.515 37.9658,28.558 20.8313,15.043 48.8453,35.3477 62.25329,45.1215 133.27166,97.1487 194.74523,141.9676 211.00794,153.841 10.61859,7.7526 20.03052,14.0957 20.9154,14.0959 0.88488,1e-4 7.00513,-7.4741 13.60053,-16.6095 z"
           id="path2947"
           inkscape:connector-curvature="0" />
        <path
           style="fill:#ffffff;stroke:#000000;stroke-width:1.60887659;stroke-opacity:1"
           d="m 608.5746,4433.4005 c 20.4276,-15.3649 68.273,-51.4109 106.3229,-80.1021 38.0499,-28.6912 94.5215,-71.2536 125.4924,-94.5833 30.9708,-23.3295 56.3107,-42.8502 56.3107,-43.3791 0,-0.5289 -57.9899,-87.841 -128.8666,-194.0269 -70.8764,-106.1858 -135.402,-203.6696 -143.3901,-216.6305 -28.8683,-46.8398 -56.2909,-79.7908 -90.0221,-108.1701 -3.0974,-2.6059 -5.5137,-3.6417 -6.1382,-2.6313 -1.7893,2.8951 -3.7405,26.0687 -11.2459,133.5623 -2.3985,34.3525 -4.9912,94.7534 -6.4915,151.2344 -0.4819,18.1401 -1.3096,39.8599 -1.8394,48.2663 -1.185,18.8014 -0.9269,162.7752 0.4736,264.3905 0.8817,63.9647 1.4601,76.9682 3.8285,86.0749 2.4561,9.4439 5.9417,15.0935 29.1353,47.2216 14.49,20.0719 27.0077,36.5428 27.8173,36.602 0.8095,0.059 18.1853,-12.4637 38.6131,-27.8287 z"
           id="path2945"
           inkscape:connector-curvature="0" />
        <path
           style="fill:#ffffff;stroke:#000000;stroke-width:1.60887659;stroke-opacity:1"
           d="m -702.08322,4386.9263 28.88392,-40.6241 2.60693,-13.6755 c 2.28673,-11.9956 5.30279,-41.3546 8.26406,-80.4438 7.3748,-97.3487 6.60991,-325.9438 -1.52621,-456.1165 -0.44246,-7.0791 -1.61572,-27.7129 -2.60724,-45.853 -0.99153,-18.1401 -2.00737,-34.7919 -2.25743,-37.0042 -0.25006,-2.2122 -0.53722,-5.6511 -0.63811,-7.6421 -0.10088,-1.991 -1.03361,-3.62 -2.0727,-3.62 -4.18593,0 -33.93125,24.645 -55.34241,45.853 -25.44192,25.2005 -36.52882,38.2458 -64.26574,75.6172 -10.50809,14.1581 -33.94034,45.6519 -52.07166,69.9861 -18.13131,24.3343 -43.46148,58.362 -56.28928,75.6172 -29.23012,39.3187 -61.71435,82.9332 -116.57121,156.5127 -23.6052,31.6618 -42.9186,58.2104 -42.9186,58.997 0,0.7866 6.697,6.4043 14.8821,12.4838 48.68206,36.1582 89.02424,66.0262 154.04996,114.0533 96.40725,71.2051 135.46516,100.1169 147.21221,108.971 5.3093,4.0018 10.13121,7.3291 10.71538,7.394 0.58416,0.065 14.05989,-18.1628 29.94603,-40.5061 z"
           id="path2943"
           inkscape:connector-curvature="0" />
        <path
           style="fill:#ffffff;stroke:#000000;stroke-width:1.60887659;stroke-opacity:1"
           d="m -44.354,3768.7936 c 19.4438,-1.0774 60.1547,-9.2794 81.1101,-16.3413 19.1169,-6.4423 50.7516,-21.5044 65.1595,-31.0241 28.623,-18.9119 54.3201,-44.7548 72.9645,-73.3785 16.2586,-24.9608 37.8251,-73.1846 34.8688,-77.9681 -0.5516,-0.8925 -6.2159,-4.6122 -12.5873,-8.266 -6.3714,-3.6538 -14.3804,-8.4346 -17.7976,-10.6239 -3.4173,-2.1893 -6.7366,-3.3737 -7.3763,-2.632 -0.6396,0.7417 -2.4757,4.9685 -4.08,9.393 -19.1222,52.7343 -64.1066,102.3669 -116.6717,128.7272 -20.6758,10.3684 -31.3725,14.2248 -57.4629,20.7163 -27.7583,6.9065 -43.9627,9.0341 -68.6875,9.0187 -27.4561,-0.017 -50.0459,-4.029 -83.0036,-14.741 -67.2127,-21.8457 -120.1244,-74.6305 -144.8732,-144.5257 -2.0366,-5.7517 -3.836,-10.6563 -3.9986,-10.8991 -0.1627,-0.2428 -4.9238,2.3187 -10.5802,5.6922 -5.6565,3.3735 -17.0114,10.0881 -25.2333,14.9213 -17.5975,10.3448 -17.266,8.395 -5.9758,35.1428 21.5642,51.0885 63.2624,95.4582 117.88,125.4325 28.9056,15.8634 57.6399,26.0131 108.1764,38.2107 12.547,3.0284 39.4064,5.1931 54.7018,4.4088 4.8669,-0.2496 15.427,-0.8183 23.4669,-1.2638 z"
           id="path2941"
           inkscape:connector-curvature="0" />
        <path
           style="fill:#ffffff;stroke:#000000;stroke-width:1.60887659;stroke-opacity:1"
           d="m -42.1821,3705.9829 c 58.4741,-7.7123 107.4326,-29.9905 144.6846,-65.8375 13.6024,-13.0895 31.5944,-34.4589 30.1927,-35.8606 -0.5215,-0.5216 -5.8504,0.5496 -11.8418,2.3804 -18.1936,5.5595 -68.8442,16.1059 -93.7506,19.5207 -46.4679,6.371 -121.9461,7.6089 -168.1276,2.7572 -36.2746,-3.8108 -98.0224,-16.6913 -119.9399,-25.0193 -4.7609,-1.809 -9.2008,-2.7444 -9.8665,-2.0788 -2.0088,2.0089 18.1748,27.6436 32.6123,41.4201 16.4587,15.7053 29.5946,25.1879 49.7323,35.9014 25.8363,13.7452 59.2306,24.0748 90.9015,28.1178 11.936,1.5238 38.7604,0.8937 55.403,-1.3014 z"
           id="path2939"
           inkscape:connector-curvature="0" />
        <path
           style="fill:#ffffff;stroke:#000000;stroke-width:1.60887659;stroke-opacity:1"
           d="m -32.4256,3623.1057 c 54.1648,-3.6765 91.5831,-9.1839 130.319,-19.1809 45.8017,-11.8206 43.1228,-10.5663 50.157,-23.4833 6.4993,-11.9348 15.0061,-32.6748 13.8686,-33.8123 -0.3748,-0.3747 -7.8749,0.7835 -16.6669,2.5739 -95.6707,19.482 -219.4383,22.5512 -352.3454,8.7376 -22.1454,-2.3017 -79.8204,-10.9902 -86.3725,-13.0117 -1.9684,-0.6072 -2.8138,0.011 -2.8097,2.0553 0.01,3.5205 7.67,24.0587 12.9704,34.7631 l 3.8157,7.7061 17.7483,5.4437 c 44.3008,13.5879 66.3563,18.4909 105.432,23.4377 47.3703,5.9968 84.663,7.433 123.8835,4.7708 z"
           id="path2888"
           inkscape:connector-curvature="0" />
      </g>
    </g>
    <g
       transform="matrix(19.156499,0,0,19.156499,31047.089,-94622.573)"
       id="g14136">
      <g
         id="g13907"
         transform="translate(-290.84731,214.24672)">
        <rect
           id="rect13741"
           style="fill:none;fill-opacity:0.99215686;stroke:#808080;stroke-width:3.4087851;stroke-linejoin:round;stroke-miterlimit:4;stroke-dasharray:none;stroke-opacity:1"
           height="67.473152"
           width="97.281471"
           sodipodi:stroke-cmyk="(0.0000000 0.0000000 0.0000000 0.50000000)"
           y="4406.48"
           x="-1495.6053"
           ry="0" />
        <g
           id="g13755"
           transform="matrix(1,0,0,1.0100311,135.76233,196.87265)"
           style="stroke:#808080">
          <path
             sodipodi:stroke-cmyk="(0.0000000 0.0000000 0.0000000 0.50000000)"
             d="M -1618.2383,4169.3963 V 4233.74"
             style="fill:#666666;stroke:#808080;stroke-width:1.71385872;stroke-opacity:1"
             id="path13743"
             inkscape:connector-curvature="0" />
          <path
             sodipodi:stroke-cmyk="(0.0000000 0.0000000 0.0000000 0.50000000)"
             d="M -1604.4432,4169.3963 V 4233.74"
             style="fill:#666666;stroke:#808080;stroke-width:1.71385872;stroke-opacity:1"
             id="path13745"
             inkscape:connector-curvature="0" />
          <path
             sodipodi:stroke-cmyk="(0.0000000 0.0000000 0.0000000 0.50000000)"
             d="M -1590.6481,4169.3963 V 4233.74"
             style="fill:#666666;fill-opacity:1;stroke:#808080;stroke-width:1.71385872;stroke-opacity:1"
             id="path13747"
             inkscape:connector-curvature="0" />
          <path
             inkscape:connector-curvature="0"
             id="path13749"
             style="fill:#666666;fill-opacity:1;stroke:#808080;stroke-width:1.71385872;stroke-opacity:1"
             d="m -1576.853,4169.0227 v 64.3437"
             sodipodi:stroke-cmyk="(0.0000000 0.0000000 0.0000000 0.50000000)" />
          <path
             sodipodi:stroke-cmyk="(0.0000000 0.0000000 0.0000000 0.50000000)"
             d="m -1563.0579,4167.7149 v 66.0322"
             style="fill:#666666;fill-opacity:1;stroke:#808080;stroke-width:1.73619962;stroke-opacity:1"
             id="path13751"
             inkscape:connector-curvature="0" />
          <path
             inkscape:connector-curvature="0"
             id="path13753"
             style="fill:#666666;fill-opacity:1;stroke:#808080;stroke-width:1.7196182;stroke-opacity:1"
             d="m -1549.2627,4168.2792 v 64.7769"
             sodipodi:stroke-cmyk="(0.0000000 0.0000000 0.0000000 0.50000000)" />
        </g>
        <g
           id="g13765"
           transform="translate(135.76233,239.34186)"
           style="stroke:#808080">
          <path
             sodipodi:stroke-cmyk="(0.0000000 0.0000000 0.0000000 0.50000000)"
             d="m -1630.9545,4181.5481 h 95.6923"
             style="fill:#666666;stroke:#808080;stroke-width:2.03383207;stroke-opacity:1"
             id="path13757"
             inkscape:connector-curvature="0" />
          <path
             sodipodi:stroke-cmyk="(0.0000000 0.0000000 0.0000000 0.50000000)"
             d="m -1631.9175,4207.7517 h 96.7797"
             style="fill:#666666;stroke:#808080;stroke-width:2.01438737;stroke-opacity:1"
             id="path13759"
             inkscape:connector-curvature="0" />
          <path
             sodipodi:stroke-cmyk="(0.0000000 0.0000000 0.0000000 0.50000000)"
             d="m -1630.9545,4194.6499 h 96.7394"
             style="fill:#666666;stroke:#808080;stroke-width:2.04492903;stroke-opacity:1"
             id="path13761"
             inkscape:connector-curvature="0" />
          <path
             inkscape:connector-curvature="0"
             id="path13763"
             style="fill:#666666;stroke:#808080;stroke-width:2.01438737;stroke-opacity:1"
             d="m -1631.9175,4220.8535 h 96.7797"
             sodipodi:stroke-cmyk="(0.0000000 0.0000000 0.0000000 0.50000000)" />
        </g>
        <g
           id="g13905"
           style="fill:#808080"
           transform="translate(-50.035259,96.344488)">
          <flowRoot
             transform="matrix(0.95131815,0,0,0.95131815,-2124.1612,3830.8541)"
             style="font-style:normal;font-variant:normal;font-weight:bold;font-stretch:normal;line-height:0.01%;font-family:Roboto;-inkscape-font-specification:'Roboto, Bold';text-align:start;letter-spacing:0px;word-spacing:0px;writing-mode:lr-tb;text-anchor:start;fill:#808080;fill-opacity:1;stroke:none;stroke-width:1px;stroke-linecap:butt;stroke-linejoin:miter;stroke-opacity:1"
             id="flowRoot13773"
             xml:space="preserve"><flowRegion
               style="fill:#808080"
               id="flowRegion13769"><rect
                 style="fill:#808080;fill-opacity:1"
                 y="505.03198"
                 x="714.84375"
                 height="137.5"
                 width="118.75"
                 id="rect13767" /></flowRegion><flowPara
               id="flowPara13771"
               style="font-size:12.5px;line-height:1.25;fill:#808080">✗ </flowPara></flowRoot>          <flowRoot
             transform="matrix(0.95131815,0,0,0.95131815,-2110.5742,3844.1668)"
             style="font-style:normal;font-variant:normal;font-weight:bold;font-stretch:normal;line-height:0.01%;font-family:Roboto;-inkscape-font-specification:'Roboto, Bold';text-align:start;letter-spacing:0px;word-spacing:0px;writing-mode:lr-tb;text-anchor:start;fill:#808080;fill-opacity:1;stroke:none;stroke-width:1px;stroke-linecap:butt;stroke-linejoin:miter;stroke-opacity:1"
             id="flowRoot13781"
             xml:space="preserve"><flowRegion
               style="fill:#808080"
               id="flowRegion13777"><rect
                 style="fill:#808080;fill-opacity:1"
                 y="505.03198"
                 x="714.84375"
                 height="137.5"
                 width="118.75"
                 id="rect13775" /></flowRegion><flowPara
               id="flowPara13779"
               style="font-size:12.5px;line-height:1.25;fill:#808080">✗ </flowPara></flowRoot>          <g
             style="fill:#808080"
             id="g13903">
            <flowRoot
               transform="matrix(0.95131815,0,0,0.95131815,-2042.6395,3830.8541)"
               style="font-style:normal;font-variant:normal;font-weight:bold;font-stretch:normal;line-height:0.01%;font-family:Roboto;-inkscape-font-specification:'Roboto, Bold';text-align:start;letter-spacing:0px;word-spacing:0px;writing-mode:lr-tb;text-anchor:start;fill:#808080;fill-opacity:1;stroke:none;stroke-width:1px;stroke-linecap:butt;stroke-linejoin:miter;stroke-opacity:1"
               id="flowRoot13789"
               xml:space="preserve"><flowRegion
                 id="flowRegion13785"
                 style="fill:#808080"><rect
                   style="fill:#808080;fill-opacity:1"
                   y="505.03198"
                   x="714.84375"
                   height="137.5"
                   width="118.75"
                   id="rect13783" /></flowRegion><flowPara
                 id="flowPara13787"
                 style="font-size:12.5px;line-height:1.25;fill:#808080">✗ </flowPara></flowRoot>            <flowRoot
               xml:space="preserve"
               id="flowRoot13797"
               style="font-style:normal;font-variant:normal;font-weight:bold;font-stretch:normal;line-height:0.01%;font-family:Roboto;-inkscape-font-specification:'Roboto, Bold';text-align:start;letter-spacing:0px;word-spacing:0px;writing-mode:lr-tb;text-anchor:start;fill:#808080;fill-opacity:1;stroke:none;stroke-width:1px;stroke-linecap:butt;stroke-linejoin:miter;stroke-opacity:1"
               transform="matrix(0.95131815,0,0,0.95131815,-2056.2265,3830.8541)"><flowRegion
                 id="flowRegion13793"
                 style="fill:#808080"><rect
                   id="rect13791"
                   width="118.75"
                   height="137.5"
                   x="714.84375"
                   y="505.03198"
                   style="fill:#808080;fill-opacity:1" /></flowRegion><flowPara
                 style="font-size:12.5px;line-height:1.25;fill:#808080"
                 id="flowPara13795">✗ </flowPara></flowRoot>            <flowRoot
               transform="matrix(0.95131815,0,0,0.95131815,-2069.8134,3830.8541)"
               style="font-style:normal;font-variant:normal;font-weight:bold;font-stretch:normal;line-height:0.01%;font-family:Roboto;-inkscape-font-specification:'Roboto, Bold';text-align:start;letter-spacing:0px;word-spacing:0px;writing-mode:lr-tb;text-anchor:start;fill:#808080;fill-opacity:1;stroke:none;stroke-width:1px;stroke-linecap:butt;stroke-linejoin:miter;stroke-opacity:1"
               id="flowRoot13805"
               xml:space="preserve"><flowRegion
                 id="flowRegion13801"
                 style="fill:#808080"><rect
                   style="fill:#808080;fill-opacity:1"
                   y="505.03198"
                   x="714.84375"
                   height="137.5"
                   width="118.75"
                   id="rect13799" /></flowRegion><flowPara
                 id="flowPara13803"
                 style="font-size:12.5px;line-height:1.25;fill:#808080">✗ </flowPara></flowRoot>            <flowRoot
               xml:space="preserve"
               id="flowRoot13813"
               style="font-style:normal;font-variant:normal;font-weight:bold;font-stretch:normal;line-height:0.01%;font-family:Roboto;-inkscape-font-specification:'Roboto, Bold';text-align:start;letter-spacing:0px;word-spacing:0px;writing-mode:lr-tb;text-anchor:start;fill:#808080;fill-opacity:1;stroke:none;stroke-width:1px;stroke-linecap:butt;stroke-linejoin:miter;stroke-opacity:1"
               transform="matrix(0.95131815,0,0,0.95131815,-2083.4004,3830.8541)"><flowRegion
                 id="flowRegion13809"
                 style="fill:#808080"><rect
                   id="rect13807"
                   width="118.75"
                   height="137.5"
                   x="714.84375"
                   y="505.03198"
                   style="fill:#808080;fill-opacity:1" /></flowRegion><flowPara
                 style="font-size:12.5px;line-height:1.25;fill:#808080"
                 id="flowPara13811">✗ </flowPara></flowRoot>            <flowRoot
               xml:space="preserve"
               id="flowRoot13821"
               style="font-style:normal;font-variant:normal;font-weight:bold;font-stretch:normal;line-height:0.01%;font-family:Roboto;-inkscape-font-specification:'Roboto, Bold';text-align:start;letter-spacing:0px;word-spacing:0px;writing-mode:lr-tb;text-anchor:start;fill:#808080;fill-opacity:1;stroke:none;stroke-width:1px;stroke-linecap:butt;stroke-linejoin:miter;stroke-opacity:1"
               transform="matrix(0.95131815,0,0,0.95131815,-2096.9873,3830.8541)"><flowRegion
                 id="flowRegion13817"
                 style="fill:#808080"><rect
                   id="rect13815"
                   width="118.75"
                   height="137.5"
                   x="714.84375"
                   y="505.03198"
                   style="fill:#808080;fill-opacity:1" /></flowRegion><flowPara
                 style="font-size:12.5px;line-height:1.25;fill:#808080"
                 id="flowPara13819">✗ </flowPara></flowRoot>            <flowRoot
               transform="matrix(0.95131815,0,0,0.95131815,-2110.5742,3830.8541)"
               style="font-style:normal;font-variant:normal;font-weight:bold;font-stretch:normal;line-height:0.01%;font-family:Roboto;-inkscape-font-specification:'Roboto, Bold';text-align:start;letter-spacing:0px;word-spacing:0px;writing-mode:lr-tb;text-anchor:start;fill:#808080;fill-opacity:1;stroke:none;stroke-width:1px;stroke-linecap:butt;stroke-linejoin:miter;stroke-opacity:1"
               id="flowRoot13829"
               xml:space="preserve"><flowRegion
                 id="flowRegion13825"
                 style="fill:#808080"><rect
                   style="fill:#808080;fill-opacity:1"
                   y="505.03198"
                   x="714.84375"
                   height="137.5"
                   width="118.75"
                   id="rect13823" /></flowRegion><flowPara
                 id="flowPara13827"
                 style="font-size:12.5px;line-height:1.25;fill:#808080">✗ </flowPara></flowRoot>            <flowRoot
               transform="matrix(0.95131815,0,0,0.95131815,-2124.1612,3844.1668)"
               style="font-style:normal;font-variant:normal;font-weight:bold;font-stretch:normal;line-height:0.01%;font-family:Roboto;-inkscape-font-specification:'Roboto, Bold';text-align:start;letter-spacing:0px;word-spacing:0px;writing-mode:lr-tb;text-anchor:start;fill:#808080;fill-opacity:1;stroke:none;stroke-width:1px;stroke-linecap:butt;stroke-linejoin:miter;stroke-opacity:1"
               id="flowRoot13837"
               xml:space="preserve"><flowRegion
                 id="flowRegion13833"
                 style="fill:#808080"><rect
                   style="fill:#808080;fill-opacity:1"
                   y="505.03198"
                   x="714.84375"
                   height="137.5"
                   width="118.75"
                   id="rect13831" /></flowRegion><flowPara
                 id="flowPara13835"
                 style="font-size:12.5px;line-height:1.25;fill:#808080">✗ </flowPara></flowRoot>            <flowRoot
               xml:space="preserve"
               id="flowRoot13845"
               style="font-style:normal;font-variant:normal;font-weight:bold;font-stretch:normal;line-height:0.01%;font-family:Roboto;-inkscape-font-specification:'Roboto, Bold';text-align:start;letter-spacing:0px;word-spacing:0px;writing-mode:lr-tb;text-anchor:start;fill:#808080;fill-opacity:1;stroke:none;stroke-width:1px;stroke-linecap:butt;stroke-linejoin:miter;stroke-opacity:1"
               transform="matrix(0.95131815,0,0,0.95131815,-2042.6395,3844.1668)"><flowRegion
                 id="flowRegion13841"
                 style="fill:#808080"><rect
                   id="rect13839"
                   width="118.75"
                   height="137.5"
                   x="714.84375"
                   y="505.03198"
                   style="fill:#808080;fill-opacity:1" /></flowRegion><flowPara
                 style="font-size:12.5px;line-height:1.25;fill:#808080"
                 id="flowPara13843">✗ </flowPara></flowRoot>            <flowRoot
               transform="matrix(0.95131815,0,0,0.95131815,-2056.2265,3844.1668)"
               style="font-style:normal;font-variant:normal;font-weight:bold;font-stretch:normal;line-height:0.01%;font-family:Roboto;-inkscape-font-specification:'Roboto, Bold';text-align:start;letter-spacing:0px;word-spacing:0px;writing-mode:lr-tb;text-anchor:start;fill:#808080;fill-opacity:1;stroke:none;stroke-width:1px;stroke-linecap:butt;stroke-linejoin:miter;stroke-opacity:1"
               id="flowRoot13853"
               xml:space="preserve"><flowRegion
                 id="flowRegion13849"
                 style="fill:#808080"><rect
                   style="fill:#808080;fill-opacity:1"
                   y="505.03198"
                   x="714.84375"
                   height="137.5"
                   width="118.75"
                   id="rect13847" /></flowRegion><flowPara
                 id="flowPara13851"
                 style="font-size:12.5px;line-height:1.25;fill:#808080">✗ </flowPara></flowRoot>            <flowRoot
               xml:space="preserve"
               id="flowRoot13861"
               style="font-style:normal;font-variant:normal;font-weight:bold;font-stretch:normal;line-height:0.01%;font-family:Roboto;-inkscape-font-specification:'Roboto, Bold';text-align:start;letter-spacing:0px;word-spacing:0px;writing-mode:lr-tb;text-anchor:start;fill:#808080;fill-opacity:1;stroke:none;stroke-width:1px;stroke-linecap:butt;stroke-linejoin:miter;stroke-opacity:1"
               transform="matrix(0.95131815,0,0,0.95131815,-2069.8134,3844.1668)"><flowRegion
                 id="flowRegion13857"
                 style="fill:#808080"><rect
                   id="rect13855"
                   width="118.75"
                   height="137.5"
                   x="714.84375"
                   y="505.03198"
                   style="fill:#808080;fill-opacity:1" /></flowRegion><flowPara
                 style="font-size:12.5px;line-height:1.25;fill:#808080"
                 id="flowPara13859">✗ </flowPara></flowRoot>            <flowRoot
               transform="matrix(0.95131815,0,0,0.95131815,-2083.4004,3844.1668)"
               style="font-style:normal;font-variant:normal;font-weight:bold;font-stretch:normal;line-height:0.01%;font-family:Roboto;-inkscape-font-specification:'Roboto, Bold';text-align:start;letter-spacing:0px;word-spacing:0px;writing-mode:lr-tb;text-anchor:start;fill:#808080;fill-opacity:1;stroke:none;stroke-width:1px;stroke-linecap:butt;stroke-linejoin:miter;stroke-opacity:1"
               id="flowRoot13869"
               xml:space="preserve"><flowRegion
                 id="flowRegion13865"
                 style="fill:#808080"><rect
                   style="fill:#808080;fill-opacity:1"
                   y="505.03198"
                   x="714.84375"
                   height="137.5"
                   width="118.75"
                   id="rect13863" /></flowRegion><flowPara
                 id="flowPara13867"
                 style="font-size:12.5px;line-height:1.25;fill:#808080">✗ </flowPara></flowRoot>            <flowRoot
               transform="matrix(0.95131815,0,0,0.95131815,-2096.9873,3844.1668)"
               style="font-style:normal;font-variant:normal;font-weight:bold;font-stretch:normal;line-height:0.01%;font-family:Roboto;-inkscape-font-specification:'Roboto, Bold';text-align:start;letter-spacing:0px;word-spacing:0px;writing-mode:lr-tb;text-anchor:start;fill:#808080;fill-opacity:1;stroke:none;stroke-width:1px;stroke-linecap:butt;stroke-linejoin:miter;stroke-opacity:1"
               id="flowRoot13877"
               xml:space="preserve"><flowRegion
                 id="flowRegion13873"
                 style="fill:#808080"><rect
                   style="fill:#808080;fill-opacity:1"
                   y="505.03198"
                   x="714.84375"
                   height="137.5"
                   width="118.75"
                   id="rect13871" /></flowRegion><flowPara
                 id="flowPara13875"
                 style="font-size:12.5px;line-height:1.25;fill:#808080">✗ </flowPara></flowRoot>            <flowRoot
               xml:space="preserve"
               id="flowRoot13885"
               style="font-style:normal;font-variant:normal;font-weight:bold;font-stretch:normal;line-height:0.01%;font-family:Roboto;-inkscape-font-specification:'Roboto, Bold';text-align:start;letter-spacing:0px;word-spacing:0px;writing-mode:lr-tb;text-anchor:start;fill:#808080;fill-opacity:1;stroke:none;stroke-width:1px;stroke-linecap:butt;stroke-linejoin:miter;stroke-opacity:1"
               transform="matrix(0.95131815,0,0,0.95131815,-2124.1612,3857.2837)"><flowRegion
                 id="flowRegion13881"
                 style="fill:#808080"><rect
                   id="rect13879"
                   width="118.75"
                   height="137.5"
                   x="714.84375"
                   y="505.03198"
                   style="fill:#808080;fill-opacity:1" /></flowRegion><flowPara
                 style="font-size:12.5px;line-height:1.25;fill:#808080"
                 id="flowPara13883">✗ </flowPara></flowRoot>            <flowRoot
               transform="matrix(0.95131815,0,0,0.95131815,-2097.1357,3857.2837)"
               style="font-style:normal;font-variant:normal;font-weight:bold;font-stretch:normal;line-height:0.01%;font-family:Roboto;-inkscape-font-specification:'Roboto, Bold';text-align:start;letter-spacing:0px;word-spacing:0px;writing-mode:lr-tb;text-anchor:start;fill:#808080;fill-opacity:1;stroke:none;stroke-width:1px;stroke-linecap:butt;stroke-linejoin:miter;stroke-opacity:1"
               id="flowRoot13893"
               xml:space="preserve"><flowRegion
                 id="flowRegion13889"
                 style="fill:#808080"><rect
                   style="fill:#808080;fill-opacity:1"
                   y="505.03198"
                   x="714.84375"
                   height="137.5"
                   width="118.75"
                   id="rect13887" /></flowRegion><flowPara
                 id="flowPara13891"
                 style="font-size:12.5px;line-height:1.25;fill:#808080">✗ </flowPara></flowRoot>            <flowRoot
               xml:space="preserve"
               id="flowRoot13901"
               style="font-style:normal;font-variant:normal;font-weight:bold;font-stretch:normal;line-height:0.01%;font-family:Roboto;-inkscape-font-specification:'Roboto, Bold';text-align:start;letter-spacing:0px;word-spacing:0px;writing-mode:lr-tb;text-anchor:start;fill:#808080;fill-opacity:1;stroke:none;stroke-width:1px;stroke-linecap:butt;stroke-linejoin:miter;stroke-opacity:1"
               transform="matrix(0.95131815,0,0,0.95131815,-2110.5742,3857.2837)"><flowRegion
                 id="flowRegion13897"
                 style="fill:#808080"><rect
                   id="rect13895"
                   width="118.75"
                   height="137.5"
                   x="714.84375"
                   y="505.03198"
                   style="fill:#808080;fill-opacity:1" /></flowRegion><flowPara
                 style="font-size:12.5px;line-height:1.25;fill:#808080"
                 id="flowPara13899">✗ </flowPara></flowRoot>          </g>
        </g>
      </g>
      <path
         inkscape:connector-curvature="0"
         style="opacity:1;fill:#808080;fill-opacity:1;fill-rule:evenodd;stroke:none;stroke-width:7.53008461;stroke-linecap:square;stroke-linejoin:miter;stroke-miterlimit:4;stroke-dasharray:none;stroke-opacity:1;paint-order:markers stroke fill"
         d="m -298.89258,515.19336 c -1.16512,0 -2.10156,0.93644 -2.10156,2.10156 v 14.52149 c 0,1.16512 0.93644,2.10351 2.10156,2.10351 h 90.37696 c 1.16512,0 2.10351,-0.93839 2.10351,-2.10351 v -14.52149 c 0,-1.16512 -0.93839,-2.10156 -2.10351,-2.10156 z m 9.63086,3.36914 c 1.26882,-0.0219 2.54124,0.2959 3.55664,0.91016 l 0.46485,0.28125 v 1.44336 1.44531 l -0.62696,-0.58203 c -1.15172,-1.06634 -2.08613,-1.43445 -3.4414,-1.35743 -0.8811,0.0499 -1.39222,0.24374 -1.9375,0.73633 -0.70385,0.63584 -1.0625,1.69245 -1.0625,3.13086 0,2.36779 0.97977,3.6803 2.87695,3.85352 1.26435,0.11535 2.44462,-0.33118 3.55078,-1.33985 l 0.64063,-0.58398 v 1.41211 1.41211 l -0.41993,0.26953 c -0.51823,0.33168 -1.10701,0.58586 -1.76953,0.76563 -0.51383,0.13942 -2.138,0.24086 -2.62304,0.16406 h -0.004 c -2.33897,-0.3781 -3.91396,-1.80339 -4.52344,-4.09571 -0.21689,-0.81572 -0.21182,-2.90564 0.01,-3.75781 0.54819,-2.1168 2.01608,-3.55542 4.05078,-3.9707 0.41237,-0.0842 0.83487,-0.12942 1.25781,-0.13672 z m 67.04688,0.16016 2.49804,0.0351 c 2.26897,0.031 2.54876,0.0512 3.07422,0.22461 1.07846,0.35714 1.70883,0.93879 2.08203,1.91992 0.12653,0.33272 0.16797,0.67296 0.16797,1.37305 0,0.8718 -0.0178,0.96517 -0.28906,1.51563 -0.15894,0.32303 -0.43398,0.71525 -0.61133,0.87109 -0.22469,0.19717 -0.29678,0.31741 -0.24023,0.39453 0.57994,0.78998 0.96956,1.46956 1.83789,3.20508 0.56492,1.12899 1.02734,2.07295 1.02734,2.09766 0,0.0244 -0.57905,0.0449 -1.28515,0.0449 h -1.28321 l -0.88281,-1.79297 c -1.27581,-2.59041 -1.40744,-2.71916 -2.8125,-2.74414 l -0.85156,-0.0137 -0.0234,2.27539 -0.0234,2.27539 h -1.1914 -1.19336 v -5.8418 z m -57.9668,0.01 1.14844,0.0234 1.15039,0.0254 2.1582,5.65625 c 1.18629,3.11127 2.17885,5.72803 2.20703,5.81445 0.0479,0.14645 -0.034,0.15564 -1.20312,0.13282 l -1.25586,-0.0254 -0.23828,-0.66211 c -0.13151,-0.36466 -0.34949,-0.97089 -0.48438,-1.34766 l -0.24609,-0.68555 h -2.0918 -2.0918 l -0.48437,1.36914 -0.48438,1.3711 h -1.25976 c -0.69276,1.8e-4 -1.25977,-0.0133 -1.25977,-0.0293 0,-0.016 0.91851,-2.43425 2.04102,-5.37109 1.1226,-2.93684 2.11995,-5.54806 2.21679,-5.80469 z m 52.62695,0 2.10938,5.54883 c 1.16111,3.05181 2.16509,5.67794 2.23047,5.83594 l 0.11914,0.28711 h -1.26758 -1.26563 l -0.48047,-1.36914 -0.48046,-1.3711 h -2.0918 -2.0918 l -0.14062,0.375 c -0.077,0.20656 -0.29548,0.81485 -0.48438,1.34961 l -0.34179,0.97071 -1.25782,0.0254 -1.25781,0.0234 0.0547,-0.20117 c 0.0301,-0.11075 1.01922,-2.72546 2.19922,-5.8125 l 2.14648,-5.61328 1.15039,-0.0254 z m -45.04101,0.004 h 1.19336 1.19336 v 4.72851 4.73047 h 2.60742 2.60742 v 1.10352 1.10547 h -3.80078 -3.80078 v -5.83399 z m 8.57422,0 h 3.84375 3.8457 v 1.06055 1.06054 h -2.65235 -2.65039 v 1.15039 1.14844 h 2.5625 2.5625 v 1.06055 1.06054 h -2.5625 -2.5625 v 1.45899 1.45898 h 2.74219 2.74219 l -0.0234,1.08203 -0.0254,1.08204 -3.91016,0.0234 -3.9121,0.0215 v -5.83203 z m 9.27929,0 1.34961,0.002 h 1.34766 l 1.90039,3.58789 c 1.0452,1.97402 1.94863,3.65463 2.00781,3.73438 0.0855,0.11478 0.10712,-0.63347 0.10938,-3.58985 v -3.73437 h 1.15039 1.14843 v 5.83594 5.83593 l -1.34375,-0.0234 -1.3457,-0.0254 -1.94726,-3.6875 c -1.07132,-2.02816 -1.97723,-3.68796 -2.01368,-3.68946 -0.0366,0 -0.0684,1.66724 -0.0684,3.70899 v 3.71289 h -1.14843 -1.14844 l 0.002,-5.83399 z m 10.96094,0 h 2.05664 c 2.21299,0 3.18582,0.0842 4.20313,0.35937 1.72283,0.46601 2.81003,1.48056 3.34179,3.11914 0.30961,0.954 0.39247,2.80128 0.17774,3.94727 -0.40213,2.14639 -1.78925,3.5082 -4.0586,3.98633 -0.64006,0.13479 -1.34128,0.18493 -3.26757,0.22851 l -2.45313,0.0547 v -5.84766 z m 23.95313,2.10351 v 1.42383 1.42383 h 1.01953 c 0.83685,0 1.08217,-0.0325 1.35937,-0.17383 0.42336,-0.21605 0.62695,-0.62652 0.62695,-1.26367 0,-0.35554 -0.0536,-0.55966 -0.20312,-0.78125 -0.30989,-0.46037 -0.59316,-0.55738 -1.76367,-0.5957 z m -21.56641,0.0176 v 3.6543 c 0,2.00934 0.0298,3.6845 0.0664,3.72266 0.10238,0.10727 2.24205,-0.029 2.82031,-0.17969 0.96939,-0.2525 1.61737,-0.82779 1.92773,-1.70899 0.20976,-0.59563 0.30006,-1.67128 0.21289,-2.53125 -0.21745,-2.14535 -1.34338,-2.95301 -4.12109,-2.95507 z m -37.65039,1.23828 c -0.0404,10e-5 -1.14871,2.93352 -1.22461,3.24219 -0.0226,0.0921 0.23173,0.11719 1.21484,0.11719 0.68412,0 1.24386,-0.0298 1.24414,-0.0664 7.5e-4,-0.12333 -1.1874,-3.29315 -1.23437,-3.29297 z m 50.33984,0.0117 c -0.0177,0.004 -0.029,0.0412 -0.0508,0.0801 -0.0423,0.0752 -0.29424,0.73203 -0.56055,1.45898 -0.2662,0.72686 -0.52655,1.43079 -0.57812,1.56446 l -0.0937,0.24414 h 1.28906 c 0.99457,0 1.27831,-0.0262 1.2461,-0.11133 h 0.002 c -0.0225,-0.0611 -0.26491,-0.70634 -0.53516,-1.43555 -0.56254,-1.51757 -0.66565,-1.81332 -0.71875,-1.80078 z"
         transform="matrix(1.06458,0,0,1.06458,-1467.7239,4054.0416)"
         id="rect9292-2" />
    </g>
  </g>
</svg>
