<?xml version="1.0" encoding="UTF-8" standalone="no"?>
<!-- Created with Inkscape (http://www.inkscape.org/) -->

<svg
   xmlns:dc="http://purl.org/dc/elements/1.1/"
   xmlns:cc="http://creativecommons.org/ns#"
   xmlns:rdf="http://www.w3.org/1999/02/22-rdf-syntax-ns#"
   xmlns:svg="http://www.w3.org/2000/svg"
   xmlns="http://www.w3.org/2000/svg"
   xmlns:sodipodi="http://sodipodi.sourceforge.net/DTD/sodipodi-0.dtd"
   xmlns:inkscape="http://www.inkscape.org/namespaces/inkscape"
   width="5037.5859"
   height="5080.6494"
   viewBox="0 0 5362.9131 5408.7574"
   version="1.1"
   id="svg8"
   inkscape:version="0.92.2 2405546, 2018-03-11"
   sodipodi:docname="ProgressCalendar4.svg">
  <defs
     id="defs2" />
  <sodipodi:namedview
     id="base"
     pagecolor="#ffffff"
     bordercolor="#666666"
     borderopacity="1.0"
     inkscape:pageopacity="0.0"
     inkscape:pageshadow="2"
     inkscape:zoom="0.11313708"
     inkscape:cx="3440.2657"
     inkscape:cy="3393.875"
     inkscape:document-units="px"
     inkscape:current-layer="layer3"
     showgrid="false"
     inkscape:window-width="1596"
     inkscape:window-height="579"
     inkscape:window-x="0"
     inkscape:window-y="36"
     inkscape:window-maximized="0"
     inkscape:snap-page="false"
     inkscape:snap-grids="true"
     units="px"
     scale-x="1"
     inkscape:pagecheckerboard="true"
     showguides="true"
     inkscape:guide-bbox="true"
     borderlayer="true"
     inkscape:showpageshadow="false"
     inkscape:snap-global="false"
     showborder="false"
     fit-margin-top="0"
     fit-margin-left="0"
     fit-margin-right="0"
     fit-margin-bottom="0" />
  <metadata
     id="metadata5">
    <rdf:RDF>
      <cc:Work
         rdf:about="">
        <dc:format>image/svg+xml</dc:format>
        <dc:type
           rdf:resource="http://purl.org/dc/dcmitype/StillImage" />
        <dc:title></dc:title>
      </cc:Work>
    </rdf:RDF>
  </metadata>
  <g
     inkscape:groupmode="layer"
     id="layer3"
     inkscape:label="PROGRESS shirt"
     transform="translate(4924.7534,7390.433)">
    <g
       transform="matrix(0.52677502,0,0,0.52677502,-3439.5262,-5005.8581)"
       id="layer1"
       inkscape:label="Layer 1">
      <g
         style="fill:#ffffff"
         transform="matrix(4.9925997,0,0,4.9925997,2689.7292,-22166.033)"
         id="g2978">
        <path
           style="fill:#ffffff;stroke:#000000;stroke-width:1.60887659;stroke-opacity:1"
           d="m -237.1354,5587.4765 c -36.2305,-1.1541 -49.0174,-1.7063 -111.4345,-4.8127 -44.2836,-2.204 -108.2212,-6.2003 -115.0346,-7.1902 -3.0971,-0.4499 -23.369,-2.2825 -45.0486,-4.0726 -62.71123,-5.1776 -118.67201,-10.9107 -156.86545,-16.0707 -19.46741,-2.6299 -36.14042,-4.7822 -37.05114,-4.7829 -1.01876,-6e-4 -1.4722,-4.1795 -1.17852,-10.861 0.48305,-10.9898 2.06824,-75.629 9.24255,-376.8793 3.91199,-164.2662 4.90258,-200.9697 6.4481,-238.9182 0.88987,-21.8501 1.56933,-47.7466 4.89663,-186.6297 1.29318,-53.9778 3.4011,-141.9431 4.68426,-195.4785 1.28316,-53.5354 2.80846,-114.9795 3.38953,-136.5425 0.70022,-25.9835 0.51221,-39.0057 -0.55749,-38.6131 -1.45729,0.5349 -26.09113,34.3663 -67.50815,92.7137 -8.60476,12.1222 -15.87334,20.8782 -16.83707,20.2826 -0.9327,-0.5764 -32.54782,-23.5307 -70.25582,-51.0095 -37.70799,-27.4788 -85.57386,-62.3532 -106.36859,-77.4988 -20.79473,-15.1456 -56.99445,-41.5507 -80.44384,-58.6781 -23.4494,-17.1274 -52.6064,-38.346 -64.7935,-47.1523 -15.0168,-10.8511 -21.699,-16.5973 -20.7332,-17.8289 1.4454,-1.8434 63.8737,-85.7168 113.72454,-152.7909 15.01964,-20.2088 43.59829,-58.5983 63.50814,-85.3099 19.90985,-26.7117 60.3925,-81.1286 89.96143,-120.9266 29.56895,-39.798 57.89767,-77.4443 62.95273,-83.6584 27.78918,-34.1609 60.91075,-65.8343 92.67969,-88.6274 16.79943,-12.053 29.56805,-18.5307 56.87495,-28.8532 19.0162,-7.1885 36.87489,-13.9535 89.29262,-33.8248 51.9582,-19.697 104.5049,-39.4414 144.8805,-54.4389 14.2605,-5.297 29.7033,-12.5672 41.8308,-19.6932 10.5737,-6.213 23.3879,-13.6428 28.476,-16.5107 5.0881,-2.8678 9.251,-6.09 9.251,-7.1604 0,-1.9534 6.0714,-2.4277 8.9301,-0.6976 8.2494,4.9927 121.6921,18.8838 181.1824,22.1858 36.6495,2.0342 103.2358,2.01 136.4895,-0.05 51.1001,-3.1651 141.353,-16.1199 147.5581,-21.1803 2.0657,-1.6846 5.9867,0.2985 36.6582,18.5405 8.8489,5.2629 19.7088,10.8759 24.1332,12.4733 4.4244,1.5974 19.6283,7.334 33.7864,12.748 14.1581,5.4141 33.3439,12.6249 42.6352,16.0241 9.2912,3.3992 22.6851,8.4926 29.7642,11.3188 7.079,2.8261 19.3869,7.5527 27.3509,10.5035 20.2993,7.5214 61.577,23.0088 90.0971,33.8043 13.2732,5.0243 34.269,12.9325 46.6574,17.5738 31.0111,11.6182 32.5112,12.3295 43.4396,20.5984 28.2135,21.3473 68.7536,70.3634 94.1097,113.7857 3.8695,6.6265 73.1234,110.9888 153.8977,231.9161 80.7743,120.9273 147.0679,220.6119 147.3192,221.5211 0.2515,0.9093 -40.8106,31.9685 -91.2489,69.0204 -50.4383,37.0519 -97.8599,71.8905 -105.3814,77.419 -7.5215,5.5284 -24.1734,17.7642 -37.0042,27.1905 -12.8307,9.4264 -29.8446,21.9418 -37.8086,27.8121 -49.6526,36.5997 -66.1735,48.8049 -67.7948,50.0851 -1.9121,1.51 -13.3612,-13.3379 -54.4798,-70.6534 -11.5034,-16.0348 -21.7528,-29.1994 -22.7762,-29.2546 -1.3278,-0.072 -1.7023,4.623 -1.3079,16.3906 1.8831,56.1795 2.8856,99.4403 6.4409,277.9335 8.4102,422.2541 8.5011,426.6549 11.2415,544.6047 0.4523,19.4674 1.1661,44.4452 1.5864,55.5062 0.42,11.061 1.4801,59.9307 2.3557,108.5992 0.8754,48.6685 1.9847,99.7638 2.4651,113.545 l 0.8735,25.0568 -15.7238,1.9876 c -8.6482,1.0932 -25.1358,3.3484 -36.6392,5.0117 -21.0551,3.0443 -81.6272,9.6535 -117.448,12.8151 -16.7227,1.4759 -30.5655,2.8009 -59.7313,5.7172 -36.0232,3.6019 -147.7218,9.7953 -216.9954,12.0318 -55.4615,1.7907 -275.6856,1.7461 -332.6155,-0.068 z"
           id="path2953"
           inkscape:connector-curvature="0" />
        <path
           style="fill:#ffffff;stroke:#000000;stroke-width:1.60887659;stroke-opacity:1"
           d="m 41.5827,5581.1191 c 75.7436,-1.7543 93.0067,-2.4319 143.9945,-5.6518 7.079,-0.4471 36.4008,-2.2584 65.1595,-4.0251 28.7587,-1.7668 55.9084,-3.5672 60.3328,-4.0008 4.4244,-0.4336 25.0582,-2.2516 45.853,-4.04 20.7947,-1.7883 39.6185,-3.6026 41.8307,-4.0315 2.2123,-0.429 23.2081,-2.9198 46.6575,-5.5354 23.4493,-2.6154 52.5901,-5.9955 64.7573,-7.5113 l 22.122,-2.7559 v -21.2635 c 0,-21.8849 -2.4257,-149.1236 -3.9857,-209.0668 -0.4836,-18.5825 -2.3222,-106.5478 -4.086,-195.4785 -1.7638,-88.9306 -3.9131,-185.2219 -4.7763,-213.9806 -0.8632,-28.7586 -3.3735,-147.1317 -5.5786,-263.0513 -2.2051,-115.9195 -4.8109,-221.2608 -5.7904,-234.0916 -3.3357,-43.6918 -3.9045,-79.577 -3.9026,-246.1581 0,-164.8642 1.0435,-215.5684 6.4607,-314.5353 2.679,-48.9412 6.9012,-112.9749 8.0094,-121.4702 1.8819,-14.4263 4.0345,-35.8886 3.6354,-36.2459 -0.4923,-0.4408 -37.3818,-14.6243 -64.7987,-24.9142 -35.9503,-13.4926 -89.0308,-33.4703 -129.5145,-48.7448 -12.8308,-4.8411 -34.9126,-13.1716 -49.0707,-18.5123 -14.1581,-5.3407 -32.5375,-12.2974 -40.8431,-15.4593 -8.3055,-3.162 -16.0252,-5.749 -17.1547,-5.749 -1.1296,0 -4.0274,5.2489 -6.4396,11.6643 -8.8293,23.4821 -12.0136,30.6873 -20.8052,47.0776 -41.7675,77.8671 -115.4167,126.0318 -215.6173,141.0079 -9.0227,1.3485 -28.7291,2.1545 -52.2885,2.1384 -35.3012,-0.024 -39.1682,-0.3223 -58.3094,-4.4979 -40.4515,-8.8246 -91.997,-29.1901 -120.0509,-47.432 -51.7422,-33.6449 -91.6685,-81.7129 -107.8325,-129.8211 -2.6709,-7.9495 -5.4583,-14.6543 -6.1942,-14.8996 -0.7359,-0.2453 -6.0203,1.4279 -11.7432,3.7183 -5.7228,2.2903 -19.8171,7.6767 -31.3206,11.9696 -11.5034,4.293 -31.4133,11.772 -44.2441,16.6202 -12.8308,4.8481 -31.2926,11.8169 -41.0263,15.4861 -9.7337,3.6693 -26.0236,9.8601 -36.1998,13.7573 -10.1761,3.8972 -31.1719,11.8732 -46.65738,17.7244 -54.01383,20.4093 -70.0449,26.8765 -78.58216,31.7013 l -8.59604,4.858 1.04608,13.0697 c 2.06813,25.8392 2.49606,33.0825 4.85932,82.2514 1.31846,27.4313 2.80311,57.1151 3.29923,65.9639 0.49609,8.8488 1.18318,21.1567 1.52684,27.3509 0.34365,6.1942 1.43104,49.6338 2.41643,96.5326 2.75628,131.1829 -0.65903,234.8424 -11.18473,339.4729 -2.49688,24.8202 -3.6295,53.8818 -4.95355,127.1013 -0.94409,52.2081 -2.74243,127.1415 -3.99629,166.5187 -1.25388,39.3773 -3.36622,117.2067 -4.69411,172.9543 -1.32789,55.7475 -2.81061,114.0291 -3.29496,129.5145 -0.48434,15.4855 -2.68351,104.472 -4.88705,197.748 -2.20355,93.2759 -5.05296,201.8751 -6.33207,241.3315 -3.88856,119.9509 -4.85079,188.3824 -2.6489,188.3824 1.0518,0 13.65014,1.4428 27.9963,3.2063 14.34615,1.7635 43.45978,5.0006 64.69695,7.1935 21.23717,2.1929 44.76699,4.7048 52.28849,5.5821 7.5215,0.8773 28.8793,2.7206 47.4619,4.0961 18.5825,1.3756 37.0443,2.8477 41.0263,3.2716 7.1836,0.7649 101.9914,6.3972 135.9501,8.0767 9.7337,0.4814 20.2316,1.1855 23.3287,1.5645 16.2384,1.9878 139.9386,4.964 221.2205,5.3227 30.086,0.1335 84.7476,-0.4546 121.4702,-1.3052 z"
           id="path2951"
           inkscape:connector-curvature="0" />
        <path
           style="fill:#ffffff;stroke:#000000;stroke-width:1.60887659;stroke-opacity:1"
           d="m 637.3217,4469.8781 c 49.1905,-36.4601 77.9812,-57.7746 102.5134,-75.8937 10.1761,-7.5159 33.344,-24.6898 51.484,-38.1642 35.3607,-26.2658 58.1064,-43.0833 103.5118,-76.5334 15.7845,-11.6284 29.0526,-22.0637 29.4846,-23.1897 0.4321,-1.1259 -4.3709,-9.7327 -10.6733,-19.1262 l -11.4588,-17.0791 -4.3504,3.1633 c -2.3925,1.7398 -43.8079,32.902 -92.034,69.2493 -48.2261,36.3473 -120.4445,90.7553 -160.4854,120.9066 -40.0409,30.1514 -72.8017,55.3777 -72.8017,56.0585 0,2.5231 21.0235,30.6804 22.9074,30.6804 0.7318,0 19.5879,-13.5323 41.9024,-30.0718 z"
           id="path2949"
           inkscape:connector-curvature="0" />
        <path
           style="fill:#ffffff;stroke:#000000;stroke-width:1.60887659;stroke-opacity:1"
           d="m -746.84174,4452.654 c 6.59541,-9.1353 12.15643,-17.2538 12.35781,-18.0411 0.2014,-0.7873 -13.52079,-11.5445 -30.49373,-23.905 -16.97294,-12.3605 -44.61579,-32.682 -61.42855,-45.1588 -16.81276,-12.4769 -47.58253,-35.2562 -68.37726,-50.6206 -20.79473,-15.3645 -46.13453,-34.0879 -56.31068,-41.6075 -10.17614,-7.5197 -25.01803,-18.4849 -32.98197,-24.3671 -7.96394,-5.8823 -28.59778,-21.1689 -45.85298,-33.9702 -17.2552,-12.8014 -32.1821,-23.7698 -33.1709,-24.3742 -1.6734,-1.023 -29.6991,34.182 -29.4847,37.0376 0.05,0.6639 17.1345,13.515 37.9658,28.558 20.8313,15.043 48.8453,35.3477 62.25329,45.1215 133.27166,97.1487 194.74523,141.9676 211.00794,153.841 10.61859,7.7526 20.03052,14.0957 20.9154,14.0959 0.88488,1e-4 7.00513,-7.4741 13.60053,-16.6095 z"
           id="path2947"
           inkscape:connector-curvature="0" />
        <path
           style="fill:#ffffff;stroke:#000000;stroke-width:1.60887659;stroke-opacity:1"
           d="m 608.5746,4433.4005 c 20.4276,-15.3649 68.273,-51.4109 106.3229,-80.1021 38.0499,-28.6912 94.5215,-71.2536 125.4924,-94.5833 30.9708,-23.3295 56.3107,-42.8502 56.3107,-43.3791 0,-0.5289 -57.9899,-87.841 -128.8666,-194.0269 -70.8764,-106.1858 -135.402,-203.6696 -143.3901,-216.6305 -28.8683,-46.8398 -56.2909,-79.7908 -90.0221,-108.1701 -3.0974,-2.6059 -5.5137,-3.6417 -6.1382,-2.6313 -1.7893,2.8951 -3.7405,26.0687 -11.2459,133.5623 -2.3985,34.3525 -4.9912,94.7534 -6.4915,151.2344 -0.4819,18.1401 -1.3096,39.8599 -1.8394,48.2663 -1.185,18.8014 -0.9269,162.7752 0.4736,264.3905 0.8817,63.9647 1.4601,76.9682 3.8285,86.0749 2.4561,9.4439 5.9417,15.0935 29.1353,47.2216 14.49,20.0719 27.0077,36.5428 27.8173,36.602 0.8095,0.059 18.1853,-12.4637 38.6131,-27.8287 z"
           id="path2945"
           inkscape:connector-curvature="0" />
        <path
           style="fill:#ffffff;stroke:#000000;stroke-width:1.60887659;stroke-opacity:1"
           d="m -702.08322,4386.9263 28.88392,-40.6241 2.60693,-13.6755 c 2.28673,-11.9956 5.30279,-41.3546 8.26406,-80.4438 7.3748,-97.3487 6.60991,-325.9438 -1.52621,-456.1165 -0.44246,-7.0791 -1.61572,-27.7129 -2.60724,-45.853 -0.99153,-18.1401 -2.00737,-34.7919 -2.25743,-37.0042 -0.25006,-2.2122 -0.53722,-5.6511 -0.63811,-7.6421 -0.10088,-1.991 -1.03361,-3.62 -2.0727,-3.62 -4.18593,0 -33.93125,24.645 -55.34241,45.853 -25.44192,25.2005 -36.52882,38.2458 -64.26574,75.6172 -10.50809,14.1581 -33.94034,45.6519 -52.07166,69.9861 -18.13131,24.3343 -43.46148,58.362 -56.28928,75.6172 -29.23012,39.3187 -61.71435,82.9332 -116.57121,156.5127 -23.6052,31.6618 -42.9186,58.2104 -42.9186,58.997 0,0.7866 6.697,6.4043 14.8821,12.4838 48.68206,36.1582 89.02424,66.0262 154.04996,114.0533 96.40725,71.2051 135.46516,100.1169 147.21221,108.971 5.3093,4.0018 10.13121,7.3291 10.71538,7.394 0.58416,0.065 14.05989,-18.1628 29.94603,-40.5061 z"
           id="path2943"
           inkscape:connector-curvature="0" />
        <path
           style="fill:#ffffff;stroke:#000000;stroke-width:1.60887659;stroke-opacity:1"
           d="m -44.354,3768.7936 c 19.4438,-1.0774 60.1547,-9.2794 81.1101,-16.3413 19.1169,-6.4423 50.7516,-21.5044 65.1595,-31.0241 28.623,-18.9119 54.3201,-44.7548 72.9645,-73.3785 16.2586,-24.9608 37.8251,-73.1846 34.8688,-77.9681 -0.5516,-0.8925 -6.2159,-4.6122 -12.5873,-8.266 -6.3714,-3.6538 -14.3804,-8.4346 -17.7976,-10.6239 -3.4173,-2.1893 -6.7366,-3.3737 -7.3763,-2.632 -0.6396,0.7417 -2.4757,4.9685 -4.08,9.393 -19.1222,52.7343 -64.1066,102.3669 -116.6717,128.7272 -20.6758,10.3684 -31.3725,14.2248 -57.4629,20.7163 -27.7583,6.9065 -43.9627,9.0341 -68.6875,9.0187 -27.4561,-0.017 -50.0459,-4.029 -83.0036,-14.741 -67.2127,-21.8457 -120.1244,-74.6305 -144.8732,-144.5257 -2.0366,-5.7517 -3.836,-10.6563 -3.9986,-10.8991 -0.1627,-0.2428 -4.9238,2.3187 -10.5802,5.6922 -5.6565,3.3735 -17.0114,10.0881 -25.2333,14.9213 -17.5975,10.3448 -17.266,8.395 -5.9758,35.1428 21.5642,51.0885 63.2624,95.4582 117.88,125.4325 28.9056,15.8634 57.6399,26.0131 108.1764,38.2107 12.547,3.0284 39.4064,5.1931 54.7018,4.4088 4.8669,-0.2496 15.427,-0.8183 23.4669,-1.2638 z"
           id="path2941"
           inkscape:connector-curvature="0" />
        <path
           style="fill:#ffffff;stroke:#000000;stroke-width:1.60887659;stroke-opacity:1"
           d="m -42.1821,3705.9829 c 58.4741,-7.7123 107.4326,-29.9905 144.6846,-65.8375 13.6024,-13.0895 31.5944,-34.4589 30.1927,-35.8606 -0.5215,-0.5216 -5.8504,0.5496 -11.8418,2.3804 -18.1936,5.5595 -68.8442,16.1059 -93.7506,19.5207 -46.4679,6.371 -121.9461,7.6089 -168.1276,2.7572 -36.2746,-3.8108 -98.0224,-16.6913 -119.9399,-25.0193 -4.7609,-1.809 -9.2008,-2.7444 -9.8665,-2.0788 -2.0088,2.0089 18.1748,27.6436 32.6123,41.4201 16.4587,15.7053 29.5946,25.1879 49.7323,35.9014 25.8363,13.7452 59.2306,24.0748 90.9015,28.1178 11.936,1.5238 38.7604,0.8937 55.403,-1.3014 z"
           id="path2939"
           inkscape:connector-curvature="0" />
        <path
           style="fill:#ffffff;stroke:#000000;stroke-width:1.60887659;stroke-opacity:1"
           d="m -32.4256,3623.1057 c 54.1648,-3.6765 91.5831,-9.1839 130.319,-19.1809 45.8017,-11.8206 43.1228,-10.5663 50.157,-23.4833 6.4993,-11.9348 15.0061,-32.6748 13.8686,-33.8123 -0.3748,-0.3747 -7.8749,0.7835 -16.6669,2.5739 -95.6707,19.482 -219.4383,22.5512 -352.3454,8.7376 -22.1454,-2.3017 -79.8204,-10.9902 -86.3725,-13.0117 -1.9684,-0.6072 -2.8138,0.011 -2.8097,2.0553 0.01,3.5205 7.67,24.0587 12.9704,34.7631 l 3.8157,7.7061 17.7483,5.4437 c 44.3008,13.5879 66.3563,18.4909 105.432,23.4377 47.3703,5.9968 84.663,7.433 123.8835,4.7708 z"
           id="path2888"
           inkscape:connector-curvature="0" />
      </g>
    </g>
    <path
       style="opacity:1;fill:#808080;fill-opacity:1;fill-rule:evenodd;stroke:none;stroke-width:168.94075012;stroke-linecap:square;stroke-linejoin:miter;stroke-miterlimit:4;stroke-dasharray:none;stroke-opacity:1;paint-order:markers stroke fill"
       d="m -3257.0964,-6475.7394 c -26.1407,0 -47.1941,21.0536 -47.1941,47.1943 v 325.7963 c 0,26.1408 21.0534,47.1499 47.1941,47.1499 h 2027.6447 c 26.1408,0 47.1499,-21.0091 47.1499,-47.1499 v -325.7963 c 0,-26.1407 -21.0091,-47.1943 -47.1499,-47.1943 z m 1285.9188,78.7891 53.6346,0.7791 c 66.2728,0.9914 79.8636,2.9736 106.9189,15.6435 39.3694,18.4402 58.0286,49.8054 61.74,103.8066 1.1379,16.4316 -0.9914,40.583 -4.9505,56.3086 -1.5166,6.0421 -5.7048,16.9945 -9.2896,24.32 -11.7344,23.987 -34.126,42.5663 -62.2245,51.662 -23.8541,7.7217 -48.0349,10.0355 -105.3848,10.0355 h -40.4441 v -131.2831 z m -514.6149,0 52.9348,0.6544 c 58.9768,0.7156 65.767,1.5384 84.1757,10.1663 26.107,12.2337 39.5904,36.187 39.4387,70.0662 0,22.7142 -7.2918,40.6822 -21.4286,53.4596 l -6.8345,6.1348 3.7238,4.5583 c 9.6628,11.7722 19.1737,28.3725 40.7076,71.118 l 23.3125,46.3174 h -29.4473 -29.4895 l -20.3327,-40.4903 c -11.1778,-22.2716 -22.929,-43.8202 -26.1154,-47.8498 -8.4676,-10.7141 -14.2589,-12.8364 -37.2912,-13.715 l -18.6658,-0.696 v 51.3563 51.4007 h -27.3439 -27.3442 v -131.2391 z m 347.7495,0.2189 h 30.2799 c 16.6445,0 30.0541,0.4858 29.797,1.0964 -0.2517,0.6105 -21.4621,32.1723 -47.1055,70.1106 l -46.6231,68.9725 v 60.9956 61.0401 h -27.344 -27.342 v -61.5669 -61.5648 l -28.2208,-41.8475 c -15.5298,-23.0048 -36.7286,-54.2645 -47.0613,-69.4973 l -18.7986,-27.6939 h 30.5855 30.5432 l 30.1469,44.8276 c 16.5815,24.657 30.4631,44.7936 30.8487,44.7831 0.3786,-0.013 14.1073,-20.1703 30.4969,-44.8274 z m -1023.6156,0 h 86.2367 86.2346 v 24.539 24.4949 l -59.2425,0.3589 -59.2445,0.4004 -0.4004,24.1892 -0.3589,24.1871 h 57.4911 57.5333 v 24.4949 24.539 l -57.1392,0.3589 -57.1412,0.3589 v 32.2505 32.2521 l 61.3478,0.3589 61.3455,0.4005 v 24.4949 24.539 h -88.3378 -88.3398 v -131.064 z m 468.3397,0 h 86.2367 86.2344 v 24.539 24.5391 h -59.5942 -59.5922 v 24.5371 24.539 h 57.4889 57.4911 v 24.5391 24.4948 l -57.1392,0.3589 -57.1412,0.4005 -0.4004,32.5999 -0.3589,32.6023 h 60.9958 61.0401 v 24.5391 24.5391 h -87.6382 -87.638 v -131.1083 z m -246.2213,0.3151 c 17.654,-0.232 28.2861,0.232 28.8341,1.0526 0.4858,0.7791 15.9702,41.4998 34.3977,90.4854 18.4254,48.9833 33.8372,89.0162 34.267,88.9974 0.4421,-0.017 16.0103,-40.5599 34.617,-90.0934 l 33.8287,-90.0468 28.2187,-0.4005 c 15.5212,-0.2188 28.2038,0.2189 28.1764,0.696 0,0.5908 -22.3136,59.4637 -49.5164,130.8007 l -49.4723,129.7049 -25.8521,0.3589 -25.8541,0.3589 -49.8221,-130.7566 -49.822,-130.7564 z m 1401.9527,0 c 22.5644,-0.2954 30.109,0.013 31.4177,1.4115 0.9476,0.9914 14.4508,20.7247 30.0163,43.8625 15.5656,23.1354 28.8235,42.5828 29.4474,43.2488 0.6325,0.674 14.4255,-18.7435 30.7159,-43.1604 16.2907,-24.4189 30.4211,-44.6801 31.3757,-45.0466 0.9476,-0.3589 14.7732,-0.5274 30.7181,-0.3173 l 29.007,0.3589 -46.9309,69.4088 -46.8864,69.4108 v 61.3455 61.3478 h -27.342 -27.3439 v -61.3035 -61.3456 l -46.8864,-69.4108 -46.9309,-69.4086 z m -121.5976,0.4005 h 25.9405 25.8963 l 49.4281,129.7048 c 27.1881,71.337 49.4659,130.2064 49.4722,130.8008 0.01,0.5909 -12.6952,0.8644 -28.2186,0.6543 l -28.2209,-0.3589 -10.6909,-30.499 -10.6911,-30.4968 -46.8,0.3589 -46.798,0.3173 -10.7795,30.1469 -10.7798,30.1471 -28.834,0.4005 -28.7897,0.4005 49.9548,-130.7564 z m -258.71,48.0244 v 82.38 82.3379 l 27.6941,-0.6544 c 19.8963,-0.4639 30.0646,-1.348 36.1067,-3.0242 25.7236,-7.1673 39.6158,-21.0955 46.2732,-46.4038 3.3824,-12.8491 4.2654,-41.0529 1.7069,-55.3878 -5.4478,-30.6087 -17.5592,-45.6368 -43.776,-54.2478 -10.2232,-3.3593 -13.7341,-3.7471 -39.6114,-4.3393 z m -513.2093,0.2188 v 31.8119 31.812 l 22.7857,-0.569 c 18.6785,-0.442 23.6709,-1.011 27.6942,-3.1104 11.6457,-6.1138 15.4242,-13.083 15.4242,-28.3957 0,-14.2801 -3.3277,-21.4812 -12.4022,-26.8172 -6.2951,-3.7008 -7.3571,-3.8398 -30.0163,-4.293 z m 797.8156,26.8616 c -0.5274,-0.013 -22.0333,57.4406 -27.6939,73.965 -0.4639,1.3699 5.6775,1.7485 27.7381,1.7485 22.0714,0 28.2187,-0.3786 27.7383,-1.7485 -8.1853,-23.2199 -27.2494,-73.9545 -27.7825,-73.965 z"
       id="path17276"
       inkscape:connector-curvature="0" />
    <rect
       id="rect17278"
       style="fill:none;fill-opacity:0.99215686;stroke:#808080;stroke-width:71.83827972;stroke-linejoin:round;stroke-miterlimit:4;stroke-dasharray:none;stroke-opacity:1"
       height="1421.9597"
       width="2050.1536"
       sodipodi:stroke-cmyk="(0.0000000 0.0000000 0.0000000 0.50000000)"
       y="-6089.9507"
       x="-3268.3738"
       ry="0" />
    <g
       id="g17292"
       transform="matrix(21.074451,0,0,21.285851,31111.806,-94805.114)"
       style="stroke:#808080">
      <path
         sodipodi:stroke-cmyk="(0.0000000 0.0000000 0.0000000 0.50000000)"
         d="M -1618.2383,4169.3963 V 4233.74"
         style="fill:#666666;stroke:#808080;stroke-width:1.71385872;stroke-opacity:1"
         id="path17280"
         inkscape:connector-curvature="0" />
      <path
         sodipodi:stroke-cmyk="(0.0000000 0.0000000 0.0000000 0.50000000)"
         d="M -1604.4432,4169.3963 V 4233.74"
         style="fill:#666666;stroke:#808080;stroke-width:1.71385872;stroke-opacity:1"
         id="path17282"
         inkscape:connector-curvature="0" />
      <path
         sodipodi:stroke-cmyk="(0.0000000 0.0000000 0.0000000 0.50000000)"
         d="M -1590.6481,4169.3963 V 4233.74"
         style="fill:#666666;fill-opacity:1;stroke:#808080;stroke-width:1.71385872;stroke-opacity:1"
         id="path17284"
         inkscape:connector-curvature="0" />
      <path
         inkscape:connector-curvature="0"
         id="path17286"
         style="fill:#666666;fill-opacity:1;stroke:#808080;stroke-width:1.71385872;stroke-opacity:1"
         d="m -1576.853,4169.0227 v 64.3437"
         sodipodi:stroke-cmyk="(0.0000000 0.0000000 0.0000000 0.50000000)" />
      <path
         sodipodi:stroke-cmyk="(0.0000000 0.0000000 0.0000000 0.50000000)"
         d="m -1563.0579,4167.7149 v 66.0322"
         style="fill:#666666;fill-opacity:1;stroke:#808080;stroke-width:1.73619962;stroke-opacity:1"
         id="path17288"
         inkscape:connector-curvature="0" />
      <path
         inkscape:connector-curvature="0"
         id="path17290"
         style="fill:#666666;fill-opacity:1;stroke:#808080;stroke-width:1.7196182;stroke-opacity:1"
         d="m -1549.2627,4168.2792 v 64.7769"
         sodipodi:stroke-cmyk="(0.0000000 0.0000000 0.0000000 0.50000000)" />
    </g>
    <g
       id="g17302"
       transform="matrix(21.074451,0,0,21.074451,31111.806,-93910.099)"
       style="stroke:#808080">
      <path
         sodipodi:stroke-cmyk="(0.0000000 0.0000000 0.0000000 0.50000000)"
         d="m -1630.9545,4181.5481 h 95.6923"
         style="fill:#666666;stroke:#808080;stroke-width:2.03383207;stroke-opacity:1"
         id="path17294"
         inkscape:connector-curvature="0" />
      <path
         sodipodi:stroke-cmyk="(0.0000000 0.0000000 0.0000000 0.50000000)"
         d="m -1631.9175,4207.7517 h 96.7797"
         style="fill:#666666;stroke:#808080;stroke-width:2.01438737;stroke-opacity:1"
         id="path17296"
         inkscape:connector-curvature="0" />
      <path
         sodipodi:stroke-cmyk="(0.0000000 0.0000000 0.0000000 0.50000000)"
         d="m -1630.9545,4194.6499 h 96.7394"
         style="fill:#666666;stroke:#808080;stroke-width:2.04492903;stroke-opacity:1"
         id="path17298"
         inkscape:connector-curvature="0" />
      <path
         inkscape:connector-curvature="0"
         id="path17300"
         style="fill:#666666;stroke:#808080;stroke-width:2.01438737;stroke-opacity:1"
         d="m -1631.9175,4220.8535 h 96.7797"
         sodipodi:stroke-cmyk="(0.0000000 0.0000000 0.0000000 0.50000000)" />
    </g>
    <g
       transform="translate(0.04399832,14.308822)"
       id="g38863"
       style="stroke:none;fill:#808080">
      <path
         transform="matrix(1.06458,0,0,1.06458,-4924.7534,-7390.433)"
         inkscape:connector-curvature="0"
         id="path38812"
         d="m 1618.4188,1450.9428 c -10.0658,-10.0658 2.2915,-36.6508 37.8627,-81.4562 l 12.6243,-15.9015 -9.039,-22.932 c -11.1945,-28.4006 -11.4263,-38.2217 -0.9209,-39.0131 5.5053,-0.4147 11.163,5.6561 17.5793,18.8627 l 9.4613,19.4743 20.5905,-22.0129 c 13.4559,-14.3855 24.2092,-22.0129 31.0342,-22.0129 12.884,0 13.2659,4.915 1.2284,15.8087 -5.0685,4.5869 -16.1512,17.7884 -24.6284,29.3365 l -15.4129,20.9967 13.6463,26.8541 c 12.2902,24.1855 13.0152,27.755 7.2958,35.9206 -6.1428,8.7701 -6.8811,8.3279 -22.5781,-13.5212 -8.9252,-12.4232 -16.8527,-22.5877 -17.6167,-22.5877 -0.7639,0 -12.522,16.9043 -26.1289,37.5651 -23.8674,36.2402 -28.6478,40.9688 -34.9979,34.6188 z"
         style="opacity:1;fill:#808080;fill-opacity:1;fill-rule:evenodd;stroke:none;stroke-width:88.38835144;stroke-linecap:square;stroke-linejoin:round;stroke-miterlimit:4;stroke-dasharray:none;stroke-opacity:1;paint-order:markers stroke fill" />
      <path
         transform="matrix(1.06458,0,0,1.06458,-4924.7534,-7390.433)"
         inkscape:connector-curvature="0"
         id="path38814"
         d="m 1888.0032,1450.9428 c -8.9099,-8.91 -1.2444,-29.5196 23.2833,-62.6001 l 26.2296,-35.3758 -8.5519,-22.5067 c -4.7035,-12.3787 -8.5519,-26.0397 -8.5519,-30.3577 0,-11.6672 16.6005,-11.2571 20.3186,0.5019 1.6789,5.3095 5.8271,13.8984 9.2183,19.0866 6.0582,9.2683 6.5325,9.0486 27.1664,-12.5817 15.7353,-16.4952 23.6165,-21.6303 31.4343,-20.4816 9.9953,1.4688 9.5513,2.5542 -10.5707,25.84 -31.8747,36.8865 -32.4818,39.437 -16.2384,68.2188 11.8909,21.0695 13.0869,25.8533 8.3567,33.4275 -3.036,4.8615 -6.6339,8.8391 -7.9951,8.8391 -1.3613,0 -8.195,-9.0492 -15.1861,-20.1093 -6.991,-11.0602 -14.326,-21.1075 -16.2999,-22.3275 -1.974,-1.2199 -14.561,14.7899 -27.9711,35.5773 -23.5009,36.4294 -28.2671,41.2241 -34.6421,34.8492 z"
         style="opacity:1;fill:#808080;fill-opacity:1;fill-rule:evenodd;stroke:none;stroke-width:88.38835144;stroke-linecap:square;stroke-linejoin:round;stroke-miterlimit:4;stroke-dasharray:none;stroke-opacity:1;paint-order:markers stroke fill" />
      <path
         transform="matrix(1.06458,0,0,1.06458,-4924.7534,-7390.433)"
         inkscape:connector-curvature="0"
         id="path38816"
         d="m 1617.0669,1707.9957 c -4.4779,-11.6693 1.9812,-25.7116 27.1495,-59.024 l 24.5676,-32.5173 -8.9781,-23.996 c -11.2509,-30.0709 -11.2701,-36.9228 -0.1034,-36.9228 6.2285,0 10.9835,5.2708 15.9478,17.6777 3.8902,9.7227 8.6608,17.6777 10.6012,17.6777 1.9404,0 11.6452,-9.6951 21.5663,-21.5447 12.7872,-15.273 21.2692,-21.5446 29.1377,-21.5446 6.1047,0 11.0995,1.2794 11.0995,2.8431 0,1.5637 -8.2128,12.7504 -18.2507,24.8592 -33.2331,40.0895 -32.6033,37.7173 -17.7995,67.0433 10.9593,21.7103 12.1747,27.1412 7.5039,33.529 -3.0656,4.1923 -6.6634,7.6224 -7.9953,7.6224 -1.3318,0 -8.0732,-8.9457 -14.9807,-19.8794 -6.9076,-10.9337 -14.1232,-19.8831 -16.0347,-19.8874 -1.9116,0 -13.7595,15.902 -26.3287,35.3474 -22.3693,34.6069 -31.9859,42.0499 -37.1024,28.7164 z"
         style="opacity:1;fill:#808080;fill-opacity:1;fill-rule:evenodd;stroke:none;stroke-width:88.38835144;stroke-linecap:square;stroke-linejoin:round;stroke-miterlimit:4;stroke-dasharray:none;stroke-opacity:1;paint-order:markers stroke fill" />
      <path
         transform="matrix(1.06458,0,0,1.06458,-4924.7534,-7390.433)"
         inkscape:connector-curvature="0"
         id="path38818"
         d="m 1617.0669,1968.7413 c -4.4732,-11.6571 1.9737,-25.7018 27.0067,-58.8341 l 24.4248,-32.3275 -9.9401,-28.5852 c -8.6825,-24.9684 -9.1014,-29.1173 -3.311,-32.7912 10.3557,-6.5706 11.5742,-5.6067 19.6525,15.5459 4.1772,10.9381 9.108,19.8874 10.9571,19.8874 1.8492,0 11.5371,-9.6951 21.5288,-21.5447 12.9695,-15.381 21.3856,-21.5446 29.418,-21.5446 6.1883,0 11.2513,0.8518 11.2513,1.893 0,1.0412 -11.3565,15.9488 -25.2367,33.128 l -25.2367,31.235 13.8995,26.5039 c 11.4944,21.9177 13.0008,27.943 8.7057,34.8205 -2.8566,4.5742 -6.207,8.3123 -7.4453,8.307 -1.2383,-0.01 -8.2177,-8.9073 -15.5098,-19.7822 -7.292,-10.8749 -15.247,-19.2325 -17.6776,-18.5723 -2.4307,0.6601 -14.3631,16.4859 -26.5165,35.1683 -21.7883,33.4934 -30.974,40.5141 -35.9707,27.4928 z"
         style="opacity:1;fill:#808080;fill-opacity:1;fill-rule:evenodd;stroke:none;stroke-width:88.38835144;stroke-linecap:square;stroke-linejoin:round;stroke-miterlimit:4;stroke-dasharray:none;stroke-opacity:1;paint-order:markers stroke fill" />
      <path
         transform="matrix(1.06458,0,0,1.06458,-4924.7534,-7390.433)"
         inkscape:connector-curvature="0"
         id="path38820"
         d="m 1888.0032,1972.434 c -8.558,-8.5581 -1.0221,-28.327 23.0424,-60.4469 l 25.9729,-34.667 -9.2819,-28.5488 c -8.0458,-24.7469 -8.4159,-29.0965 -2.7788,-32.6615 10.2193,-6.4628 11.4672,-5.4632 19.5264,15.6394 4.1773,10.9381 8.9221,19.8864 10.5441,19.8852 1.622,0 11.2974,-9.6963 21.5009,-21.5446 13.1793,-15.3039 21.8183,-21.5425 29.8311,-21.5425 6.2036,0 11.2792,0.7357 11.2792,1.635 0,0.8993 -10.126,14.0747 -22.5021,29.2786 -12.3762,15.204 -23.4475,29.9223 -24.6029,32.7074 -1.1555,2.785 3.8016,16.7564 11.0157,31.0474 10.993,21.7769 12.2142,27.2179 7.5429,33.6062 -3.0655,4.1924 -6.6634,7.6225 -7.9952,7.6225 -1.3319,0 -8.0732,-8.9458 -14.9808,-19.8795 -6.9075,-10.9337 -14.5879,-19.883 -17.0674,-19.8874 -2.4795,0 -14.412,15.8723 -26.5165,35.2815 -20.688,33.1724 -27.4618,39.5431 -34.53,32.475 z"
         style="opacity:1;fill:#808080;fill-opacity:1;fill-rule:evenodd;stroke:none;stroke-width:88.38835144;stroke-linecap:square;stroke-linejoin:round;stroke-miterlimit:4;stroke-dasharray:none;stroke-opacity:1;paint-order:markers stroke fill" />
      <path
         transform="matrix(1.06458,0,0,1.06458,-4924.7534,-7390.433)"
         inkscape:connector-curvature="0"
         id="path38822"
         d="m 1886.6514,1707.9957 c -4.4695,-11.6472 1.9677,-25.6939 26.8925,-58.6824 l 24.3107,-32.1758 -8.7211,-22.1257 c -11.0635,-28.0681 -11.2234,-39.4762 -0.5536,-39.4762 5.2541,0 11.0113,6.3061 16.1392,17.6777 4.3843,9.7227 9.3469,17.6777 11.0279,17.6777 1.6811,0 11.4183,-9.9167 21.6383,-22.037 13.7232,-16.2748 21.1263,-21.6486 28.3132,-20.5518 12.5424,1.9141 11.6749,4.0166 -15.4559,37.4558 l -22.7279,28.0127 13.5203,27.4177 c 11.2706,22.8556 12.6022,28.6735 8.0024,34.9641 -3.0349,4.1504 -6.6947,7.5462 -8.133,7.5462 -1.4383,0 -8.999,-9.2788 -16.8017,-20.6195 l -14.1866,-20.6196 -10.377,12.8856 c -5.7074,7.0871 -16.7434,23.3265 -24.5245,36.0875 -14.2362,23.3474 -23.6503,28.8448 -28.3632,16.563 z"
         style="opacity:1;fill:#808080;fill-opacity:1;fill-rule:evenodd;stroke:none;stroke-width:88.38835144;stroke-linecap:square;stroke-linejoin:round;stroke-miterlimit:4;stroke-dasharray:none;stroke-opacity:1;paint-order:markers stroke fill" />
      <path
         transform="matrix(1.06458,0,0,1.06458,-4924.7534,-7390.433)"
         inkscape:connector-curvature="0"
         id="path38824"
         d="m 2154.6628,1445.0901 c -5.8417,-10.9153 0.2362,-23.5897 30.4626,-63.5244 l 21.6927,-28.66 -10.5474,-29.0579 c -5.8011,-15.9818 -10.0831,-29.2056 -9.5155,-29.3862 16.4873,-5.2473 20.12,-3.0395 27.7129,16.8423 l 7.9084,20.7078 22.48,-24.5899 c 18.0626,-19.7578 24.4114,-24.0663 32.3086,-21.9254 9.3175,2.526 8.5708,4.2306 -14.3632,32.7917 -13.3053,16.5699 -24.1915,32.0394 -24.1915,34.3765 0,2.3371 5.9948,16.125 13.3218,30.6398 7.3271,14.5147 11.3045,26.3905 8.8389,26.3905 -2.4657,0 -4.4831,2.9831 -4.4831,6.6291 0,11.642 -6.2328,7.1935 -21.6839,-15.4765 -8.2801,-12.1487 -15.7825,-22.0886 -16.6719,-22.0886 -0.8895,0 -12.6359,16.9043 -26.1033,37.5651 -13.4674,20.6608 -26.2796,37.565 -28.4716,37.565 -2.192,0 -6.1045,-3.9595 -8.6945,-8.7989 z"
         style="opacity:1;fill:#808080;fill-opacity:1;fill-rule:evenodd;stroke:none;stroke-width:88.38835144;stroke-linecap:square;stroke-linejoin:round;stroke-miterlimit:4;stroke-dasharray:none;stroke-opacity:1;paint-order:markers stroke fill" />
      <path
         transform="matrix(1.06458,0,0,1.06458,-4924.7534,-7390.433)"
         inkscape:connector-curvature="0"
         id="path38826"
         d="m 2155.0876,1708.5431 c -7.1819,-8.6537 -1.1387,-21.8857 27.1997,-59.5554 l 24.1167,-32.058 -10.1636,-28.0004 c -5.59,-15.4003 -8.9502,-29.214 -7.4671,-30.6971 7.4898,-7.4898 18.2426,-1.18 25.5303,14.9811 4.3843,9.7227 9.161,17.6767 10.6148,17.6755 1.4539,0 11.1836,-9.919 21.6215,-22.0395 17.942,-20.8342 21.8439,-22.6062 39.7697,-18.0615 0.7124,0.1806 -9.7285,13.9723 -23.202,30.6482 -13.4735,16.6759 -24.4972,32.9222 -24.4972,36.1029 0,3.1807 5.7476,15.9672 12.7724,28.4146 10.6722,18.91 11.8638,23.8742 7.2468,30.1884 -3.0391,4.1563 -6.7025,7.5568 -8.1407,7.5568 -1.4383,0 -8.8664,-9.086 -16.5069,-20.1911 -16.5572,-24.065 -18.6694,-23.0543 -46.1949,22.1041 -18.0629,29.6339 -23.7987,33.6563 -32.6995,22.9314 z"
         style="opacity:1;fill:#808080;fill-opacity:1;fill-rule:evenodd;stroke:none;stroke-width:88.38835144;stroke-linecap:square;stroke-linejoin:round;stroke-miterlimit:4;stroke-dasharray:none;stroke-opacity:1;paint-order:markers stroke fill" />
      <path
         transform="matrix(1.06458,0,0,1.06458,-4924.7534,-7390.433)"
         inkscape:connector-curvature="0"
         id="path38828"
         d="m 2151.8164,1968.7413 c -4.4842,-11.6857 1.9912,-25.7248 27.3429,-59.281 l 24.761,-32.7743 -9.1715,-23.9665 c -11.3413,-29.6366 -11.4262,-34.8177 -0.6172,-37.6444 6.6692,-1.744 10.0369,1.4682 15.2818,14.5767 3.7001,9.2475 8.5303,17.9278 10.7337,19.2896 2.2035,1.3618 12.1397,-7.1698 22.0806,-18.9591 12.8908,-15.2878 21.3009,-21.435 29.3255,-21.435 6.1883,0 11.2513,1.0216 11.2513,2.2701 0,1.2486 -11.3847,16.1857 -25.2993,33.1936 l -25.2994,30.9234 14.2709,26.1691 c 11.333,20.7817 13.325,27.9367 9.676,34.755 -6.5553,12.2485 -9.2965,10.9777 -24.1715,-11.206 -7.292,-10.8749 -15.247,-19.2325 -17.6776,-18.5723 -2.4307,0.6601 -14.3631,16.4859 -26.5165,35.1683 -21.7883,33.4934 -30.974,40.5141 -35.9707,27.4928 z"
         style="opacity:1;fill:#808080;fill-opacity:1;fill-rule:evenodd;stroke:none;stroke-width:88.38835144;stroke-linecap:square;stroke-linejoin:round;stroke-miterlimit:4;stroke-dasharray:none;stroke-opacity:1;paint-order:markers stroke fill" />
      <path
         transform="matrix(1.06458,0,0,1.06458,-4924.7534,-7390.433)"
         inkscape:connector-curvature="0"
         id="path38830"
         d="m 2430.2397,1707.9957 c -4.4779,-11.6693 1.9812,-25.7116 27.1495,-59.024 l 24.5676,-32.5173 -8.9781,-23.996 c -11.2509,-30.0709 -11.2701,-36.9228 -0.1034,-36.9228 6.2285,0 10.9835,5.2708 15.9478,17.6777 3.8902,9.7227 8.6608,17.6777 10.6012,17.6777 1.9404,0 11.6768,-9.7328 21.6364,-21.6284 13.4469,-16.0609 20.9466,-21.4646 29.1346,-20.9922 6.0644,0.3498 11.0277,1.6669 11.0294,2.9268 0,1.2599 -8.2097,12.198 -18.2476,24.3068 -33.2389,40.0965 -32.6069,37.71 -17.7689,67.104 9.642,19.1007 11.9891,27.9666 8.8763,33.5289 -6.4352,11.4991 -10.6907,9.349 -24.379,-12.3176 -6.9076,-10.9337 -14.1232,-19.8831 -16.0347,-19.8874 -1.9116,0 -13.7595,15.902 -26.3287,35.3474 -22.3693,34.6069 -31.9859,42.0499 -37.1024,28.7164 z"
         style="opacity:1;fill:#808080;fill-opacity:1;fill-rule:evenodd;stroke:none;stroke-width:88.38835144;stroke-linecap:square;stroke-linejoin:round;stroke-miterlimit:4;stroke-dasharray:none;stroke-opacity:1;paint-order:markers stroke fill" />
      <path
         transform="matrix(1.06458,0,0,1.06458,-4924.7534,-7390.433)"
         inkscape:connector-curvature="0"
         id="path38832"
         d="m 2431.5916,1450.9428 c -10.0658,-10.0658 2.2915,-36.6508 37.8627,-81.4562 l 12.6243,-15.9015 -9.039,-22.932 c -11.4106,-28.949 -11.4777,-38.2179 -0.2827,-39.0612 6.4147,-0.4832 11.1354,4.7189 17.6528,19.4526 l 8.8966,20.1121 20.3218,-22.6027 c 13.7591,-15.3035 23.7574,-22.6027 30.9607,-22.6027 13.0716,0 13.5102,4.8705 1.4236,15.8087 -5.0684,4.5869 -16.1512,17.7884 -24.6284,29.3365 l -15.4129,20.9967 13.6463,26.8541 c 12.2902,24.1855 13.0152,27.755 7.2958,35.9206 -6.1407,8.7671 -6.8929,8.3115 -22.7743,-13.7943 -9.0331,-12.5734 -17.8666,-21.2463 -19.63,-19.2731 -1.7633,1.9732 -13.4815,19.0004 -26.0404,37.8381 -22.1379,33.2059 -26.6648,37.5163 -32.8769,31.3043 z"
         style="opacity:1;fill:#808080;fill-opacity:1;fill-rule:evenodd;stroke:none;stroke-width:88.38835144;stroke-linecap:square;stroke-linejoin:round;stroke-miterlimit:4;stroke-dasharray:none;stroke-opacity:1;paint-order:markers stroke fill" />
      <path
         transform="matrix(1.06458,0,0,1.06458,-4924.7534,-7390.433)"
         inkscape:connector-curvature="0"
         id="path38834"
         d="m 2705.4034,1447.0852 c -5.5684,-14.511 -2.1904,-22.6535 23.7623,-57.2777 14.5754,-19.4455 26.5032,-36.3497 26.5064,-37.5651 0,-1.2153 -3.9708,-12.6719 -8.831,-25.459 -11.0431,-29.0549 -11.0553,-34.3647 -0.08,-35.1915 6.4099,-0.4828 11.1304,4.7076 17.6164,19.3702 l 8.8601,20.0297 22.2111,-24.3025 c 16.5043,-18.0584 24.4685,-23.7122 30.9972,-22.0049 10.3798,2.7144 11.1409,7.069 2.4905,14.2483 -3.4626,2.8737 -14.5137,15.8769 -24.5579,28.8961 l -18.2621,23.6711 13.6175,26.9761 c 11.4049,22.5932 12.7881,28.5257 8.5133,36.5134 -5.0301,9.3987 -5.2872,9.3171 -17.6917,-5.6126 -6.923,-8.3325 -13.7929,-18.7397 -15.2664,-23.1272 -4.1423,-12.3345 -9.1674,-7.9388 -34.0679,29.8009 -24.2678,36.7806 -31.2808,42.8572 -35.8175,31.0347 z"
         style="opacity:1;fill:#808080;fill-opacity:1;fill-rule:evenodd;stroke:none;stroke-width:88.38835144;stroke-linecap:square;stroke-linejoin:round;stroke-miterlimit:4;stroke-dasharray:none;stroke-opacity:1;paint-order:markers stroke fill" />
      <path
         transform="matrix(1.06458,0,0,1.06458,-4924.7534,-7390.433)"
         inkscape:connector-curvature="0"
         id="path38836"
         d="m 2705.5955,1711.6884 c -7.8942,-7.8942 -0.5807,-25.9954 23.7751,-58.844 l 26.7214,-36.0391 -9.0438,-24.1715 c -11.2308,-30.0171 -11.2869,-35.4807 -0.3935,-38.3294 6.9508,-1.8176 10.1075,1.5539 16.0684,17.1623 4.08,10.6833 8.8834,19.4243 10.6743,19.4243 1.7909,0 11.9616,-9.4465 22.6015,-20.9923 11.741,-12.7404 23.2542,-21.0729 29.2891,-21.1975 13.6825,-0.2826 12.6612,3.1571 -8.0395,27.0749 -33.5576,38.7727 -33.2661,37.6588 -17.5659,67.1153 13.2934,24.941 14.4748,40.8195 3.0355,40.7977 -2.7783,-0.01 -11.0177,-8.9109 -18.3097,-19.7902 -7.292,-10.8793 -14.662,-19.8243 -16.3776,-19.8778 -1.7157,-0.053 -13.482,15.8128 -26.1474,35.2582 -21.4988,33.0074 -28.9948,39.7022 -36.2879,32.4091 z"
         style="opacity:1;fill:#808080;fill-opacity:1;fill-rule:evenodd;stroke:none;stroke-width:88.38835144;stroke-linecap:square;stroke-linejoin:round;stroke-miterlimit:4;stroke-dasharray:none;stroke-opacity:1;paint-order:markers stroke fill" />
      <path
         transform="matrix(1.06458,0,0,1.06458,-4924.7534,-7390.433)"
         inkscape:connector-curvature="0"
         id="path38838"
         d="m 2972.0575,1447.0476 c -7.3974,-8.9133 0.1376,-25.156 29.9291,-64.516 l 21.904,-28.9392 -7.7183,-19.6493 c -12.0525,-30.6832 -12.3708,-40.1605 -1.4067,-41.8772 7.607,-1.1911 10.8805,2.4426 17.2679,19.1676 l 7.8814,20.6374 22.507,-24.6138 c 18.3674,-20.0868 24.3599,-24.1064 32.5817,-21.855 9.6359,2.6386 9.0103,4.0405 -14.3632,32.1866 -13.4408,16.1853 -24.4378,31.6641 -24.4378,34.3974 0,2.7333 5.0083,14.853 11.1295,26.9326 10.4993,20.7195 11.6167,44.0344 2.1103,44.0344 -1.9138,0 -9.8555,-9.936 -17.6483,-22.08 -7.7927,-12.1439 -15.8552,-21.0375 -17.9166,-19.7635 -2.0614,1.274 -14.049,18.1706 -26.639,37.5479 -12.59,19.3773 -24.3787,35.2315 -26.197,35.2315 -1.8184,0 -5.8612,-3.0786 -8.984,-6.8414 z"
         style="opacity:1;fill:#808080;fill-opacity:1;fill-rule:evenodd;stroke:none;stroke-width:88.38835144;stroke-linecap:square;stroke-linejoin:round;stroke-miterlimit:4;stroke-dasharray:none;stroke-opacity:1;paint-order:markers stroke fill" />
      <path
         transform="matrix(1.06458,0,0,1.06458,-4924.7534,-7390.433)"
         inkscape:connector-curvature="0"
         id="path38840"
         d="m 2972.6798,1708.5431 c -7.1819,-8.6537 -1.1387,-21.8857 27.1997,-59.5554 l 24.1167,-32.058 -10.1636,-28.0004 c -10.5238,-28.9928 -10.1299,-33.3937 2.9891,-33.3937 4.9434,0 9.6047,5.5912 12.8441,15.4064 2.7965,8.4736 7.1244,16.6672 9.6177,18.2081 2.4932,1.5409 13.1579,-7.0578 23.6993,-19.1083 17.6266,-20.1497 24.7094,-23.4777 41.0632,-19.2939 0.7918,0.2026 -9.6491,13.7275 -23.2019,30.0554 -13.5528,16.3279 -24.6415,32.5742 -24.6415,36.1029 0,3.5286 5.7476,16.5999 12.7724,29.0473 10.6722,18.91 11.8639,23.8742 7.2468,30.1884 -7.7742,10.6319 -9.1004,9.9628 -24.4386,-12.3305 -7.5256,-10.9381 -15.1189,-19.8874 -16.874,-19.8874 -1.7551,0 -13.0948,15.8802 -25.1993,35.2894 -22.324,35.7956 -27.9595,40.2592 -37.0301,29.3297 z"
         style="opacity:1;fill:#808080;fill-opacity:1;fill-rule:evenodd;stroke:none;stroke-width:88.38835144;stroke-linecap:square;stroke-linejoin:round;stroke-miterlimit:4;stroke-dasharray:none;stroke-opacity:1;paint-order:markers stroke fill" />
      <path
         transform="matrix(1.06458,0,0,1.06458,-4924.7534,-7390.433)"
         inkscape:connector-curvature="0"
         id="path38842"
         d="m 3242.702,1448.5857 c -9.5751,-9.5751 -5.6466,-19.9848 21.2132,-56.2106 14.5841,-19.6695 26.5155,-38.2376 26.5143,-41.2623 0,-3.0247 -4.0641,-16.1864 -9.0286,-29.2482 -4.9645,-13.0619 -8.4438,-24.25 -7.7318,-24.8627 0.7121,-0.6126 5.2721,-2.3267 10.1335,-3.8091 7.3059,-2.2277 10.3072,0.8667 17.3056,17.8421 l 8.4668,20.5373 20.6807,-23.5801 c 19.0422,-21.7119 39.7255,-32.1863 39.7255,-20.1177 0,2.676 -9.8932,16.762 -21.9849,31.3022 -12.0916,14.5402 -22.0353,28.9887 -22.097,32.1079 -0.062,3.1192 4.896,15.5546 11.0173,27.6342 10.4993,20.7195 11.6167,44.0344 2.1103,44.0344 -1.9138,0 -9.8904,-9.9903 -17.7258,-22.2007 -16.969,-26.4439 -17.7541,-26.0991 -46.8431,20.5722 -11.1631,17.9105 -21.6816,32.5644 -23.3746,32.5644 -1.693,0 -5.4646,-2.3865 -8.3814,-5.3033 z"
         style="opacity:1;fill:#808080;fill-opacity:1;fill-rule:evenodd;stroke:none;stroke-width:88.38835144;stroke-linecap:square;stroke-linejoin:round;stroke-miterlimit:4;stroke-dasharray:none;stroke-opacity:1;paint-order:markers stroke fill" />
      <path
         transform="matrix(1.06458,0,0,1.06458,-4924.7534,-7390.433)"
         inkscape:connector-curvature="0"
         id="path38844"
         d="m 3239.5024,1705.4617 c -2.8537,-8.9909 5.9677,-24.6507 40.4555,-71.8173 l 12.3635,-16.9088 -9.7846,-27.2854 c -12.1317,-33.8306 -12.1294,-33.9146 0.923,-33.9146 8.3085,0 11.8444,3.45 15.7904,15.4064 2.7965,8.4736 6.9847,16.5808 9.3071,18.0161 2.3224,1.4353 12.9165,-7.0602 23.5425,-18.8788 11.4632,-12.7499 23.0941,-21.4885 28.6007,-21.4885 5.1044,0 9.2807,1.6742 9.2807,3.7204 0,2.0462 -9.9437,16.0096 -22.0971,31.0298 -12.1534,15.0202 -22.0971,29.8903 -22.0971,33.0446 0,3.1543 5.0672,15.7347 11.2604,27.9563 10.7073,21.1299 11.4525,39.3568 1.609,39.3568 -2.317,0 -10.5207,-8.9493 -18.2306,-19.8873 -7.7098,-10.9381 -15.1266,-19.8694 -16.4817,-19.8473 -1.3551,0.022 -12.963,15.9319 -25.7954,35.3553 -23.7651,35.9715 -33.4478,42.5214 -38.6463,26.1423 z"
         style="opacity:1;fill:#808080;fill-opacity:1;fill-rule:evenodd;stroke:none;stroke-width:88.38835144;stroke-linecap:square;stroke-linejoin:round;stroke-miterlimit:4;stroke-dasharray:none;stroke-opacity:1;paint-order:markers stroke fill" />
    </g>
  </g>
</svg>
