<?xml version="1.0" encoding="UTF-8" standalone="no"?>
<!-- Created with Inkscape (http://www.inkscape.org/) -->

<svg
   xmlns:dc="http://purl.org/dc/elements/1.1/"
   xmlns:cc="http://creativecommons.org/ns#"
   xmlns:rdf="http://www.w3.org/1999/02/22-rdf-syntax-ns#"
   xmlns:svg="http://www.w3.org/2000/svg"
   xmlns="http://www.w3.org/2000/svg"
   xmlns:sodipodi="http://sodipodi.sourceforge.net/DTD/sodipodi-0.dtd"
   xmlns:inkscape="http://www.inkscape.org/namespaces/inkscape"
   width="19632.559"
   height="7684.9868"
   viewBox="0 0 7157.638 2801.7925"
   version="1.1"
   id="svg8"
   inkscape:version="0.92.2 2405546, 2018-03-11"
   sodipodi:docname="JustKeepShipping.svg">
  <defs
     id="defs2" />
  <sodipodi:namedview
     id="base"
     pagecolor="#ffffff"
     bordercolor="#666666"
     borderopacity="1.0"
     inkscape:pageopacity="0.0"
     inkscape:pageshadow="2"
     inkscape:zoom="0.035514706"
     inkscape:cx="9119.5861"
     inkscape:cy="9150.4827"
     inkscape:document-units="px"
     inkscape:current-layer="layer2"
     showgrid="false"
     inkscape:window-width="2560"
     inkscape:window-height="1440"
     inkscape:window-x="0"
     inkscape:window-y="0"
     inkscape:window-maximized="0"
     inkscape:snap-page="false"
     inkscape:snap-grids="true"
     units="px"
     scale-x="0.36458"
     inkscape:pagecheckerboard="true"
     showguides="true"
     inkscape:guide-bbox="true"
     borderlayer="true"
     inkscape:showpageshadow="false"
     inkscape:snap-global="false"
     showborder="false"
     fit-margin-top="0"
     fit-margin-left="0"
     fit-margin-right="0"
     fit-margin-bottom="0" />
  <metadata
     id="metadata5">
    <rdf:RDF>
      <cc:Work
         rdf:about="">
        <dc:format>image/svg+xml</dc:format>
        <dc:type
           rdf:resource="http://purl.org/dc/dcmitype/StillImage" />
        <dc:title></dc:title>
      </cc:Work>
    </rdf:RDF>
  </metadata>
  <g
     inkscape:label="Shirt"
     inkscape:groupmode="layer"
     id="layer1"
     transform="translate(1125.6846,-453.84104)"
     style="display:inline">
    <g
       style="fill:#333333;fill-opacity:1"
       transform="matrix(1.1091958,0,0,1.1091958,2493.2672,-2970.8658)"
       id="g7756">
      <path
         style="fill:#333333;fill-opacity:1;stroke:#000000;stroke-width:1.60887659;stroke-opacity:1"
         d="m -237.1354,5587.4765 c -36.2305,-1.1541 -49.0174,-1.7063 -111.4345,-4.8127 -44.2836,-2.204 -108.2212,-6.2003 -115.0346,-7.1902 -3.0971,-0.4499 -23.369,-2.2825 -45.0486,-4.0726 -62.71123,-5.1776 -118.67201,-10.9107 -156.86545,-16.0707 -19.46741,-2.6299 -36.14042,-4.7822 -37.05114,-4.7829 -1.01876,-6e-4 -1.4722,-4.1795 -1.17852,-10.861 0.48305,-10.9898 2.06824,-75.629 9.24255,-376.8793 3.91199,-164.2662 4.90258,-200.9697 6.4481,-238.9182 0.88987,-21.8501 1.56933,-47.7466 4.89663,-186.6297 1.29318,-53.9778 3.4011,-141.9431 4.68426,-195.4785 1.28316,-53.5354 2.80846,-114.9795 3.38953,-136.5425 0.70022,-25.9835 0.51221,-39.0057 -0.55749,-38.6131 -1.45729,0.5349 -26.09113,34.3663 -67.50815,92.7137 -8.60476,12.1222 -15.87334,20.8782 -16.83707,20.2826 -0.9327,-0.5764 -32.54782,-23.5307 -70.25582,-51.0095 -37.70799,-27.4788 -85.57386,-62.3532 -106.36859,-77.4988 -20.79473,-15.1456 -56.99445,-41.5507 -80.44384,-58.6781 -23.4494,-17.1274 -52.6064,-38.346 -64.7935,-47.1523 -15.0168,-10.8511 -21.699,-16.5973 -20.7332,-17.8289 1.4454,-1.8434 63.8737,-85.7168 113.72454,-152.7909 15.01964,-20.2088 43.59829,-58.5983 63.50814,-85.3099 19.90985,-26.7117 60.3925,-81.1286 89.96143,-120.9266 29.56895,-39.798 57.89767,-77.4443 62.95273,-83.6584 27.78918,-34.1609 60.91075,-65.8343 92.67969,-88.6274 16.79943,-12.053 29.56805,-18.5307 56.87495,-28.8532 19.0162,-7.1885 36.87489,-13.9535 89.29262,-33.8248 51.9582,-19.697 104.5049,-39.4414 144.8805,-54.4389 14.2605,-5.297 29.7033,-12.5672 41.8308,-19.6932 10.5737,-6.213 23.3879,-13.6428 28.476,-16.5107 5.0881,-2.8678 9.251,-6.09 9.251,-7.1604 0,-1.9534 6.0714,-2.4277 8.9301,-0.6976 8.2494,4.9927 121.6921,18.8838 181.1824,22.1858 36.6495,2.0342 103.2358,2.01 136.4895,-0.05 51.1001,-3.1651 141.353,-16.1199 147.5581,-21.1803 2.0657,-1.6846 5.9867,0.2985 36.6582,18.5405 8.8489,5.2629 19.7088,10.8759 24.1332,12.4733 4.4244,1.5974 19.6283,7.334 33.7864,12.748 14.1581,5.4141 33.3439,12.6249 42.6352,16.0241 9.2912,3.3992 22.6851,8.4926 29.7642,11.3188 7.079,2.8261 19.3869,7.5527 27.3509,10.5035 20.2993,7.5214 61.577,23.0088 90.0971,33.8043 13.2732,5.0243 34.269,12.9325 46.6574,17.5738 31.0111,11.6182 32.5112,12.3295 43.4396,20.5984 28.2135,21.3473 68.7536,70.3634 94.1097,113.7857 3.8695,6.6265 73.1234,110.9888 153.8977,231.9161 80.7743,120.9273 147.0679,220.6119 147.3192,221.5211 0.2515,0.9093 -40.8106,31.9685 -91.2489,69.0204 -50.4383,37.0519 -97.8599,71.8905 -105.3814,77.419 -7.5215,5.5284 -24.1734,17.7642 -37.0042,27.1905 -12.8307,9.4264 -29.8446,21.9418 -37.8086,27.8121 -49.6526,36.5997 -66.1735,48.8049 -67.7948,50.0851 -1.9121,1.51 -13.3612,-13.3379 -54.4798,-70.6534 -11.5034,-16.0348 -21.7528,-29.1994 -22.7762,-29.2546 -1.3278,-0.072 -1.7023,4.623 -1.3079,16.3906 1.8831,56.1795 2.8856,99.4403 6.4409,277.9335 8.4102,422.2541 8.5011,426.6549 11.2415,544.6047 0.4523,19.4674 1.1661,44.4452 1.5864,55.5062 0.42,11.061 1.4801,59.9307 2.3557,108.5992 0.8754,48.6685 1.9847,99.7638 2.4651,113.545 l 0.8735,25.0568 -15.7238,1.9876 c -8.6482,1.0932 -25.1358,3.3484 -36.6392,5.0117 -21.0551,3.0443 -81.6272,9.6535 -117.448,12.8151 -16.7227,1.4759 -30.5655,2.8009 -59.7313,5.7172 -36.0232,3.6019 -147.7218,9.7953 -216.9954,12.0318 -55.4615,1.7907 -275.6856,1.7461 -332.6155,-0.068 z"
         id="path7738"
         inkscape:connector-curvature="0" />
      <path
         style="fill:#333333;fill-opacity:1;stroke:#000000;stroke-width:1.60887659;stroke-opacity:1"
         d="m 41.5827,5581.1191 c 75.7436,-1.7543 93.0067,-2.4319 143.9945,-5.6518 7.079,-0.4471 36.4008,-2.2584 65.1595,-4.0251 28.7587,-1.7668 55.9084,-3.5672 60.3328,-4.0008 4.4244,-0.4336 25.0582,-2.2516 45.853,-4.04 20.7947,-1.7883 39.6185,-3.6026 41.8307,-4.0315 2.2123,-0.429 23.2081,-2.9198 46.6575,-5.5354 23.4493,-2.6154 52.5901,-5.9955 64.7573,-7.5113 l 22.122,-2.7559 v -21.2635 c 0,-21.8849 -2.4257,-149.1236 -3.9857,-209.0668 -0.4836,-18.5825 -2.3222,-106.5478 -4.086,-195.4785 -1.7638,-88.9306 -3.9131,-185.2219 -4.7763,-213.9806 -0.8632,-28.7586 -3.3735,-147.1317 -5.5786,-263.0513 -2.2051,-115.9195 -4.8109,-221.2608 -5.7904,-234.0916 -3.3357,-43.6918 -3.9045,-79.577 -3.9026,-246.1581 0,-164.8642 1.0435,-215.5684 6.4607,-314.5353 2.679,-48.9412 6.9012,-112.9749 8.0094,-121.4702 1.8819,-14.4263 4.0345,-35.8886 3.6354,-36.2459 -0.4923,-0.4408 -37.3818,-14.6243 -64.7987,-24.9142 -35.9503,-13.4926 -89.0308,-33.4703 -129.5145,-48.7448 -12.8308,-4.8411 -34.9126,-13.1716 -49.0707,-18.5123 -14.1581,-5.3407 -32.5375,-12.2974 -40.8431,-15.4593 -8.3055,-3.162 -16.0252,-5.749 -17.1547,-5.749 -1.1296,0 -4.0274,5.2489 -6.4396,11.6643 -8.8293,23.4821 -12.0136,30.6873 -20.8052,47.0776 -41.7675,77.8671 -115.4167,126.0318 -215.6173,141.0079 -9.0227,1.3485 -28.7291,2.1545 -52.2885,2.1384 -35.3012,-0.024 -39.1682,-0.3223 -58.3094,-4.4979 -40.4515,-8.8246 -91.997,-29.1901 -120.0509,-47.432 -51.7422,-33.6449 -91.6685,-81.7129 -107.8325,-129.8211 -2.6709,-7.9495 -5.4583,-14.6543 -6.1942,-14.8996 -0.7359,-0.2453 -6.0203,1.4279 -11.7432,3.7183 -5.7228,2.2903 -19.8171,7.6767 -31.3206,11.9696 -11.5034,4.293 -31.4133,11.772 -44.2441,16.6202 -12.8308,4.8481 -31.2926,11.8169 -41.0263,15.4861 -9.7337,3.6693 -26.0236,9.8601 -36.1998,13.7573 -10.1761,3.8972 -31.1719,11.8732 -46.65738,17.7244 -54.01383,20.4093 -70.0449,26.8765 -78.58216,31.7013 l -8.59604,4.858 1.04608,13.0697 c 2.06813,25.8392 2.49606,33.0825 4.85932,82.2514 1.31846,27.4313 2.80311,57.1151 3.29923,65.9639 0.49609,8.8488 1.18318,21.1567 1.52684,27.3509 0.34365,6.1942 1.43104,49.6338 2.41643,96.5326 2.75628,131.1829 -0.65903,234.8424 -11.18473,339.4729 -2.49688,24.8202 -3.6295,53.8818 -4.95355,127.1013 -0.94409,52.2081 -2.74243,127.1415 -3.99629,166.5187 -1.25388,39.3773 -3.36622,117.2067 -4.69411,172.9543 -1.32789,55.7475 -2.81061,114.0291 -3.29496,129.5145 -0.48434,15.4855 -2.68351,104.472 -4.88705,197.748 -2.20355,93.2759 -5.05296,201.8751 -6.33207,241.3315 -3.88856,119.9509 -4.85079,188.3824 -2.6489,188.3824 1.0518,0 13.65014,1.4428 27.9963,3.2063 14.34615,1.7635 43.45978,5.0006 64.69695,7.1935 21.23717,2.1929 44.76699,4.7048 52.28849,5.5821 7.5215,0.8773 28.8793,2.7206 47.4619,4.0961 18.5825,1.3756 37.0443,2.8477 41.0263,3.2716 7.1836,0.7649 101.9914,6.3972 135.9501,8.0767 9.7337,0.4814 20.2316,1.1855 23.3287,1.5645 16.2384,1.9878 139.9386,4.964 221.2205,5.3227 30.086,0.1335 84.7476,-0.4546 121.4702,-1.3052 z"
         id="path7740"
         inkscape:connector-curvature="0" />
      <path
         style="fill:#333333;fill-opacity:1;stroke:#000000;stroke-width:1.60887659;stroke-opacity:1"
         d="m 637.3217,4469.8781 c 49.1905,-36.4601 77.9812,-57.7746 102.5134,-75.8937 10.1761,-7.5159 33.344,-24.6898 51.484,-38.1642 35.3607,-26.2658 58.1064,-43.0833 103.5118,-76.5334 15.7845,-11.6284 29.0526,-22.0637 29.4846,-23.1897 0.4321,-1.1259 -4.3709,-9.7327 -10.6733,-19.1262 l -11.4588,-17.0791 -4.3504,3.1633 c -2.3925,1.7398 -43.8079,32.902 -92.034,69.2493 -48.2261,36.3473 -120.4445,90.7553 -160.4854,120.9066 -40.0409,30.1514 -72.8017,55.3777 -72.8017,56.0585 0,2.5231 21.0235,30.6804 22.9074,30.6804 0.7318,0 19.5879,-13.5323 41.9024,-30.0718 z"
         id="path7742"
         inkscape:connector-curvature="0" />
      <path
         style="fill:#333333;fill-opacity:1;stroke:#000000;stroke-width:1.60887659;stroke-opacity:1"
         d="m -746.84174,4452.654 c 6.59541,-9.1353 12.15643,-17.2538 12.35781,-18.0411 0.2014,-0.7873 -13.52079,-11.5445 -30.49373,-23.905 -16.97294,-12.3605 -44.61579,-32.682 -61.42855,-45.1588 -16.81276,-12.4769 -47.58253,-35.2562 -68.37726,-50.6206 -20.79473,-15.3645 -46.13453,-34.0879 -56.31068,-41.6075 -10.17614,-7.5197 -25.01803,-18.4849 -32.98197,-24.3671 -7.96394,-5.8823 -28.59778,-21.1689 -45.85298,-33.9702 -17.2552,-12.8014 -32.1821,-23.7698 -33.1709,-24.3742 -1.6734,-1.023 -29.6991,34.182 -29.4847,37.0376 0.05,0.6639 17.1345,13.515 37.9658,28.558 20.8313,15.043 48.8453,35.3477 62.25329,45.1215 133.27166,97.1487 194.74523,141.9676 211.00794,153.841 10.61859,7.7526 20.03052,14.0957 20.9154,14.0959 0.88488,1e-4 7.00513,-7.4741 13.60053,-16.6095 z"
         id="path7744"
         inkscape:connector-curvature="0" />
      <path
         style="fill:#333333;fill-opacity:1;stroke:#000000;stroke-width:1.60887659;stroke-opacity:1"
         d="m 608.5746,4433.4005 c 20.4276,-15.3649 68.273,-51.4109 106.3229,-80.1021 38.0499,-28.6912 94.5215,-71.2536 125.4924,-94.5833 30.9708,-23.3295 56.3107,-42.8502 56.3107,-43.3791 0,-0.5289 -57.9899,-87.841 -128.8666,-194.0269 -70.8764,-106.1858 -135.402,-203.6696 -143.3901,-216.6305 -28.8683,-46.8398 -56.2909,-79.7908 -90.0221,-108.1701 -3.0974,-2.6059 -5.5137,-3.6417 -6.1382,-2.6313 -1.7893,2.8951 -3.7405,26.0687 -11.2459,133.5623 -2.3985,34.3525 -4.9912,94.7534 -6.4915,151.2344 -0.4819,18.1401 -1.3096,39.8599 -1.8394,48.2663 -1.185,18.8014 -0.9269,162.7752 0.4736,264.3905 0.8817,63.9647 1.4601,76.9682 3.8285,86.0749 2.4561,9.4439 5.9417,15.0935 29.1353,47.2216 14.49,20.0719 27.0077,36.5428 27.8173,36.602 0.8095,0.059 18.1853,-12.4637 38.6131,-27.8287 z"
         id="path7746"
         inkscape:connector-curvature="0" />
      <path
         style="fill:#333333;fill-opacity:1;stroke:#000000;stroke-width:1.60887659;stroke-opacity:1"
         d="m -702.08322,4386.9263 28.88392,-40.6241 2.60693,-13.6755 c 2.28673,-11.9956 5.30279,-41.3546 8.26406,-80.4438 7.3748,-97.3487 6.60991,-325.9438 -1.52621,-456.1165 -0.44246,-7.0791 -1.61572,-27.7129 -2.60724,-45.853 -0.99153,-18.1401 -2.00737,-34.7919 -2.25743,-37.0042 -0.25006,-2.2122 -0.53722,-5.6511 -0.63811,-7.6421 -0.10088,-1.991 -1.03361,-3.62 -2.0727,-3.62 -4.18593,0 -33.93125,24.645 -55.34241,45.853 -25.44192,25.2005 -36.52882,38.2458 -64.26574,75.6172 -10.50809,14.1581 -33.94034,45.6519 -52.07166,69.9861 -18.13131,24.3343 -43.46148,58.362 -56.28928,75.6172 -29.23012,39.3187 -61.71435,82.9332 -116.57121,156.5127 -23.6052,31.6618 -42.9186,58.2104 -42.9186,58.997 0,0.7866 6.697,6.4043 14.8821,12.4838 48.68206,36.1582 89.02424,66.0262 154.04996,114.0533 96.40725,71.2051 135.46516,100.1169 147.21221,108.971 5.3093,4.0018 10.13121,7.3291 10.71538,7.394 0.58416,0.065 14.05989,-18.1628 29.94603,-40.5061 z"
         id="path7748"
         inkscape:connector-curvature="0" />
      <path
         style="fill:#333333;fill-opacity:1;stroke:#000000;stroke-width:1.60887659;stroke-opacity:1"
         d="m -44.354,3768.7936 c 19.4438,-1.0774 60.1547,-9.2794 81.1101,-16.3413 19.1169,-6.4423 50.7516,-21.5044 65.1595,-31.0241 28.623,-18.9119 54.3201,-44.7548 72.9645,-73.3785 16.2586,-24.9608 37.8251,-73.1846 34.8688,-77.9681 -0.5516,-0.8925 -6.2159,-4.6122 -12.5873,-8.266 -6.3714,-3.6538 -14.3804,-8.4346 -17.7976,-10.6239 -3.4173,-2.1893 -6.7366,-3.3737 -7.3763,-2.632 -0.6396,0.7417 -2.4757,4.9685 -4.08,9.393 -19.1222,52.7343 -64.1066,102.3669 -116.6717,128.7272 -20.6758,10.3684 -31.3725,14.2248 -57.4629,20.7163 -27.7583,6.9065 -43.9627,9.0341 -68.6875,9.0187 -27.4561,-0.017 -50.0459,-4.029 -83.0036,-14.741 -67.2127,-21.8457 -120.1244,-74.6305 -144.8732,-144.5257 -2.0366,-5.7517 -3.836,-10.6563 -3.9986,-10.8991 -0.1627,-0.2428 -4.9238,2.3187 -10.5802,5.6922 -5.6565,3.3735 -17.0114,10.0881 -25.2333,14.9213 -17.5975,10.3448 -17.266,8.395 -5.9758,35.1428 21.5642,51.0885 63.2624,95.4582 117.88,125.4325 28.9056,15.8634 57.6399,26.0131 108.1764,38.2107 12.547,3.0284 39.4064,5.1931 54.7018,4.4088 4.8669,-0.2496 15.427,-0.8183 23.4669,-1.2638 z"
         id="path7750"
         inkscape:connector-curvature="0" />
      <path
         style="fill:#333333;fill-opacity:1;stroke:#000000;stroke-width:1.60887659;stroke-opacity:1"
         d="m -42.1821,3705.9829 c 58.4741,-7.7123 107.4326,-29.9905 144.6846,-65.8375 13.6024,-13.0895 31.5944,-34.4589 30.1927,-35.8606 -0.5215,-0.5216 -5.8504,0.5496 -11.8418,2.3804 -18.1936,5.5595 -68.8442,16.1059 -93.7506,19.5207 -46.4679,6.371 -121.9461,7.6089 -168.1276,2.7572 -36.2746,-3.8108 -98.0224,-16.6913 -119.9399,-25.0193 -4.7609,-1.809 -9.2008,-2.7444 -9.8665,-2.0788 -2.0088,2.0089 18.1748,27.6436 32.6123,41.4201 16.4587,15.7053 29.5946,25.1879 49.7323,35.9014 25.8363,13.7452 59.2306,24.0748 90.9015,28.1178 11.936,1.5238 38.7604,0.8937 55.403,-1.3014 z"
         id="path7752"
         inkscape:connector-curvature="0" />
      <path
         style="fill:#333333;fill-opacity:1;stroke:#000000;stroke-width:1.60887659;stroke-opacity:1"
         d="m -32.4256,3623.1057 c 54.1648,-3.6765 91.5831,-9.1839 130.319,-19.1809 45.8017,-11.8206 43.1228,-10.5663 50.157,-23.4833 6.4993,-11.9348 15.0061,-32.6748 13.8686,-33.8123 -0.3748,-0.3747 -7.8749,0.7835 -16.6669,2.5739 -95.6707,19.482 -219.4383,22.5512 -352.3454,8.7376 -22.1454,-2.3017 -79.8204,-10.9902 -86.3725,-13.0117 -1.9684,-0.6072 -2.8138,0.011 -2.8097,2.0553 0.01,3.5205 7.67,24.0587 12.9704,34.7631 l 3.8157,7.7061 17.7483,5.4437 c 44.3008,13.5879 66.3563,18.4909 105.432,23.4377 47.3703,5.9968 84.663,7.433 123.8835,4.7708 z"
         id="path7754"
         inkscape:connector-curvature="0" />
    </g>
    <g
       id="g9738"
       transform="matrix(1.1091958,0,0,1.1091958,4994.1067,-2944.4019)"
       style="fill:#333333;fill-opacity:1">
      <path
         inkscape:connector-curvature="0"
         id="path9720"
         d="m -237.1354,5587.4765 c -36.2305,-1.1541 -49.0174,-1.7063 -111.4345,-4.8127 -44.2836,-2.204 -108.2212,-6.2003 -115.0346,-7.1902 -3.0971,-0.4499 -23.369,-2.2825 -45.0486,-4.0726 -62.71123,-5.1776 -118.67201,-10.9107 -156.86545,-16.0707 -19.46741,-2.6299 -36.14042,-4.7822 -37.05114,-4.7829 -1.01876,-6e-4 -1.4722,-4.1795 -1.17852,-10.861 0.48305,-10.9898 2.06824,-75.629 9.24255,-376.8793 3.91199,-164.2662 4.90258,-200.9697 6.4481,-238.9182 0.88987,-21.8501 1.56933,-47.7466 4.89663,-186.6297 1.29318,-53.9778 3.4011,-141.9431 4.68426,-195.4785 1.28316,-53.5354 2.80846,-114.9795 3.38953,-136.5425 0.70022,-25.9835 0.51221,-39.0057 -0.55749,-38.6131 -1.45729,0.5349 -26.09113,34.3663 -67.50815,92.7137 -8.60476,12.1222 -15.87334,20.8782 -16.83707,20.2826 -0.9327,-0.5764 -32.54782,-23.5307 -70.25582,-51.0095 -37.70799,-27.4788 -85.57386,-62.3532 -106.36859,-77.4988 -20.79473,-15.1456 -56.99445,-41.5507 -80.44384,-58.6781 -23.4494,-17.1274 -52.6064,-38.346 -64.7935,-47.1523 -15.0168,-10.8511 -21.699,-16.5973 -20.7332,-17.8289 1.4454,-1.8434 63.8737,-85.7168 113.72454,-152.7909 15.01964,-20.2088 43.59829,-58.5983 63.50814,-85.3099 19.90985,-26.7117 60.3925,-81.1286 89.96143,-120.9266 29.56895,-39.798 57.89767,-77.4443 62.95273,-83.6584 27.78918,-34.1609 60.91075,-65.8343 92.67969,-88.6274 16.79943,-12.053 29.56805,-18.5307 56.87495,-28.8532 19.0162,-7.1885 36.87489,-13.9535 89.29262,-33.8248 51.9582,-19.697 104.5049,-39.4414 144.8805,-54.4389 14.2605,-5.297 29.7033,-12.5672 41.8308,-19.6932 10.5737,-6.213 23.3879,-13.6428 28.476,-16.5107 5.0881,-2.8678 9.251,-6.09 9.251,-7.1604 0,-1.9534 6.0714,-2.4277 8.9301,-0.6976 8.2494,4.9927 121.6921,18.8838 181.1824,22.1858 36.6495,2.0342 103.2358,2.01 136.4895,-0.05 51.1001,-3.1651 141.353,-16.1199 147.5581,-21.1803 2.0657,-1.6846 5.9867,0.2985 36.6582,18.5405 8.8489,5.2629 19.7088,10.8759 24.1332,12.4733 4.4244,1.5974 19.6283,7.334 33.7864,12.748 14.1581,5.4141 33.3439,12.6249 42.6352,16.0241 9.2912,3.3992 22.6851,8.4926 29.7642,11.3188 7.079,2.8261 19.3869,7.5527 27.3509,10.5035 20.2993,7.5214 61.577,23.0088 90.0971,33.8043 13.2732,5.0243 34.269,12.9325 46.6574,17.5738 31.0111,11.6182 32.5112,12.3295 43.4396,20.5984 28.2135,21.3473 68.7536,70.3634 94.1097,113.7857 3.8695,6.6265 73.1234,110.9888 153.8977,231.9161 80.7743,120.9273 147.0679,220.6119 147.3192,221.5211 0.2515,0.9093 -40.8106,31.9685 -91.2489,69.0204 -50.4383,37.0519 -97.8599,71.8905 -105.3814,77.419 -7.5215,5.5284 -24.1734,17.7642 -37.0042,27.1905 -12.8307,9.4264 -29.8446,21.9418 -37.8086,27.8121 -49.6526,36.5997 -66.1735,48.8049 -67.7948,50.0851 -1.9121,1.51 -13.3612,-13.3379 -54.4798,-70.6534 -11.5034,-16.0348 -21.7528,-29.1994 -22.7762,-29.2546 -1.3278,-0.072 -1.7023,4.623 -1.3079,16.3906 1.8831,56.1795 2.8856,99.4403 6.4409,277.9335 8.4102,422.2541 8.5011,426.6549 11.2415,544.6047 0.4523,19.4674 1.1661,44.4452 1.5864,55.5062 0.42,11.061 1.4801,59.9307 2.3557,108.5992 0.8754,48.6685 1.9847,99.7638 2.4651,113.545 l 0.8735,25.0568 -15.7238,1.9876 c -8.6482,1.0932 -25.1358,3.3484 -36.6392,5.0117 -21.0551,3.0443 -81.6272,9.6535 -117.448,12.8151 -16.7227,1.4759 -30.5655,2.8009 -59.7313,5.7172 -36.0232,3.6019 -147.7218,9.7953 -216.9954,12.0318 -55.4615,1.7907 -275.6856,1.7461 -332.6155,-0.068 z"
         style="fill:#333333;fill-opacity:1;stroke:#000000;stroke-width:1.60887659;stroke-opacity:1" />
      <path
         inkscape:connector-curvature="0"
         id="path9722"
         d="m 41.5827,5581.1191 c 75.7436,-1.7543 93.0067,-2.4319 143.9945,-5.6518 7.079,-0.4471 36.4008,-2.2584 65.1595,-4.0251 28.7587,-1.7668 55.9084,-3.5672 60.3328,-4.0008 4.4244,-0.4336 25.0582,-2.2516 45.853,-4.04 20.7947,-1.7883 39.6185,-3.6026 41.8307,-4.0315 2.2123,-0.429 23.2081,-2.9198 46.6575,-5.5354 23.4493,-2.6154 52.5901,-5.9955 64.7573,-7.5113 l 22.122,-2.7559 v -21.2635 c 0,-21.8849 -2.4257,-149.1236 -3.9857,-209.0668 -0.4836,-18.5825 -2.3222,-106.5478 -4.086,-195.4785 -1.7638,-88.9306 -3.9131,-185.2219 -4.7763,-213.9806 -0.8632,-28.7586 -3.3735,-147.1317 -5.5786,-263.0513 -2.2051,-115.9195 -4.8109,-221.2608 -5.7904,-234.0916 -3.3357,-43.6918 -3.9045,-79.577 -3.9026,-246.1581 0,-164.8642 1.0435,-215.5684 6.4607,-314.5353 2.679,-48.9412 6.9012,-112.9749 8.0094,-121.4702 1.8819,-14.4263 4.0345,-35.8886 3.6354,-36.2459 -0.4923,-0.4408 -37.3818,-14.6243 -64.7987,-24.9142 -35.9503,-13.4926 -89.0308,-33.4703 -129.5145,-48.7448 -12.8308,-4.8411 -34.9126,-13.1716 -49.0707,-18.5123 -14.1581,-5.3407 -32.5375,-12.2974 -40.8431,-15.4593 -8.3055,-3.162 -16.0252,-5.749 -17.1547,-5.749 -1.1296,0 -4.0274,5.2489 -6.4396,11.6643 -8.8293,23.4821 -12.0136,30.6873 -20.8052,47.0776 -41.7675,77.8671 -115.4167,126.0318 -215.6173,141.0079 -9.0227,1.3485 -28.7291,2.1545 -52.2885,2.1384 -35.3012,-0.024 -39.1682,-0.3223 -58.3094,-4.4979 -40.4515,-8.8246 -91.997,-29.1901 -120.0509,-47.432 -51.7422,-33.6449 -91.6685,-81.7129 -107.8325,-129.8211 -2.6709,-7.9495 -5.4583,-14.6543 -6.1942,-14.8996 -0.7359,-0.2453 -6.0203,1.4279 -11.7432,3.7183 -5.7228,2.2903 -19.8171,7.6767 -31.3206,11.9696 -11.5034,4.293 -31.4133,11.772 -44.2441,16.6202 -12.8308,4.8481 -31.2926,11.8169 -41.0263,15.4861 -9.7337,3.6693 -26.0236,9.8601 -36.1998,13.7573 -10.1761,3.8972 -31.1719,11.8732 -46.65738,17.7244 -54.01383,20.4093 -70.0449,26.8765 -78.58216,31.7013 l -8.59604,4.858 1.04608,13.0697 c 2.06813,25.8392 2.49606,33.0825 4.85932,82.2514 1.31846,27.4313 2.80311,57.1151 3.29923,65.9639 0.49609,8.8488 1.18318,21.1567 1.52684,27.3509 0.34365,6.1942 1.43104,49.6338 2.41643,96.5326 2.75628,131.1829 -0.65903,234.8424 -11.18473,339.4729 -2.49688,24.8202 -3.6295,53.8818 -4.95355,127.1013 -0.94409,52.2081 -2.74243,127.1415 -3.99629,166.5187 -1.25388,39.3773 -3.36622,117.2067 -4.69411,172.9543 -1.32789,55.7475 -2.81061,114.0291 -3.29496,129.5145 -0.48434,15.4855 -2.68351,104.472 -4.88705,197.748 -2.20355,93.2759 -5.05296,201.8751 -6.33207,241.3315 -3.88856,119.9509 -4.85079,188.3824 -2.6489,188.3824 1.0518,0 13.65014,1.4428 27.9963,3.2063 14.34615,1.7635 43.45978,5.0006 64.69695,7.1935 21.23717,2.1929 44.76699,4.7048 52.28849,5.5821 7.5215,0.8773 28.8793,2.7206 47.4619,4.0961 18.5825,1.3756 37.0443,2.8477 41.0263,3.2716 7.1836,0.7649 101.9914,6.3972 135.9501,8.0767 9.7337,0.4814 20.2316,1.1855 23.3287,1.5645 16.2384,1.9878 139.9386,4.964 221.2205,5.3227 30.086,0.1335 84.7476,-0.4546 121.4702,-1.3052 z"
         style="fill:#333333;fill-opacity:1;stroke:#000000;stroke-width:1.60887659;stroke-opacity:1" />
      <path
         inkscape:connector-curvature="0"
         id="path9724"
         d="m 637.3217,4469.8781 c 49.1905,-36.4601 77.9812,-57.7746 102.5134,-75.8937 10.1761,-7.5159 33.344,-24.6898 51.484,-38.1642 35.3607,-26.2658 58.1064,-43.0833 103.5118,-76.5334 15.7845,-11.6284 29.0526,-22.0637 29.4846,-23.1897 0.4321,-1.1259 -4.3709,-9.7327 -10.6733,-19.1262 l -11.4588,-17.0791 -4.3504,3.1633 c -2.3925,1.7398 -43.8079,32.902 -92.034,69.2493 -48.2261,36.3473 -120.4445,90.7553 -160.4854,120.9066 -40.0409,30.1514 -72.8017,55.3777 -72.8017,56.0585 0,2.5231 21.0235,30.6804 22.9074,30.6804 0.7318,0 19.5879,-13.5323 41.9024,-30.0718 z"
         style="fill:#333333;fill-opacity:1;stroke:#000000;stroke-width:1.60887659;stroke-opacity:1" />
      <path
         inkscape:connector-curvature="0"
         id="path9726"
         d="m -746.84174,4452.654 c 6.59541,-9.1353 12.15643,-17.2538 12.35781,-18.0411 0.2014,-0.7873 -13.52079,-11.5445 -30.49373,-23.905 -16.97294,-12.3605 -44.61579,-32.682 -61.42855,-45.1588 -16.81276,-12.4769 -47.58253,-35.2562 -68.37726,-50.6206 -20.79473,-15.3645 -46.13453,-34.0879 -56.31068,-41.6075 -10.17614,-7.5197 -25.01803,-18.4849 -32.98197,-24.3671 -7.96394,-5.8823 -28.59778,-21.1689 -45.85298,-33.9702 -17.2552,-12.8014 -32.1821,-23.7698 -33.1709,-24.3742 -1.6734,-1.023 -29.6991,34.182 -29.4847,37.0376 0.05,0.6639 17.1345,13.515 37.9658,28.558 20.8313,15.043 48.8453,35.3477 62.25329,45.1215 133.27166,97.1487 194.74523,141.9676 211.00794,153.841 10.61859,7.7526 20.03052,14.0957 20.9154,14.0959 0.88488,1e-4 7.00513,-7.4741 13.60053,-16.6095 z"
         style="fill:#333333;fill-opacity:1;stroke:#000000;stroke-width:1.60887659;stroke-opacity:1" />
      <path
         inkscape:connector-curvature="0"
         id="path9728"
         d="m 608.5746,4433.4005 c 20.4276,-15.3649 68.273,-51.4109 106.3229,-80.1021 38.0499,-28.6912 94.5215,-71.2536 125.4924,-94.5833 30.9708,-23.3295 56.3107,-42.8502 56.3107,-43.3791 0,-0.5289 -57.9899,-87.841 -128.8666,-194.0269 -70.8764,-106.1858 -135.402,-203.6696 -143.3901,-216.6305 -28.8683,-46.8398 -56.2909,-79.7908 -90.0221,-108.1701 -3.0974,-2.6059 -5.5137,-3.6417 -6.1382,-2.6313 -1.7893,2.8951 -3.7405,26.0687 -11.2459,133.5623 -2.3985,34.3525 -4.9912,94.7534 -6.4915,151.2344 -0.4819,18.1401 -1.3096,39.8599 -1.8394,48.2663 -1.185,18.8014 -0.9269,162.7752 0.4736,264.3905 0.8817,63.9647 1.4601,76.9682 3.8285,86.0749 2.4561,9.4439 5.9417,15.0935 29.1353,47.2216 14.49,20.0719 27.0077,36.5428 27.8173,36.602 0.8095,0.059 18.1853,-12.4637 38.6131,-27.8287 z"
         style="fill:#333333;fill-opacity:1;stroke:#000000;stroke-width:1.60887659;stroke-opacity:1" />
      <path
         inkscape:connector-curvature="0"
         id="path9730"
         d="m -702.08322,4386.9263 28.88392,-40.6241 2.60693,-13.6755 c 2.28673,-11.9956 5.30279,-41.3546 8.26406,-80.4438 7.3748,-97.3487 6.60991,-325.9438 -1.52621,-456.1165 -0.44246,-7.0791 -1.61572,-27.7129 -2.60724,-45.853 -0.99153,-18.1401 -2.00737,-34.7919 -2.25743,-37.0042 -0.25006,-2.2122 -0.53722,-5.6511 -0.63811,-7.6421 -0.10088,-1.991 -1.03361,-3.62 -2.0727,-3.62 -4.18593,0 -33.93125,24.645 -55.34241,45.853 -25.44192,25.2005 -36.52882,38.2458 -64.26574,75.6172 -10.50809,14.1581 -33.94034,45.6519 -52.07166,69.9861 -18.13131,24.3343 -43.46148,58.362 -56.28928,75.6172 -29.23012,39.3187 -61.71435,82.9332 -116.57121,156.5127 -23.6052,31.6618 -42.9186,58.2104 -42.9186,58.997 0,0.7866 6.697,6.4043 14.8821,12.4838 48.68206,36.1582 89.02424,66.0262 154.04996,114.0533 96.40725,71.2051 135.46516,100.1169 147.21221,108.971 5.3093,4.0018 10.13121,7.3291 10.71538,7.394 0.58416,0.065 14.05989,-18.1628 29.94603,-40.5061 z"
         style="fill:#333333;fill-opacity:1;stroke:#000000;stroke-width:1.60887659;stroke-opacity:1" />
      <path
         inkscape:connector-curvature="0"
         id="path9732"
         d="m -44.354,3768.7936 c 19.4438,-1.0774 60.1547,-9.2794 81.1101,-16.3413 19.1169,-6.4423 50.7516,-21.5044 65.1595,-31.0241 28.623,-18.9119 54.3201,-44.7548 72.9645,-73.3785 16.2586,-24.9608 37.8251,-73.1846 34.8688,-77.9681 -0.5516,-0.8925 -6.2159,-4.6122 -12.5873,-8.266 -6.3714,-3.6538 -14.3804,-8.4346 -17.7976,-10.6239 -3.4173,-2.1893 -6.7366,-3.3737 -7.3763,-2.632 -0.6396,0.7417 -2.4757,4.9685 -4.08,9.393 -19.1222,52.7343 -64.1066,102.3669 -116.6717,128.7272 -20.6758,10.3684 -31.3725,14.2248 -57.4629,20.7163 -27.7583,6.9065 -43.9627,9.0341 -68.6875,9.0187 -27.4561,-0.017 -50.0459,-4.029 -83.0036,-14.741 -67.2127,-21.8457 -120.1244,-74.6305 -144.8732,-144.5257 -2.0366,-5.7517 -3.836,-10.6563 -3.9986,-10.8991 -0.1627,-0.2428 -4.9238,2.3187 -10.5802,5.6922 -5.6565,3.3735 -17.0114,10.0881 -25.2333,14.9213 -17.5975,10.3448 -17.266,8.395 -5.9758,35.1428 21.5642,51.0885 63.2624,95.4582 117.88,125.4325 28.9056,15.8634 57.6399,26.0131 108.1764,38.2107 12.547,3.0284 39.4064,5.1931 54.7018,4.4088 4.8669,-0.2496 15.427,-0.8183 23.4669,-1.2638 z"
         style="fill:#333333;fill-opacity:1;stroke:#000000;stroke-width:1.60887659;stroke-opacity:1" />
      <path
         inkscape:connector-curvature="0"
         id="path9734"
         d="m -42.1821,3705.9829 c 58.4741,-7.7123 107.4326,-29.9905 144.6846,-65.8375 13.6024,-13.0895 31.5944,-34.4589 30.1927,-35.8606 -0.5215,-0.5216 -5.8504,0.5496 -11.8418,2.3804 -18.1936,5.5595 -68.8442,16.1059 -93.7506,19.5207 -46.4679,6.371 -121.9461,7.6089 -168.1276,2.7572 -36.2746,-3.8108 -98.0224,-16.6913 -119.9399,-25.0193 -4.7609,-1.809 -9.2008,-2.7444 -9.8665,-2.0788 -2.0088,2.0089 18.1748,27.6436 32.6123,41.4201 16.4587,15.7053 29.5946,25.1879 49.7323,35.9014 25.8363,13.7452 59.2306,24.0748 90.9015,28.1178 11.936,1.5238 38.7604,0.8937 55.403,-1.3014 z"
         style="fill:#333333;fill-opacity:1;stroke:#000000;stroke-width:1.60887659;stroke-opacity:1" />
      <path
         inkscape:connector-curvature="0"
         id="path9736"
         d="m -32.4256,3623.1057 c 54.1648,-3.6765 91.5831,-9.1839 130.319,-19.1809 45.8017,-11.8206 43.1228,-10.5663 50.157,-23.4833 6.4993,-11.9348 15.0061,-32.6748 13.8686,-33.8123 -0.3748,-0.3747 -7.8749,0.7835 -16.6669,2.5739 -95.6707,19.482 -219.4383,22.5512 -352.3454,8.7376 -22.1454,-2.3017 -79.8204,-10.9902 -86.3725,-13.0117 -1.9684,-0.6072 -2.8138,0.011 -2.8097,2.0553 0.01,3.5205 7.67,24.0587 12.9704,34.7631 l 3.8157,7.7061 17.7483,5.4437 c 44.3008,13.5879 66.3563,18.4909 105.432,23.4377 47.3703,5.9968 84.663,7.433 123.8835,4.7708 z"
         style="fill:#333333;fill-opacity:1;stroke:#000000;stroke-width:1.60887659;stroke-opacity:1" />
    </g>
  </g>
  <g
     inkscape:groupmode="layer"
     id="layer2"
     inkscape:label="Content"
     transform="translate(1125.6846,-3185.5844)">
    <g
       id="g8065"
       transform="translate(-373.80273,33.079888)">
      <g
         style="display:inline;fill:#333333;fill-opacity:1"
         transform="matrix(1.1091958,0,0,1.1091958,472.08612,-278.81843)"
         id="g2978">
        <path
           style="fill:#333333;fill-opacity:1;stroke:#000000;stroke-width:1.60887659;stroke-opacity:1"
           d="m -237.1354,5587.4765 c -36.2305,-1.1541 -49.0174,-1.7063 -111.4345,-4.8127 -44.2836,-2.204 -108.2212,-6.2003 -115.0346,-7.1902 -3.0971,-0.4499 -23.369,-2.2825 -45.0486,-4.0726 -62.71123,-5.1776 -118.67201,-10.9107 -156.86545,-16.0707 -19.46741,-2.6299 -36.14042,-4.7822 -37.05114,-4.7829 -1.01876,-6e-4 -1.4722,-4.1795 -1.17852,-10.861 0.48305,-10.9898 2.06824,-75.629 9.24255,-376.8793 3.91199,-164.2662 4.90258,-200.9697 6.4481,-238.9182 0.88987,-21.8501 1.56933,-47.7466 4.89663,-186.6297 1.29318,-53.9778 3.4011,-141.9431 4.68426,-195.4785 1.28316,-53.5354 2.80846,-114.9795 3.38953,-136.5425 0.70022,-25.9835 0.51221,-39.0057 -0.55749,-38.6131 -1.45729,0.5349 -26.09113,34.3663 -67.50815,92.7137 -8.60476,12.1222 -15.87334,20.8782 -16.83707,20.2826 -0.9327,-0.5764 -32.54782,-23.5307 -70.25582,-51.0095 -37.70799,-27.4788 -85.57386,-62.3532 -106.36859,-77.4988 -20.79473,-15.1456 -56.99445,-41.5507 -80.44384,-58.6781 -23.4494,-17.1274 -52.6064,-38.346 -64.7935,-47.1523 -15.0168,-10.8511 -21.699,-16.5973 -20.7332,-17.8289 1.4454,-1.8434 63.8737,-85.7168 113.72454,-152.7909 15.01964,-20.2088 43.59829,-58.5983 63.50814,-85.3099 19.90985,-26.7117 60.3925,-81.1286 89.96143,-120.9266 29.56895,-39.798 57.89767,-77.4443 62.95273,-83.6584 27.78918,-34.1609 60.91075,-65.8343 92.67969,-88.6274 16.79943,-12.053 29.56805,-18.5307 56.87495,-28.8532 19.0162,-7.1885 36.87489,-13.9535 89.29262,-33.8248 51.9582,-19.697 104.5049,-39.4414 144.8805,-54.4389 14.2605,-5.297 29.7033,-12.5672 41.8308,-19.6932 10.5737,-6.213 23.3879,-13.6428 28.476,-16.5107 5.0881,-2.8678 9.251,-6.09 9.251,-7.1604 0,-1.9534 6.0714,-2.4277 8.9301,-0.6976 8.2494,4.9927 121.6921,18.8838 181.1824,22.1858 36.6495,2.0342 103.2358,2.01 136.4895,-0.05 51.1001,-3.1651 141.353,-16.1199 147.5581,-21.1803 2.0657,-1.6846 5.9867,0.2985 36.6582,18.5405 8.8489,5.2629 19.7088,10.8759 24.1332,12.4733 4.4244,1.5974 19.6283,7.334 33.7864,12.748 14.1581,5.4141 33.3439,12.6249 42.6352,16.0241 9.2912,3.3992 22.6851,8.4926 29.7642,11.3188 7.079,2.8261 19.3869,7.5527 27.3509,10.5035 20.2993,7.5214 61.577,23.0088 90.0971,33.8043 13.2732,5.0243 34.269,12.9325 46.6574,17.5738 31.0111,11.6182 32.5112,12.3295 43.4396,20.5984 28.2135,21.3473 68.7536,70.3634 94.1097,113.7857 3.8695,6.6265 73.1234,110.9888 153.8977,231.9161 80.7743,120.9273 147.0679,220.6119 147.3192,221.5211 0.2515,0.9093 -40.8106,31.9685 -91.2489,69.0204 -50.4383,37.0519 -97.8599,71.8905 -105.3814,77.419 -7.5215,5.5284 -24.1734,17.7642 -37.0042,27.1905 -12.8307,9.4264 -29.8446,21.9418 -37.8086,27.8121 -49.6526,36.5997 -66.1735,48.8049 -67.7948,50.0851 -1.9121,1.51 -13.3612,-13.3379 -54.4798,-70.6534 -11.5034,-16.0348 -21.7528,-29.1994 -22.7762,-29.2546 -1.3278,-0.072 -1.7023,4.623 -1.3079,16.3906 1.8831,56.1795 2.8856,99.4403 6.4409,277.9335 8.4102,422.2541 8.5011,426.6549 11.2415,544.6047 0.4523,19.4674 1.1661,44.4452 1.5864,55.5062 0.42,11.061 1.4801,59.9307 2.3557,108.5992 0.8754,48.6685 1.9847,99.7638 2.4651,113.545 l 0.8735,25.0568 -15.7238,1.9876 c -8.6482,1.0932 -25.1358,3.3484 -36.6392,5.0117 -21.0551,3.0443 -81.6272,9.6535 -117.448,12.8151 -16.7227,1.4759 -30.5655,2.8009 -59.7313,5.7172 -36.0232,3.6019 -147.7218,9.7953 -216.9954,12.0318 -55.4615,1.7907 -275.6856,1.7461 -332.6155,-0.068 z"
           id="path2953"
           inkscape:connector-curvature="0" />
        <path
           style="fill:#333333;fill-opacity:1;stroke:#000000;stroke-width:1.60887659;stroke-opacity:1"
           d="m 41.5827,5581.1191 c 75.7436,-1.7543 93.0067,-2.4319 143.9945,-5.6518 7.079,-0.4471 36.4008,-2.2584 65.1595,-4.0251 28.7587,-1.7668 55.9084,-3.5672 60.3328,-4.0008 4.4244,-0.4336 25.0582,-2.2516 45.853,-4.04 20.7947,-1.7883 39.6185,-3.6026 41.8307,-4.0315 2.2123,-0.429 23.2081,-2.9198 46.6575,-5.5354 23.4493,-2.6154 52.5901,-5.9955 64.7573,-7.5113 l 22.122,-2.7559 v -21.2635 c 0,-21.8849 -2.4257,-149.1236 -3.9857,-209.0668 -0.4836,-18.5825 -2.3222,-106.5478 -4.086,-195.4785 -1.7638,-88.9306 -3.9131,-185.2219 -4.7763,-213.9806 -0.8632,-28.7586 -3.3735,-147.1317 -5.5786,-263.0513 -2.2051,-115.9195 -4.8109,-221.2608 -5.7904,-234.0916 -3.3357,-43.6918 -3.9045,-79.577 -3.9026,-246.1581 0,-164.8642 1.0435,-215.5684 6.4607,-314.5353 2.679,-48.9412 6.9012,-112.9749 8.0094,-121.4702 1.8819,-14.4263 4.0345,-35.8886 3.6354,-36.2459 -0.4923,-0.4408 -37.3818,-14.6243 -64.7987,-24.9142 -35.9503,-13.4926 -89.0308,-33.4703 -129.5145,-48.7448 -12.8308,-4.8411 -34.9126,-13.1716 -49.0707,-18.5123 -14.1581,-5.3407 -32.5375,-12.2974 -40.8431,-15.4593 -8.3055,-3.162 -16.0252,-5.749 -17.1547,-5.749 -1.1296,0 -4.0274,5.2489 -6.4396,11.6643 -8.8293,23.4821 -12.0136,30.6873 -20.8052,47.0776 -41.7675,77.8671 -115.4167,126.0318 -215.6173,141.0079 -9.0227,1.3485 -28.7291,2.1545 -52.2885,2.1384 -35.3012,-0.024 -39.1682,-0.3223 -58.3094,-4.4979 -40.4515,-8.8246 -91.997,-29.1901 -120.0509,-47.432 -51.7422,-33.6449 -91.6685,-81.7129 -107.8325,-129.8211 -2.6709,-7.9495 -5.4583,-14.6543 -6.1942,-14.8996 -0.7359,-0.2453 -6.0203,1.4279 -11.7432,3.7183 -5.7228,2.2903 -19.8171,7.6767 -31.3206,11.9696 -11.5034,4.293 -31.4133,11.772 -44.2441,16.6202 -12.8308,4.8481 -31.2926,11.8169 -41.0263,15.4861 -9.7337,3.6693 -26.0236,9.8601 -36.1998,13.7573 -10.1761,3.8972 -31.1719,11.8732 -46.65738,17.7244 -54.01383,20.4093 -70.0449,26.8765 -78.58216,31.7013 l -8.59604,4.858 1.04608,13.0697 c 2.06813,25.8392 2.49606,33.0825 4.85932,82.2514 1.31846,27.4313 2.80311,57.1151 3.29923,65.9639 0.49609,8.8488 1.18318,21.1567 1.52684,27.3509 0.34365,6.1942 1.43104,49.6338 2.41643,96.5326 2.75628,131.1829 -0.65903,234.8424 -11.18473,339.4729 -2.49688,24.8202 -3.6295,53.8818 -4.95355,127.1013 -0.94409,52.2081 -2.74243,127.1415 -3.99629,166.5187 -1.25388,39.3773 -3.36622,117.2067 -4.69411,172.9543 -1.32789,55.7475 -2.81061,114.0291 -3.29496,129.5145 -0.48434,15.4855 -2.68351,104.472 -4.88705,197.748 -2.20355,93.2759 -5.05296,201.8751 -6.33207,241.3315 -3.88856,119.9509 -4.85079,188.3824 -2.6489,188.3824 1.0518,0 13.65014,1.4428 27.9963,3.2063 14.34615,1.7635 43.45978,5.0006 64.69695,7.1935 21.23717,2.1929 44.76699,4.7048 52.28849,5.5821 7.5215,0.8773 28.8793,2.7206 47.4619,4.0961 18.5825,1.3756 37.0443,2.8477 41.0263,3.2716 7.1836,0.7649 101.9914,6.3972 135.9501,8.0767 9.7337,0.4814 20.2316,1.1855 23.3287,1.5645 16.2384,1.9878 139.9386,4.964 221.2205,5.3227 30.086,0.1335 84.7476,-0.4546 121.4702,-1.3052 z"
           id="path2951"
           inkscape:connector-curvature="0" />
        <path
           style="fill:#333333;fill-opacity:1;stroke:#000000;stroke-width:1.60887659;stroke-opacity:1"
           d="m 637.3217,4469.8781 c 49.1905,-36.4601 77.9812,-57.7746 102.5134,-75.8937 10.1761,-7.5159 33.344,-24.6898 51.484,-38.1642 35.3607,-26.2658 58.1064,-43.0833 103.5118,-76.5334 15.7845,-11.6284 29.0526,-22.0637 29.4846,-23.1897 0.4321,-1.1259 -4.3709,-9.7327 -10.6733,-19.1262 l -11.4588,-17.0791 -4.3504,3.1633 c -2.3925,1.7398 -43.8079,32.902 -92.034,69.2493 -48.2261,36.3473 -120.4445,90.7553 -160.4854,120.9066 -40.0409,30.1514 -72.8017,55.3777 -72.8017,56.0585 0,2.5231 21.0235,30.6804 22.9074,30.6804 0.7318,0 19.5879,-13.5323 41.9024,-30.0718 z"
           id="path2949"
           inkscape:connector-curvature="0" />
        <path
           style="fill:#333333;fill-opacity:1;stroke:#000000;stroke-width:1.60887659;stroke-opacity:1"
           d="m -746.84174,4452.654 c 6.59541,-9.1353 12.15643,-17.2538 12.35781,-18.0411 0.2014,-0.7873 -13.52079,-11.5445 -30.49373,-23.905 -16.97294,-12.3605 -44.61579,-32.682 -61.42855,-45.1588 -16.81276,-12.4769 -47.58253,-35.2562 -68.37726,-50.6206 -20.79473,-15.3645 -46.13453,-34.0879 -56.31068,-41.6075 -10.17614,-7.5197 -25.01803,-18.4849 -32.98197,-24.3671 -7.96394,-5.8823 -28.59778,-21.1689 -45.85298,-33.9702 -17.2552,-12.8014 -32.1821,-23.7698 -33.1709,-24.3742 -1.6734,-1.023 -29.6991,34.182 -29.4847,37.0376 0.05,0.6639 17.1345,13.515 37.9658,28.558 20.8313,15.043 48.8453,35.3477 62.25329,45.1215 133.27166,97.1487 194.74523,141.9676 211.00794,153.841 10.61859,7.7526 20.03052,14.0957 20.9154,14.0959 0.88488,1e-4 7.00513,-7.4741 13.60053,-16.6095 z"
           id="path2947"
           inkscape:connector-curvature="0" />
        <path
           style="fill:#333333;fill-opacity:1;stroke:#000000;stroke-width:1.60887659;stroke-opacity:1"
           d="m 608.5746,4433.4005 c 20.4276,-15.3649 68.273,-51.4109 106.3229,-80.1021 38.0499,-28.6912 94.5215,-71.2536 125.4924,-94.5833 30.9708,-23.3295 56.3107,-42.8502 56.3107,-43.3791 0,-0.5289 -57.9899,-87.841 -128.8666,-194.0269 -70.8764,-106.1858 -135.402,-203.6696 -143.3901,-216.6305 -28.8683,-46.8398 -56.2909,-79.7908 -90.0221,-108.1701 -3.0974,-2.6059 -5.5137,-3.6417 -6.1382,-2.6313 -1.7893,2.8951 -3.7405,26.0687 -11.2459,133.5623 -2.3985,34.3525 -4.9912,94.7534 -6.4915,151.2344 -0.4819,18.1401 -1.3096,39.8599 -1.8394,48.2663 -1.185,18.8014 -0.9269,162.7752 0.4736,264.3905 0.8817,63.9647 1.4601,76.9682 3.8285,86.0749 2.4561,9.4439 5.9417,15.0935 29.1353,47.2216 14.49,20.0719 27.0077,36.5428 27.8173,36.602 0.8095,0.059 18.1853,-12.4637 38.6131,-27.8287 z"
           id="path2945"
           inkscape:connector-curvature="0" />
        <path
           style="fill:#333333;fill-opacity:1;stroke:#000000;stroke-width:1.60887659;stroke-opacity:1"
           d="m -702.08322,4386.9263 28.88392,-40.6241 2.60693,-13.6755 c 2.28673,-11.9956 5.30279,-41.3546 8.26406,-80.4438 7.3748,-97.3487 6.60991,-325.9438 -1.52621,-456.1165 -0.44246,-7.0791 -1.61572,-27.7129 -2.60724,-45.853 -0.99153,-18.1401 -2.00737,-34.7919 -2.25743,-37.0042 -0.25006,-2.2122 -0.53722,-5.6511 -0.63811,-7.6421 -0.10088,-1.991 -1.03361,-3.62 -2.0727,-3.62 -4.18593,0 -33.93125,24.645 -55.34241,45.853 -25.44192,25.2005 -36.52882,38.2458 -64.26574,75.6172 -10.50809,14.1581 -33.94034,45.6519 -52.07166,69.9861 -18.13131,24.3343 -43.46148,58.362 -56.28928,75.6172 -29.23012,39.3187 -61.71435,82.9332 -116.57121,156.5127 -23.6052,31.6618 -42.9186,58.2104 -42.9186,58.997 0,0.7866 6.697,6.4043 14.8821,12.4838 48.68206,36.1582 89.02424,66.0262 154.04996,114.0533 96.40725,71.2051 135.46516,100.1169 147.21221,108.971 5.3093,4.0018 10.13121,7.3291 10.71538,7.394 0.58416,0.065 14.05989,-18.1628 29.94603,-40.5061 z"
           id="path2943"
           inkscape:connector-curvature="0" />
        <path
           style="fill:#333333;fill-opacity:1;stroke:#000000;stroke-width:1.60887659;stroke-opacity:1"
           d="m -44.354,3768.7936 c 19.4438,-1.0774 60.1547,-9.2794 81.1101,-16.3413 19.1169,-6.4423 50.7516,-21.5044 65.1595,-31.0241 28.623,-18.9119 54.3201,-44.7548 72.9645,-73.3785 16.2586,-24.9608 37.8251,-73.1846 34.8688,-77.9681 -0.5516,-0.8925 -6.2159,-4.6122 -12.5873,-8.266 -6.3714,-3.6538 -14.3804,-8.4346 -17.7976,-10.6239 -3.4173,-2.1893 -6.7366,-3.3737 -7.3763,-2.632 -0.6396,0.7417 -2.4757,4.9685 -4.08,9.393 -19.1222,52.7343 -64.1066,102.3669 -116.6717,128.7272 -20.6758,10.3684 -31.3725,14.2248 -57.4629,20.7163 -27.7583,6.9065 -43.9627,9.0341 -68.6875,9.0187 -27.4561,-0.017 -50.0459,-4.029 -83.0036,-14.741 -67.2127,-21.8457 -120.1244,-74.6305 -144.8732,-144.5257 -2.0366,-5.7517 -3.836,-10.6563 -3.9986,-10.8991 -0.1627,-0.2428 -4.9238,2.3187 -10.5802,5.6922 -5.6565,3.3735 -17.0114,10.0881 -25.2333,14.9213 -17.5975,10.3448 -17.266,8.395 -5.9758,35.1428 21.5642,51.0885 63.2624,95.4582 117.88,125.4325 28.9056,15.8634 57.6399,26.0131 108.1764,38.2107 12.547,3.0284 39.4064,5.1931 54.7018,4.4088 4.8669,-0.2496 15.427,-0.8183 23.4669,-1.2638 z"
           id="path2941"
           inkscape:connector-curvature="0" />
        <path
           style="fill:#333333;fill-opacity:1;stroke:#000000;stroke-width:1.60887659;stroke-opacity:1"
           d="m -42.1821,3705.9829 c 58.4741,-7.7123 107.4326,-29.9905 144.6846,-65.8375 13.6024,-13.0895 31.5944,-34.4589 30.1927,-35.8606 -0.5215,-0.5216 -5.8504,0.5496 -11.8418,2.3804 -18.1936,5.5595 -68.8442,16.1059 -93.7506,19.5207 -46.4679,6.371 -121.9461,7.6089 -168.1276,2.7572 -36.2746,-3.8108 -98.0224,-16.6913 -119.9399,-25.0193 -4.7609,-1.809 -9.2008,-2.7444 -9.8665,-2.0788 -2.0088,2.0089 18.1748,27.6436 32.6123,41.4201 16.4587,15.7053 29.5946,25.1879 49.7323,35.9014 25.8363,13.7452 59.2306,24.0748 90.9015,28.1178 11.936,1.5238 38.7604,0.8937 55.403,-1.3014 z"
           id="path2939"
           inkscape:connector-curvature="0" />
        <path
           style="fill:#333333;fill-opacity:1;stroke:#000000;stroke-width:1.60887659;stroke-opacity:1"
           d="m -32.4256,3623.1057 c 54.1648,-3.6765 91.5831,-9.1839 130.319,-19.1809 45.8017,-11.8206 43.1228,-10.5663 50.157,-23.4833 6.4993,-11.9348 15.0061,-32.6748 13.8686,-33.8123 -0.3748,-0.3747 -7.8749,0.7835 -16.6669,2.5739 -95.6707,19.482 -219.4383,22.5512 -352.3454,8.7376 -22.1454,-2.3017 -79.8204,-10.9902 -86.3725,-13.0117 -1.9684,-0.6072 -2.8138,0.011 -2.8097,2.0553 0.01,3.5205 7.67,24.0587 12.9704,34.7631 l 3.8157,7.7061 17.7483,5.4437 c 44.3008,13.5879 66.3563,18.4909 105.432,23.4377 47.3703,5.9968 84.663,7.433 123.8835,4.7708 z"
           id="path2888"
           inkscape:connector-curvature="0" />
      </g>
      <g
         id="g7406">
        <path
           sodipodi:nodetypes="cscccccssc"
           style="opacity:1;fill:#ff0000;fill-opacity:1;fill-rule:evenodd;stroke:none;stroke-width:15.91692924;stroke-linecap:square;stroke-linejoin:miter;stroke-miterlimit:4;stroke-dasharray:none;stroke-opacity:1;paint-order:markers stroke fill"
           d="m 326.78897,4975.1998 c 81.24003,-14.2188 193.44083,-73.5081 238.99508,-139.7174 32.75408,-47.6054 57.31161,-97.3851 71.96052,-145.8691 l 3.9336,-13.0189 15.48517,6.1963 c 8.51679,3.4081 15.98315,6.5394 16.59164,6.959 1.29613,0.8939 -4.38591,20.8149 -10.82257,37.9441 -20.91919,55.6696 -53.51135,109.7652 -92.73331,153.917 -45.67515,51.4159 -168.86233,100.1671 -237.29071,99.1474 -25.27229,-0.3767 -26.21355,-2.9233 -6.11942,-5.5584 z"
           id="path5725"
           inkscape:connector-curvature="0" />
        <text
           xml:space="preserve"
           style="font-style:normal;font-variant:normal;font-weight:normal;font-stretch:normal;font-size:233.58831787px;line-height:1.25;font-family:Akashi;-inkscape-font-specification:'Akashi, Normal';font-variant-ligatures:normal;font-variant-caps:normal;font-variant-numeric:normal;font-feature-settings:normal;text-align:start;letter-spacing:0px;word-spacing:0px;writing-mode:lr-tb;text-anchor:start;fill:#ffffff;fill-opacity:1;stroke:none;stroke-width:0.58397079"
           x="67.779564"
           y="4290.7788"
           id="text5723"><tspan
             sodipodi:role="line"
             id="tspan5721"
             x="67.779564"
             y="4290.7788"
             style="font-style:normal;font-variant:normal;font-weight:normal;font-stretch:normal;font-size:233.58831787px;font-family:Akashi;-inkscape-font-specification:'Akashi, Normal';font-variant-ligatures:normal;font-variant-caps:normal;font-variant-numeric:normal;font-feature-settings:normal;text-align:start;writing-mode:lr-tb;text-anchor:start;fill:#ffffff;stroke-width:0.58397079">JUST</tspan></text>
        <text
           id="text5748"
           y="4500.8359"
           x="67.779564"
           style="font-style:normal;font-variant:normal;font-weight:normal;font-stretch:normal;font-size:233.58831787px;line-height:1.25;font-family:Akashi;-inkscape-font-specification:'Akashi, Normal';font-variant-ligatures:normal;font-variant-caps:normal;font-variant-numeric:normal;font-feature-settings:normal;text-align:start;letter-spacing:0px;word-spacing:0px;writing-mode:lr-tb;text-anchor:start;fill:#ffffff;fill-opacity:1;stroke:none;stroke-width:0.58397079"
           xml:space="preserve"><tspan
             style="font-style:normal;font-variant:normal;font-weight:normal;font-stretch:normal;font-size:233.58831787px;font-family:Akashi;-inkscape-font-specification:'Akashi, Normal';font-variant-ligatures:normal;font-variant-caps:normal;font-variant-numeric:normal;font-feature-settings:normal;text-align:start;writing-mode:lr-tb;text-anchor:start;fill:#ffffff;stroke-width:0.58397079"
             y="4500.8359"
             x="67.779564"
             id="tspan5746"
             sodipodi:role="line">KEEP</tspan></text>
        <text
           xml:space="preserve"
           style="font-style:normal;font-variant:normal;font-weight:normal;font-stretch:normal;font-size:233.58831787px;line-height:1.25;font-family:Akashi;-inkscape-font-specification:'Akashi, Normal';font-variant-ligatures:normal;font-variant-caps:normal;font-variant-numeric:normal;font-feature-settings:normal;text-align:start;letter-spacing:0px;word-spacing:0px;writing-mode:lr-tb;text-anchor:start;fill:#ffffff;fill-opacity:1;stroke:none;stroke-width:0.58397079"
           x="67.779564"
           y="4725.7793"
           id="text5752"><tspan
             sodipodi:role="line"
             id="tspan5750"
             x="67.779564"
             y="4725.7793"
             style="font-style:normal;font-variant:normal;font-weight:normal;font-stretch:normal;font-size:233.58831787px;font-family:Akashi;-inkscape-font-specification:'Akashi, Normal';font-variant-ligatures:normal;font-variant-caps:normal;font-variant-numeric:normal;font-feature-settings:normal;text-align:start;writing-mode:lr-tb;text-anchor:start;fill:#ffffff;stroke-width:0.58397079">SHIP</tspan></text>
        <text
           id="text5756"
           y="4942.4526"
           x="67.779564"
           style="font-style:normal;font-variant:normal;font-weight:normal;font-stretch:normal;font-size:233.58831787px;line-height:1.25;font-family:Akashi;-inkscape-font-specification:'Akashi, Normal';font-variant-ligatures:normal;font-variant-caps:normal;font-variant-numeric:normal;font-feature-settings:normal;text-align:start;letter-spacing:0px;word-spacing:0px;writing-mode:lr-tb;text-anchor:start;fill:#ffffff;fill-opacity:1;stroke:none;stroke-width:0.58397079"
           xml:space="preserve"><tspan
             style="font-style:normal;font-variant:normal;font-weight:normal;font-stretch:normal;font-size:233.58831787px;font-family:Akashi;-inkscape-font-specification:'Akashi, Normal';font-variant-ligatures:normal;font-variant-caps:normal;font-variant-numeric:normal;font-feature-settings:normal;text-align:start;writing-mode:lr-tb;text-anchor:start;fill:#ffffff;stroke-width:0.58397079"
             y="4942.4526"
             x="67.779564"
             id="tspan5754"
             sodipodi:role="line">PING</tspan></text>
        <g
           id="g4829"
           transform="rotate(-7.569787,-258.74401,5692.7201)">
          <path
             id="path4136"
             d="m 870.1733,4663.488 c -21.56413,11.077 -71.46905,36.5237 -92.5564,72.7472 -14.18744,24.4077 -20.62929,51.066 -16.24238,69.6957 l 38.74453,22.5462 c 18.34715,-5.4171 38.3128,-24.1785 52.5072,-48.5434 21.07146,-36.2244 18.54381,-92.1713 17.52001,-116.3992 z m -32.02384,55.025 a 17.204617,17.204617 0 0 1 6.2169,23.5234 17.204617,17.204617 0 0 1 -23.52335,6.2169 17.204617,17.204617 0 0 1 -6.21689,-23.5234 17.204617,17.204617 0 0 1 23.52334,-6.2169 z"
             style="fill:#808080;fill-opacity:1;stroke:none;stroke-width:0.52937281"
             inkscape:connector-curvature="0" />
          <path
             sodipodi:nodetypes="ccczc"
             inkscape:connector-curvature="0"
             id="path4178"
             d="m 758.61521,4775.2554 c -30.35527,-5.9345 -36.6556,22.43 -34.62544,36.9466 11.08279,-7.8461 18.40613,-10.8696 31.53938,-11.0456 0.12397,-4.7615 0.24653,-10.7148 0.88059,-14.9094 0.63405,-4.1946 1.31011,-6.0365 2.20547,-10.9916 z"
             style="fill:#808080;fill-opacity:1;fill-rule:evenodd;stroke:none;stroke-width:0.52937281px;stroke-linecap:butt;stroke-linejoin:miter;stroke-opacity:1" />
          <path
             sodipodi:nodetypes="ccczc"
             inkscape:connector-curvature="0"
             id="path4178-7"
             d="m 828.15866,4815.7241 c 20.15704,23.4597 -1.39103,42.9512 -15.0152,48.3583 1.34598,-13.5122 0.35656,-21.3731 -5.97908,-32.8785 4.07847,-2.4602 9.19392,-5.5081 12.52753,-8.1317 3.33361,-2.6237 4.60097,-4.1215 8.46675,-7.3481 z"
             style="fill:#808080;fill-opacity:1;fill-rule:evenodd;stroke:none;stroke-width:0.52937281px;stroke-linecap:butt;stroke-linejoin:miter;stroke-opacity:1" />
        </g>
      </g>
    </g>
    <flowRoot
       xml:space="preserve"
       id="flowRoot7875"
       style="font-style:normal;font-weight:normal;font-size:40px;line-height:1.25;font-family:sans-serif;letter-spacing:0px;word-spacing:0px;fill:#000000;fill-opacity:1;stroke:none"><flowRegion
         id="flowRegion7877"><rect
           id="rect7879"
           width="144.34933"
           height="149.32689"
           x="3972.0955"
           y="953.62512" /></flowRegion><flowPara
         id="flowPara7881" /></flowRoot>    <g
       style="fill:#808080"
       transform="matrix(0.43641543,0,0,0.43641543,2208.9212,4924.4176)"
       id="g7961">
      <g
         style="fill:#808080"
         id="g7943" />
      <g
         style="fill:#808080"
         id="g7959">
        <path
           style="fill:#808080;stroke:#000000;stroke-width:0.0938"
           inkscape:connector-curvature="0"
           d="m 630.97,190.36 c 1.96,0.77 3.29,2.55 4.9301,3.82 51.68,44.92 103.44,89.76 155.13,134.69 -48.15,59.77 -96.32,119.53 -144.48,179.3 -4.91,-104.44 -9.81,-208.88 -14.67,-313.32 -0.2301,-1.12 -0.6801,-3.36 -0.9101,-4.49 z"
           id="path7945" />
        <path
           style="fill:#808080;stroke:#000000;stroke-width:0.0938"
           inkscape:connector-curvature="0"
           d="m 446.5,269.55 c 44.95,43.28 89.73,86.74 134.84,129.84 -6.08,8.8 -13.28,16.8 -19.81,25.28 -38.34,47.91 -76.69,95.82 -115.04,143.73 -0.01,-99.62 -0.02,-199.23 0.01,-298.85 z"
           id="path7947" />
        <path
           style="fill:#808080;stroke:#000000;stroke-width:0.0938"
           inkscape:connector-curvature="0"
           d="m 800.57,356.56 c 0.65,-0.65 1.31,-1.29 1.99,-1.92 44.28,136.83 88.63,273.64 132.94,410.46 -90.19,28.28 -180.38,56.56 -270.58,84.84 C 659.45,743.25 654.01,636.56 648.53,529.88 699.21,472.1 749.89,414.32 800.57,356.56 Z"
           id="path7949" />
        <path
           style="fill:#808080;stroke:#000000;stroke-width:0.0938"
           inkscape:connector-curvature="0"
           d="m 446.46,589.24 c 47.13,-52.62 94.3,-105.19 141.53,-157.72 20.57,127.91 41.37,255.79 62,383.69 -67.84,10.95 -135.67,21.87 -203.51,32.79 -0.01,-86.26 0.03,-172.51 -0.02,-258.76 z"
           id="path7951" />
        <path
           style="fill:#808080;stroke:#000000;stroke-width:0.0938"
           inkscape:connector-curvature="0"
           d="m 400.39,515.49 c 3.71,-3.02 7.36,-6.12 11.16,-9.02 -54.66,98.11 -109.49,196.12 -164.12,294.25 -68.87,2.9901 -137.74,5.8 -206.62,8.71 119.88,-97.96 239.72,-195.97 359.58,-293.94 z"
           id="path7953" />
        <path
           style="fill:#808080;stroke:#000000;stroke-width:0.0938"
           inkscape:connector-curvature="0"
           d="m 243.9,820.5 c 61.74,-94.85 123.57,-189.64 185.24,-284.54 -0.08,100.63 -0.01,201.2599 -0.03,301.9 C 367.37,832.13 305.64,826.31 243.9,820.5 Z"
           id="path7955" />
        <path
           style="fill:#808080;stroke:#000000;stroke-width:0.0938"
           inkscape:connector-curvature="0"
           d="m 12.11,812.34 c 93.49,19.06 187.85,33.95 282.79,43.6 79.45,7.97 159.29,11.63 239.12,12.57 61.4,0.81 122.95,-0.2 184.06,-6.74 38.53,-3.94 76.84,-10.13 114.64,-18.59 0,5.47 0.01,10.94 -0.01,16.42 -17.01,6.4301 -33.89,13.4901 -49.55,22.81 -10.64,6.44 -21.06,14.28 -27.1299,25.4 -4,6.97 -5.11,15.13 -4.76,23.06 -156.88,0.01 -313.77,0 -470.65,0.01 1.33,-10.56 -5.38,-19.82 -13.26,-26.04 -14.87,-11.88 -32.75,-19.15 -50.4,-25.82 -38.65,-14 -78.76,-23.38 -118.9,-31.94 -28.4,-5.87 -56.89,-11.34 -85.53,-15.93 C 12.37,824.87 12.15,818.61 12.11,812.34 Z"
           id="path7957" />
      </g>
    </g>
    <g
       id="g9700">
      <text
         xml:space="preserve"
         style="font-style:normal;font-variant:normal;font-weight:normal;font-stretch:normal;font-size:233.58831787px;line-height:1.25;font-family:Akashi;-inkscape-font-specification:'Akashi, Normal';font-variant-ligatures:normal;font-variant-caps:normal;font-variant-numeric:normal;font-feature-settings:normal;text-align:start;letter-spacing:0px;word-spacing:0px;writing-mode:lr-tb;text-anchor:start;fill:#ffffff;fill-opacity:1;stroke:none;stroke-width:0.58397079"
         x="2142.8018"
         y="4284.1631"
         id="text7412"><tspan
           sodipodi:role="line"
           id="tspan7410"
           x="2142.8018"
           y="4284.1631"
           style="font-style:normal;font-variant:normal;font-weight:normal;font-stretch:normal;font-size:233.58831787px;font-family:Akashi;-inkscape-font-specification:'Akashi, Normal';font-variant-ligatures:normal;font-variant-caps:normal;font-variant-numeric:normal;font-feature-settings:normal;text-align:start;writing-mode:lr-tb;text-anchor:start;fill:#ffffff;stroke-width:0.58397079">JUST</tspan></text>
      <text
         id="text7416"
         y="4748.9536"
         x="2177.0188"
         style="font-style:normal;font-variant:normal;font-weight:normal;font-stretch:normal;font-size:233.58831787px;line-height:1.25;font-family:Akashi;-inkscape-font-specification:'Akashi, Normal';font-variant-ligatures:normal;font-variant-caps:normal;font-variant-numeric:normal;font-feature-settings:normal;text-align:start;letter-spacing:0px;word-spacing:0px;writing-mode:lr-tb;text-anchor:start;fill:#ffffff;fill-opacity:1;stroke:none;stroke-width:0.58397079"
         xml:space="preserve"><tspan
           style="font-style:normal;font-variant:normal;font-weight:normal;font-stretch:normal;font-size:233.58831787px;font-family:Akashi;-inkscape-font-specification:'Akashi, Normal';font-variant-ligatures:normal;font-variant-caps:normal;font-variant-numeric:normal;font-feature-settings:normal;text-align:start;writing-mode:lr-tb;text-anchor:start;fill:#ffffff;stroke-width:0.58397079"
           y="4748.9536"
           x="2177.0188"
           id="tspan7414"
           sodipodi:role="line">SHIP</tspan></text>
      <text
         id="text8025"
         y="4516.5015"
         x="2148.5046"
         style="font-style:normal;font-variant:normal;font-weight:normal;font-stretch:normal;font-size:233.58831787px;line-height:1.25;font-family:Akashi;-inkscape-font-specification:'Akashi, Normal';font-variant-ligatures:normal;font-variant-caps:normal;font-variant-numeric:normal;font-feature-settings:normal;text-align:start;letter-spacing:0px;word-spacing:0px;writing-mode:lr-tb;text-anchor:start;fill:#ffffff;fill-opacity:1;stroke:none;stroke-width:0.58397079"
         xml:space="preserve"><tspan
           style="font-style:normal;font-variant:normal;font-weight:normal;font-stretch:normal;font-size:233.58831787px;font-family:Akashi;-inkscape-font-specification:'Akashi, Normal';font-variant-ligatures:normal;font-variant-caps:normal;font-variant-numeric:normal;font-feature-settings:normal;text-align:start;writing-mode:lr-tb;text-anchor:start;fill:#ffffff;stroke-width:0.58397079"
           y="4516.5015"
           x="2148.5046"
           id="tspan8023"
           sodipodi:role="line">KEEP</tspan></text>
      <text
         xml:space="preserve"
         style="font-style:normal;font-variant:normal;font-weight:normal;font-stretch:normal;font-size:233.58831787px;line-height:1.25;font-family:Akashi;-inkscape-font-specification:'Akashi, Normal';font-variant-ligatures:normal;font-variant-caps:normal;font-variant-numeric:normal;font-feature-settings:normal;text-align:start;letter-spacing:0px;word-spacing:0px;writing-mode:lr-tb;text-anchor:start;fill:#ffffff;fill-opacity:1;stroke:none;stroke-width:0.58397079"
         x="2177.0188"
         y="4981.3491"
         id="text8029"><tspan
           sodipodi:role="line"
           id="tspan8027"
           x="2177.0188"
           y="4981.3491"
           style="font-style:normal;font-variant:normal;font-weight:normal;font-stretch:normal;font-size:233.58831787px;font-family:Akashi;-inkscape-font-specification:'Akashi, Normal';font-variant-ligatures:normal;font-variant-caps:normal;font-variant-numeric:normal;font-feature-settings:normal;text-align:start;writing-mode:lr-tb;text-anchor:start;fill:#ffffff;stroke-width:0.58397079">PING</tspan></text>
    </g>
    <g
       id="g9718"
       transform="translate(2474.3756,-13.231955)">
      <text
         id="text9704"
         y="4284.1631"
         x="2142.8018"
         style="font-style:normal;font-variant:normal;font-weight:normal;font-stretch:normal;font-size:233.58831787px;line-height:1.25;font-family:Akashi;-inkscape-font-specification:'Akashi, Normal';font-variant-ligatures:normal;font-variant-caps:normal;font-variant-numeric:normal;font-feature-settings:normal;text-align:start;letter-spacing:0px;word-spacing:0px;writing-mode:lr-tb;text-anchor:start;fill:#ffffff;fill-opacity:1;stroke:none;stroke-width:0.58397079"
         xml:space="preserve"><tspan
           style="font-style:normal;font-variant:normal;font-weight:normal;font-stretch:normal;font-size:233.58831787px;font-family:Akashi;-inkscape-font-specification:'Akashi, Normal';font-variant-ligatures:normal;font-variant-caps:normal;font-variant-numeric:normal;font-feature-settings:normal;text-align:start;writing-mode:lr-tb;text-anchor:start;fill:#ffffff;stroke-width:0.58397079"
           y="4284.1631"
           x="2142.8018"
           id="tspan9702"
           sodipodi:role="line">JUST</tspan></text>
      <text
         xml:space="preserve"
         style="font-style:normal;font-variant:normal;font-weight:normal;font-stretch:normal;font-size:233.58831787px;line-height:1.25;font-family:Akashi;-inkscape-font-specification:'Akashi, Normal';font-variant-ligatures:normal;font-variant-caps:normal;font-variant-numeric:normal;font-feature-settings:normal;text-align:start;letter-spacing:0px;word-spacing:0px;writing-mode:lr-tb;text-anchor:start;fill:#ffffff;fill-opacity:1;stroke:none;stroke-width:0.58397079"
         x="2177.0188"
         y="4748.9536"
         id="text9708"><tspan
           sodipodi:role="line"
           id="tspan9706"
           x="2177.0188"
           y="4748.9536"
           style="font-style:normal;font-variant:normal;font-weight:normal;font-stretch:normal;font-size:233.58831787px;font-family:Akashi;-inkscape-font-specification:'Akashi, Normal';font-variant-ligatures:normal;font-variant-caps:normal;font-variant-numeric:normal;font-feature-settings:normal;text-align:start;writing-mode:lr-tb;text-anchor:start;fill:#ffffff;stroke-width:0.58397079">SHIP</tspan></text>
      <text
         xml:space="preserve"
         style="font-style:normal;font-variant:normal;font-weight:normal;font-stretch:normal;font-size:233.58831787px;line-height:1.25;font-family:Akashi;-inkscape-font-specification:'Akashi, Normal';font-variant-ligatures:normal;font-variant-caps:normal;font-variant-numeric:normal;font-feature-settings:normal;text-align:start;letter-spacing:0px;word-spacing:0px;writing-mode:lr-tb;text-anchor:start;fill:#ffffff;fill-opacity:1;stroke:none;stroke-width:0.58397079"
         x="2148.5046"
         y="4516.5015"
         id="text9712"><tspan
           sodipodi:role="line"
           id="tspan9710"
           x="2148.5046"
           y="4516.5015"
           style="font-style:normal;font-variant:normal;font-weight:normal;font-stretch:normal;font-size:233.58831787px;font-family:Akashi;-inkscape-font-specification:'Akashi, Normal';font-variant-ligatures:normal;font-variant-caps:normal;font-variant-numeric:normal;font-feature-settings:normal;text-align:start;writing-mode:lr-tb;text-anchor:start;fill:#ffffff;stroke-width:0.58397079">KEEP</tspan></text>
      <text
         id="text9716"
         y="4981.3491"
         x="2177.0188"
         style="font-style:normal;font-variant:normal;font-weight:normal;font-stretch:normal;font-size:233.58831787px;line-height:1.25;font-family:Akashi;-inkscape-font-specification:'Akashi, Normal';font-variant-ligatures:normal;font-variant-caps:normal;font-variant-numeric:normal;font-feature-settings:normal;text-align:start;letter-spacing:0px;word-spacing:0px;writing-mode:lr-tb;text-anchor:start;fill:#ffffff;fill-opacity:1;stroke:none;stroke-width:0.58397079"
         xml:space="preserve"><tspan
           style="font-style:normal;font-variant:normal;font-weight:normal;font-stretch:normal;font-size:233.58831787px;font-family:Akashi;-inkscape-font-specification:'Akashi, Normal';font-variant-ligatures:normal;font-variant-caps:normal;font-variant-numeric:normal;font-feature-settings:normal;text-align:start;writing-mode:lr-tb;text-anchor:start;fill:#ffffff;stroke-width:0.58397079"
           y="4981.3491"
           x="2177.0188"
           id="tspan9714"
           sodipodi:role="line">PING</tspan></text>
    </g>
    <g
       transform="matrix(1.8570524,0,0,1.8570524,4488.8916,4271.2611)"
       id="layer1-5"
       inkscape:label="Layer 1"
       style="fill:#808080">
      <g
         id="g3339"
         style="fill:#808080">
        <rect
           style="fill:#808080;fill-opacity:0;stroke:none"
           id="rect4780"
           width="120"
           height="120"
           x="85.714287"
           y="512.36218"
           ry="5.9542975" />
        <g
           id="g4213"
           transform="matrix(0.4579357,0.46107937,-0.46107937,0.4579357,354.06519,18.888709)"
           style="fill:#808080;fill-opacity:1">
          <path
             id="path4136-9"
             d="m 377.8125,455.0957 c -24.68361,38.57358 -81.9866,127.53552 -82,206.71289 0.026,53.33023 14.83654,102.97582 39.69922,129.22461 h 84.67969 c 24.80862,-26.27634 39.5814,-75.87758 39.60742,-129.14453 -0.0134,-79.16377 -57.29576,-168.10714 -81.98633,-206.6914 z m -0.006,120.26563 a 32.5,32.5 0 0 1 32.5,32.5 32.5,32.5 0 0 1 -32.5,32.5 32.5,32.5 0 0 1 -32.5,-32.5 32.5,32.5 0 0 1 32.5,-32.5 z"
             style="fill:#808080;fill-opacity:1;stroke:none"
             inkscape:connector-curvature="0" />
          <path
             sodipodi:nodetypes="ccczc"
             inkscape:connector-curvature="0"
             id="path4178-6"
             d="m 301.86162,743.57072 c -55.19962,19.15139 -38.53696,71.44825 -21.42998,93.22076 10.64033,-23.34013 19.72448,-35.23468 41,-48 -4.32146,-7.8918 -9.77767,-17.72834 -12.72773,-25.17927 -2.95006,-7.45093 -3.59624,-11.10049 -6.84229,-20.04149 z"
             style="fill:#808080;fill-opacity:1;fill-rule:evenodd;stroke:none;stroke-width:1px;stroke-linecap:butt;stroke-linejoin:miter;stroke-opacity:1" />
          <path
             sodipodi:nodetypes="ccczc"
             inkscape:connector-curvature="0"
             id="path4178-7-2"
             d="m 453.85513,743.57072 c 55.19962,19.15139 38.53696,71.44825 21.42998,93.22076 -10.64033,-23.34013 -19.72448,-35.23468 -41,-48 4.32146,-7.8918 9.77767,-17.72834 12.72773,-25.17927 2.95006,-7.45093 3.59624,-11.10049 6.84229,-20.04149 z"
             style="fill:#808080;fill-opacity:1;fill-rule:evenodd;stroke:none;stroke-width:1px;stroke-linecap:butt;stroke-linejoin:miter;stroke-opacity:1" />
          <path
             inkscape:connector-curvature="0"
             id="path4136-5"
             d="m 377.80842,907.33095 c -7.97563,-12.46367 -26.49104,-41.20855 -26.49537,-66.79188 0.008,-17.23176 4.7939,-33.27296 12.82738,-41.75432 h 27.36122 c 8.01602,8.49026 12.78932,24.51713 12.79772,41.72844 -0.004,25.57894 -18.51308,54.31782 -26.49095,66.78494 v 0.0328 z"
             style="fill:#808080;fill-opacity:1;stroke:none" />
        </g>
      </g>
    </g>
    <text
       xml:space="preserve"
       style="font-style:normal;font-weight:normal;font-size:578.46697998px;line-height:1.25;font-family:sans-serif;letter-spacing:0px;word-spacing:0px;fill:#000000;fill-opacity:1;stroke:none;stroke-width:14.46167469"
       x="-1155.3312"
       y="3607.2891"
       id="text16447"><tspan
         sodipodi:role="line"
         id="tspan16445"
         x="-1155.3312"
         y="3607.2891"
         style="stroke-width:14.46167469">1</tspan></text>
    <text
       id="text16451"
       y="3644.7146"
       x="1230.5521"
       style="font-style:normal;font-weight:normal;font-size:578.46697998px;line-height:1.25;font-family:sans-serif;letter-spacing:0px;word-spacing:0px;fill:#000000;fill-opacity:1;stroke:none;stroke-width:14.46167469"
       xml:space="preserve"><tspan
         style="stroke-width:14.46167469"
         y="3644.7146"
         x="1230.5521"
         id="tspan16449"
         sodipodi:role="line">2</tspan></text>
    <text
       xml:space="preserve"
       style="font-style:normal;font-weight:normal;font-size:578.46697998px;line-height:1.25;font-family:sans-serif;letter-spacing:0px;word-spacing:0px;fill:#000000;fill-opacity:1;stroke:none;stroke-width:14.46167469"
       x="3831.6328"
       y="3682.1401"
       id="text16455"><tspan
         sodipodi:role="line"
         id="tspan16453"
         x="3831.6328"
         y="3682.1401"
         style="stroke-width:14.46167469">3</tspan></text>
  </g>
</svg>
